<?xml version="1.0" encoding="UTF-8" standalone="no"?><!DOCTYPE svg PUBLIC "-//W3C//DTD SVG 1.1//EN" "http://www.w3.org/Graphics/SVG/1.1/DTD/svg11.dtd"><svg width="100%" height="100%" viewBox="0 0 240 240" version="1.1" xmlns="http://www.w3.org/2000/svg" xmlns:xlink="http://www.w3.org/1999/xlink" xml:space="preserve" xmlns:serif="http://www.serif.com/" style="fill-rule:evenodd;clip-rule:evenodd;stroke-linejoin:round;stroke-miterlimit:1.41421;"><rect x="0" y="0" width="240" height="240" style="fill:#0078ab;"/><path d="M185.212,89.037l-6.667,-6.7c-0.888,-0.895 -1.912,-1.341 -3.069,-1.341c-1.154,0 -2.177,0.446 -3.065,1.341l-52.41,52.675l-52.408,-52.674c-0.889,-0.895 -1.912,-1.341 -3.067,-1.341c-1.156,0 -2.179,0.446 -3.068,1.341l-6.666,6.701c-0.89,0.893 -1.334,1.921 -1.334,3.083c0,1.161 0.445,2.189 1.334,3.082l62.141,62.46c0.889,0.894 1.912,1.34 3.068,1.34c1.155,0 2.177,-0.446 3.065,-1.34l62.146,-62.46c0.888,-0.893 1.33,-1.921 1.33,-3.082c0,-1.162 -0.442,-2.19 -1.33,-3.085Z" style="fill:#fff;fill-rule:nonzero;"/></svg>