<?xml version="1.0" encoding="UTF-8" standalone="no"?><!DOCTYPE svg PUBLIC "-//W3C//DTD SVG 1.1//EN" "http://www.w3.org/Graphics/SVG/1.1/DTD/svg11.dtd"><svg width="100%" height="100%" viewBox="0 0 274 34" version="1.1" xmlns="http://www.w3.org/2000/svg" xmlns:xlink="http://www.w3.org/1999/xlink" xml:space="preserve" style="fill-rule:evenodd;clip-rule:evenodd;stroke-linejoin:round;stroke-miterlimit:1.41421;"><g id="Layer-1"><path d="M46.917,7.903c0.553,0 0.997,-0.444 0.997,-0.998l0,-4.32c0,-0.544 -0.444,-0.998 -0.997,-0.998l-16.83,0l0,6.316l16.83,0Z" style="fill:#0d47a1;fill-rule:nonzero;"/><path d="M46.917,32.373c0.553,0 0.997,-0.443 0.997,-0.998l0,-4.32c0,-0.544 -0.444,-0.997 -0.997,-0.997l-16.83,0l0,6.315l16.83,0Z" style="fill:#0d47a1;fill-rule:nonzero;"/><path d="M272.768,1.581l-21.02,0c-0.554,0 -1.007,0.453 -1.007,0.997l0,4.32c0,0.554 0.453,1.007 1.007,1.007l7.342,0l0,23.498c0,0.554 0.454,0.997 1.007,0.997l4.321,0c0.554,0 0.997,-0.443 0.997,-0.997l0,-23.498l7.353,0c0.553,0 0.997,-0.453 0.997,-1.007l0,-4.32c0,-0.544 -0.444,-0.997 -0.997,-0.997" style="fill:#0d47a1;fill-rule:nonzero;"/><path d="M188.963,8.49c-0.494,-1.36 -1.239,-2.558 -2.216,-3.576c-0.967,-1.007 -2.155,-1.823 -3.525,-2.427c-1.39,-0.604 -2.961,-0.907 -4.683,-0.907l-11.432,0c-0.554,0 -1.007,0.454 -1.007,0.998l0,28.795c0,0.554 0.453,1.007 1.007,1.007l4.321,0c0.554,0 0.997,-0.453 0.997,-1.007l0,-7.373l6.114,0c1.722,0 3.283,-0.302 4.653,-0.886c1.37,-0.584 2.548,-1.39 3.515,-2.407c0.967,-1.007 1.722,-2.196 2.226,-3.515c0.513,-1.32 0.765,-2.992 0.765,-4.452c0,-1.48 -0.242,-2.911 -0.735,-4.25m-5.962,6.264c-0.222,0.605 -0.544,1.138 -0.947,1.572c-0.403,0.432 -0.856,0.705 -1.4,0.946c-0.544,0.242 -1.501,0.393 -3.374,0.393l-4.855,0l0,-9.759l6.365,0c0.685,0 1.31,0.12 1.864,0.372c0.564,0.242 1.047,0.584 1.45,0.997c0.393,0.423 0.705,0.937 0.917,1.521c0.221,0.625 0.332,1.289 0.332,1.994c0,0.695 -0.121,1.36 -0.352,1.964" style="fill:#0d47a1;fill-rule:nonzero;"/><path d="M145.961,10.422c-0.03,0.635 0.141,1.028 0.382,1.37c0.273,0.383 0.655,0.715 1.139,0.967c0.544,0.282 1.188,0.504 1.903,0.665c0.786,0.171 1.601,0.322 2.397,0.473c1.461,0.222 2.911,0.514 4.291,0.856c1.44,0.363 2.719,0.897 3.797,1.602c1.128,0.725 2.024,1.692 2.669,2.88c0.644,1.189 0.937,2.71 0.856,4.522c-0.081,1.753 -0.524,3.254 -1.34,4.452c-0.795,1.178 -1.812,2.135 -3.041,2.861c-1.209,0.705 -2.398,1.218 -3.868,1.49c-1.44,0.272 -3.052,0.353 -4.462,0.292c-3.504,-0.151 -8.671,-2.165 -11.26,-5.711c-0.211,-0.282 -0.463,-0.765 0.091,-1.339c0.564,-0.564 3.223,-3.273 3.223,-3.273c0.544,-0.564 1.057,-0.172 1.279,0.161c1.521,2.216 4.542,3.867 6.919,3.978c1.249,0.05 1.39,0 2.176,-0.1c0.705,-0.091 1.329,-0.273 1.924,-0.544c0.533,-0.242 0.987,-0.575 1.339,-1.028c0.332,-0.423 0.523,-1.017 0.574,-1.702c0.04,-0.665 -0.141,-1.208 -0.453,-1.631c-0.332,-0.474 -0.796,-0.826 -1.35,-1.119c-0.614,-0.322 -1.329,-0.533 -2.125,-0.674c-0.846,-0.161 -1.682,-0.302 -2.498,-0.423c-1.349,-0.171 -2.699,-0.444 -3.988,-0.816c-1.34,-0.383 -2.538,-0.917 -3.555,-1.602c-1.068,-0.705 -1.924,-1.631 -2.549,-2.729c-0.644,-1.128 -0.936,-2.417 -0.866,-4.029c0.071,-1.631 0.473,-3.061 1.199,-4.26c0.725,-1.188 1.672,-2.165 2.81,-2.901c1.118,-0.725 2.407,-1.259 3.827,-1.581c2.76,-0.624 5.529,-0.524 8.269,0.343c2.951,0.936 5.318,3.202 6.416,4.804c0.201,0.302 0.402,0.765 -0.031,1.249c-0.423,0.473 -3.031,3.031 -3.031,3.031c-0.564,0.534 -1.138,0.413 -1.461,-0.06c-1.591,-2.347 -3.656,-3.404 -6.043,-3.565c-2.558,-0.172 -5.438,0.402 -5.559,3.091" style="fill:#0d47a1;fill-rule:nonzero;"/><path d="M132.761,5.306c-1.42,-1.36 -3.102,-2.407 -4.986,-3.112c-1.873,-0.695 -3.877,-1.058 -5.962,-1.058c-2.065,0 -4.059,0.363 -5.942,1.058c-1.904,0.705 -3.596,1.752 -5.026,3.112c-1.44,1.35 -2.599,3.042 -3.445,5.006c-0.846,1.963 -1.279,4.21 -1.279,6.687c0,2.498 0.423,4.754 1.259,6.708c0.826,1.954 1.974,3.626 3.394,4.985c1.42,1.36 3.102,2.398 4.986,3.113c1.873,0.695 3.877,1.047 5.962,1.047c2.287,0 4.422,-0.383 6.335,-1.138c1.934,-0.765 3.616,-1.863 4.996,-3.273c1.37,-1.4 2.467,-3.092 3.243,-5.026c0.765,-1.934 1.158,-4.089 1.158,-6.416c0,-2.467 -0.433,-4.724 -1.279,-6.687c-0.846,-1.964 -1.994,-3.646 -3.414,-5.006m-2.518,15.964c-0.494,1.178 -1.158,2.185 -1.984,2.981c-0.836,0.796 -1.813,1.41 -2.911,1.813c-1.118,0.413 -2.327,0.624 -3.596,0.624c-1.289,0 -2.518,-0.211 -3.625,-0.624c-1.098,-0.403 -2.055,-1.008 -2.861,-1.803c-0.806,-0.796 -1.47,-1.803 -1.954,-2.991c-0.483,-1.209 -0.735,-2.629 -0.735,-4.231c0,-1.601 0.252,-3.021 0.735,-4.23c0.484,-1.188 1.148,-2.195 1.974,-2.991c0.816,-0.796 1.783,-1.41 2.891,-1.823c1.108,-0.433 2.326,-0.645 3.626,-0.645c1.259,0 2.457,0.212 3.575,0.645c1.098,0.413 2.065,1.038 2.891,1.843c0.816,0.806 1.48,1.823 1.974,3.022c0.483,1.198 0.735,2.608 0.735,4.179c0,1.602 -0.252,3.022 -0.735,4.231" style="fill:#0d47a1;fill-rule:nonzero;"/><path d="M218.507,5.306c-1.42,-1.36 -3.102,-2.407 -4.985,-3.112c-1.873,-0.695 -3.878,-1.058 -5.963,-1.058c-2.064,0 -4.059,0.363 -5.942,1.058c-1.903,0.705 -3.595,1.752 -5.026,3.112c-1.44,1.35 -2.598,3.042 -3.444,5.006c-0.846,1.963 -1.279,4.21 -1.279,6.687c0,2.498 0.423,4.754 1.259,6.708c0.825,1.954 1.974,3.626 3.394,4.985c1.42,1.36 3.102,2.398 4.985,3.113c1.873,0.695 3.878,1.047 5.963,1.047c2.286,0 4.421,-0.383 6.335,-1.138c1.933,-0.765 3.616,-1.863 4.996,-3.273c1.369,-1.4 2.467,-3.092 3.242,-5.026c0.766,-1.934 1.159,-4.089 1.159,-6.416c0,-2.467 -0.433,-4.724 -1.279,-6.687c-0.846,-1.964 -1.994,-3.646 -3.415,-5.006m-2.518,15.964c-0.493,1.178 -1.158,2.185 -1.984,2.981c-0.836,0.796 -1.813,1.41 -2.911,1.813c-1.117,0.413 -2.326,0.624 -3.595,0.624c-1.289,0 -2.518,-0.211 -3.626,-0.624c-1.098,-0.403 -2.054,-1.008 -2.86,-1.803c-0.806,-0.796 -1.471,-1.803 -1.954,-2.991c-0.484,-1.209 -0.735,-2.629 -0.735,-4.231c0,-1.601 0.251,-3.021 0.735,-4.23c0.483,-1.188 1.148,-2.195 1.974,-2.991c0.816,-0.796 1.782,-1.41 2.89,-1.823c1.108,-0.433 2.327,-0.645 3.626,-0.645c1.259,0 2.458,0.212 3.576,0.645c1.097,0.413 2.064,1.038 2.89,1.843c0.816,0.806 1.481,1.823 1.974,3.022c0.484,1.198 0.735,2.608 0.735,4.179c0,1.602 -0.251,3.022 -0.735,4.231" style="fill:#0d47a1;fill-rule:nonzero;"/><path d="M74.606,1.581l-4.341,0c-0.544,0 -0.997,0.454 -0.997,0.998l0,19.065c0,0.806 -0.131,1.521 -0.403,2.115c-0.262,0.584 -0.635,1.088 -1.098,1.481c-0.473,0.413 -1.047,0.725 -1.702,0.947c-0.675,0.221 -1.813,0.332 -2.609,0.332c-0.795,0 -1.994,-0.111 -2.689,-0.332c-0.665,-0.222 -1.259,-0.544 -1.742,-0.947c-0.474,-0.403 -0.846,-0.897 -1.108,-1.481c-0.272,-0.594 -0.413,-1.309 -0.413,-2.115l0,-19.065c0,-0.544 -0.443,-0.998 -0.997,-0.998l-4.321,0c-0.554,0 -0.997,0.454 -0.997,0.998l0,19.216c0,1.763 0.332,3.344 0.977,4.704c0.655,1.36 1.551,2.528 2.689,3.485c1.128,0.947 2.437,1.662 3.918,2.145c1.45,0.463 3.032,0.705 4.683,0.705c1.632,0 3.193,-0.242 4.654,-0.705c1.47,-0.483 2.779,-1.209 3.877,-2.155c1.108,-0.947 1.994,-2.115 2.639,-3.475c0.644,-1.36 0.977,-2.941 0.977,-4.704l0,-19.216c0,-0.544 -0.443,-0.998 -0.997,-0.998" style="fill:#0d47a1;fill-rule:nonzero;"/><path d="M104.993,30.703l-7.02,-8.712c0,0 5.671,-2.055 5.671,-9.246c0,-1.481 -0.252,-2.911 -0.746,-4.25c-0.493,-1.36 -1.239,-2.569 -2.205,-3.586c-0.967,-1.007 -2.156,-1.823 -3.536,-2.417c-1.38,-0.604 -2.961,-0.907 -4.673,-0.907l-11.431,0c-0.544,0 -0.997,0.444 -0.997,0.998l0,28.795c0,0.553 0.453,0.997 0.997,0.997l4.31,0c0.554,0 0.997,-0.444 0.997,-0.997l0,-23.477l6.406,0c0.675,0 1.299,0.13 1.853,0.372c0.564,0.252 1.048,0.584 1.451,1.007c0.392,0.413 0.705,0.927 0.916,1.521c0.222,0.614 0.333,1.279 0.333,1.984c0,0.695 -0.121,1.36 -0.353,1.974c-0.222,0.605 -0.544,1.128 -0.947,1.572c-0.403,0.422 -0.856,0.704 -1.4,0.946c-0.544,0.242 -1.5,0.383 -3.374,0.383l-2.679,0c-0.524,0 -0.936,0.483 -0.524,1.138l10.002,13.164c0.191,0.262 0.493,0.413 0.815,0.413l5.53,0c0.816,0 1.35,-0.746 0.604,-1.672" style="fill:#0d47a1;fill-rule:nonzero;"/><path d="M251.113,30.703l-7.02,-8.712c0,0 5.671,-2.055 5.671,-9.246c0,-1.481 -0.252,-2.911 -0.746,-4.25c-0.493,-1.36 -1.238,-2.569 -2.205,-3.586c-0.967,-1.007 -2.156,-1.823 -3.535,-2.417c-1.38,-0.604 -2.962,-0.907 -4.674,-0.907l-11.431,0c-0.544,0 -0.997,0.444 -0.997,0.998l0,28.795c0,0.553 0.453,0.997 0.997,0.997l4.311,0c0.554,0 0.997,-0.444 0.997,-0.997l0,-23.477l6.405,0c0.675,0 1.3,0.13 1.853,0.372c0.564,0.252 1.048,0.584 1.451,1.007c0.393,0.413 0.705,0.927 0.916,1.521c0.222,0.614 0.333,1.279 0.333,1.984c0,0.695 -0.121,1.36 -0.353,1.974c-0.221,0.605 -0.544,1.128 -0.946,1.572c-0.403,0.422 -0.857,0.704 -1.401,0.946c-0.543,0.242 -1.5,0.383 -3.374,0.383l-2.679,0c-0.523,0 -0.936,0.483 -0.523,1.138l10.001,13.164c0.191,0.262 0.493,0.413 0.816,0.413l5.529,0c0.816,0 1.35,-0.746 0.604,-1.672" style="fill:#0d47a1;fill-rule:nonzero;"/><path d="M16.431,14.507l-16.196,0l10.384,6.808l-9.356,10.978l15.883,-6.728l10.283,6.748l0,-11.129l15.692,-6.677l-15.692,0l0,-12.892l-10.998,12.892l0,0Z" style="fill:#0d47a1;fill-rule:nonzero;"/><path d="M46.917,7.903c0.553,0 0.997,-0.444 0.997,-0.998l0,-4.32c0,-0.544 -0.444,-0.998 -0.997,-0.998l-16.83,0l0,6.316l16.83,0Z" style="fill:#0d47a1;fill-rule:nonzero;"/><path d="M46.917,32.373c0.553,0 0.997,-0.443 0.997,-0.998l0,-4.32c0,-0.544 -0.444,-0.997 -0.997,-0.997l-16.83,0l0,6.315l16.83,0Z" style="fill:#0d47a1;fill-rule:nonzero;"/><path d="M272.768,1.581l-21.02,0c-0.554,0 -1.007,0.453 -1.007,0.997l0,4.32c0,0.554 0.453,1.007 1.007,1.007l7.342,0l0,23.498c0,0.554 0.454,0.997 1.007,0.997l4.321,0c0.554,0 0.997,-0.443 0.997,-0.997l0,-23.498l7.353,0c0.553,0 0.997,-0.453 0.997,-1.007l0,-4.32c0,-0.544 -0.444,-0.997 -0.997,-0.997" style="fill:#0d47a1;fill-rule:nonzero;"/><path d="M188.963,8.49c-0.494,-1.36 -1.239,-2.558 -2.216,-3.576c-0.967,-1.007 -2.155,-1.823 -3.525,-2.427c-1.39,-0.604 -2.961,-0.907 -4.683,-0.907l-11.432,0c-0.554,0 -1.007,0.454 -1.007,0.998l0,28.795c0,0.554 0.453,1.007 1.007,1.007l4.321,0c0.554,0 0.997,-0.453 0.997,-1.007l0,-7.373l6.114,0c1.722,0 3.283,-0.302 4.653,-0.886c1.37,-0.584 2.548,-1.39 3.515,-2.407c0.967,-1.007 1.722,-2.196 2.226,-3.515c0.513,-1.32 0.765,-2.992 0.765,-4.452c0,-1.48 -0.242,-2.911 -0.735,-4.25m-5.962,6.264c-0.222,0.605 -0.544,1.138 -0.947,1.572c-0.403,0.432 -0.856,0.705 -1.4,0.946c-0.544,0.242 -1.501,0.393 -3.374,0.393l-4.855,0l0,-9.759l6.365,0c0.685,0 1.31,0.12 1.864,0.372c0.564,0.242 1.047,0.584 1.45,0.997c0.393,0.423 0.705,0.937 0.917,1.521c0.221,0.625 0.332,1.289 0.332,1.994c0,0.695 -0.121,1.36 -0.352,1.964" style="fill:#0d47a1;fill-rule:nonzero;"/><path d="M145.961,10.422c-0.03,0.635 0.141,1.028 0.382,1.37c0.273,0.383 0.655,0.715 1.139,0.967c0.544,0.282 1.188,0.504 1.903,0.665c0.786,0.171 1.601,0.322 2.397,0.473c1.461,0.222 2.911,0.514 4.291,0.856c1.44,0.363 2.719,0.897 3.797,1.602c1.128,0.725 2.024,1.692 2.669,2.88c0.644,1.189 0.937,2.71 0.856,4.522c-0.081,1.753 -0.524,3.254 -1.34,4.452c-0.795,1.178 -1.812,2.135 -3.041,2.861c-1.209,0.705 -2.398,1.218 -3.868,1.49c-1.44,0.272 -3.052,0.353 -4.462,0.292c-3.504,-0.151 -8.671,-2.165 -11.26,-5.711c-0.211,-0.282 -0.463,-0.765 0.091,-1.339c0.564,-0.564 3.223,-3.273 3.223,-3.273c0.544,-0.564 1.057,-0.172 1.279,0.161c1.521,2.216 4.542,3.867 6.919,3.978c1.249,0.05 1.39,0 2.176,-0.1c0.705,-0.091 1.329,-0.273 1.924,-0.544c0.533,-0.242 0.987,-0.575 1.339,-1.028c0.332,-0.423 0.523,-1.017 0.574,-1.702c0.04,-0.665 -0.141,-1.208 -0.453,-1.631c-0.332,-0.474 -0.796,-0.826 -1.35,-1.119c-0.614,-0.322 -1.329,-0.533 -2.125,-0.674c-0.846,-0.161 -1.682,-0.302 -2.498,-0.423c-1.349,-0.171 -2.699,-0.444 -3.988,-0.816c-1.34,-0.383 -2.538,-0.917 -3.555,-1.602c-1.068,-0.705 -1.924,-1.631 -2.549,-2.729c-0.644,-1.128 -0.936,-2.417 -0.866,-4.029c0.071,-1.631 0.473,-3.061 1.199,-4.26c0.725,-1.188 1.672,-2.165 2.81,-2.901c1.118,-0.725 2.407,-1.259 3.827,-1.581c2.76,-0.624 5.529,-0.524 8.269,0.343c2.951,0.936 5.318,3.202 6.416,4.804c0.201,0.302 0.402,0.765 -0.031,1.249c-0.423,0.473 -3.031,3.031 -3.031,3.031c-0.564,0.534 -1.138,0.413 -1.461,-0.06c-1.591,-2.347 -3.656,-3.404 -6.043,-3.565c-2.558,-0.172 -5.438,0.402 -5.559,3.091" style="fill:#0d47a1;fill-rule:nonzero;"/><path d="M132.761,5.306c-1.42,-1.36 -3.102,-2.407 -4.986,-3.112c-1.873,-0.695 -3.877,-1.058 -5.962,-1.058c-2.065,0 -4.059,0.363 -5.942,1.058c-1.904,0.705 -3.596,1.752 -5.026,3.112c-1.44,1.35 -2.599,3.042 -3.445,5.006c-0.846,1.963 -1.279,4.21 -1.279,6.687c0,2.498 0.423,4.754 1.259,6.708c0.826,1.954 1.974,3.626 3.394,4.985c1.42,1.36 3.102,2.398 4.986,3.113c1.873,0.695 3.877,1.047 5.962,1.047c2.287,0 4.422,-0.383 6.335,-1.138c1.934,-0.765 3.616,-1.863 4.996,-3.273c1.37,-1.4 2.467,-3.092 3.243,-5.026c0.765,-1.934 1.158,-4.089 1.158,-6.416c0,-2.467 -0.433,-4.724 -1.279,-6.687c-0.846,-1.964 -1.994,-3.646 -3.414,-5.006m-2.518,15.964c-0.494,1.178 -1.158,2.185 -1.984,2.981c-0.836,0.796 -1.813,1.41 -2.911,1.813c-1.118,0.413 -2.327,0.624 -3.596,0.624c-1.289,0 -2.518,-0.211 -3.625,-0.624c-1.098,-0.403 -2.055,-1.008 -2.861,-1.803c-0.806,-0.796 -1.47,-1.803 -1.954,-2.991c-0.483,-1.209 -0.735,-2.629 -0.735,-4.231c0,-1.601 0.252,-3.021 0.735,-4.23c0.484,-1.188 1.148,-2.195 1.974,-2.991c0.816,-0.796 1.783,-1.41 2.891,-1.823c1.108,-0.433 2.326,-0.645 3.626,-0.645c1.259,0 2.457,0.212 3.575,0.645c1.098,0.413 2.065,1.038 2.891,1.843c0.816,0.806 1.48,1.823 1.974,3.022c0.483,1.198 0.735,2.608 0.735,4.179c0,1.602 -0.252,3.022 -0.735,4.231" style="fill:#0d47a1;fill-rule:nonzero;"/><path d="M218.507,5.306c-1.42,-1.36 -3.102,-2.407 -4.985,-3.112c-1.873,-0.695 -3.878,-1.058 -5.963,-1.058c-2.064,0 -4.059,0.363 -5.942,1.058c-1.903,0.705 -3.595,1.752 -5.026,3.112c-1.44,1.35 -2.598,3.042 -3.444,5.006c-0.846,1.963 -1.279,4.21 -1.279,6.687c0,2.498 0.423,4.754 1.259,6.708c0.825,1.954 1.974,3.626 3.394,4.985c1.42,1.36 3.102,2.398 4.985,3.113c1.873,0.695 3.878,1.047 5.963,1.047c2.286,0 4.421,-0.383 6.335,-1.138c1.933,-0.765 3.616,-1.863 4.996,-3.273c1.369,-1.4 2.467,-3.092 3.242,-5.026c0.766,-1.934 1.159,-4.089 1.159,-6.416c0,-2.467 -0.433,-4.724 -1.279,-6.687c-0.846,-1.964 -1.994,-3.646 -3.415,-5.006m-2.518,15.964c-0.493,1.178 -1.158,2.185 -1.984,2.981c-0.836,0.796 -1.813,1.41 -2.911,1.813c-1.117,0.413 -2.326,0.624 -3.595,0.624c-1.289,0 -2.518,-0.211 -3.626,-0.624c-1.098,-0.403 -2.054,-1.008 -2.86,-1.803c-0.806,-0.796 -1.471,-1.803 -1.954,-2.991c-0.484,-1.209 -0.735,-2.629 -0.735,-4.231c0,-1.601 0.251,-3.021 0.735,-4.23c0.483,-1.188 1.148,-2.195 1.974,-2.991c0.816,-0.796 1.782,-1.41 2.89,-1.823c1.108,-0.433 2.327,-0.645 3.626,-0.645c1.259,0 2.458,0.212 3.576,0.645c1.097,0.413 2.064,1.038 2.89,1.843c0.816,0.806 1.481,1.823 1.974,3.022c0.484,1.198 0.735,2.608 0.735,4.179c0,1.602 -0.251,3.022 -0.735,4.231" style="fill:#0d47a1;fill-rule:nonzero;"/><path d="M74.606,1.581l-4.341,0c-0.544,0 -0.997,0.454 -0.997,0.998l0,19.065c0,0.806 -0.131,1.521 -0.403,2.115c-0.262,0.584 -0.635,1.088 -1.098,1.481c-0.473,0.413 -1.047,0.725 -1.702,0.947c-0.675,0.221 -1.813,0.332 -2.609,0.332c-0.795,0 -1.994,-0.111 -2.689,-0.332c-0.665,-0.222 -1.259,-0.544 -1.742,-0.947c-0.474,-0.403 -0.846,-0.897 -1.108,-1.481c-0.272,-0.594 -0.413,-1.309 -0.413,-2.115l0,-19.065c0,-0.544 -0.443,-0.998 -0.997,-0.998l-4.321,0c-0.554,0 -0.997,0.454 -0.997,0.998l0,19.216c0,1.763 0.332,3.344 0.977,4.704c0.655,1.36 1.551,2.528 2.689,3.485c1.128,0.947 2.437,1.662 3.918,2.145c1.45,0.463 3.032,0.705 4.683,0.705c1.632,0 3.193,-0.242 4.654,-0.705c1.47,-0.483 2.779,-1.209 3.877,-2.155c1.108,-0.947 1.994,-2.115 2.639,-3.475c0.644,-1.36 0.977,-2.941 0.977,-4.704l0,-19.216c0,-0.544 -0.443,-0.998 -0.997,-0.998" style="fill:#0d47a1;fill-rule:nonzero;"/><path d="M104.993,30.703l-7.02,-8.712c0,0 5.671,-2.055 5.671,-9.246c0,-1.481 -0.252,-2.911 -0.746,-4.25c-0.493,-1.36 -1.239,-2.569 -2.205,-3.586c-0.967,-1.007 -2.156,-1.823 -3.536,-2.417c-1.38,-0.604 -2.961,-0.907 -4.673,-0.907l-11.431,0c-0.544,0 -0.997,0.444 -0.997,0.998l0,28.795c0,0.553 0.453,0.997 0.997,0.997l4.31,0c0.554,0 0.997,-0.444 0.997,-0.997l0,-23.477l6.406,0c0.675,0 1.299,0.13 1.853,0.372c0.564,0.252 1.048,0.584 1.451,1.007c0.392,0.413 0.705,0.927 0.916,1.521c0.222,0.614 0.333,1.279 0.333,1.984c0,0.695 -0.121,1.36 -0.353,1.974c-0.222,0.605 -0.544,1.128 -0.947,1.572c-0.403,0.422 -0.856,0.704 -1.4,0.946c-0.544,0.242 -1.5,0.383 -3.374,0.383l-2.679,0c-0.524,0 -0.936,0.483 -0.524,1.138l10.002,13.164c0.191,0.262 0.493,0.413 0.815,0.413l5.53,0c0.816,0 1.35,-0.746 0.604,-1.672" style="fill:#0d47a1;fill-rule:nonzero;"/><path d="M251.113,30.703l-7.02,-8.712c0,0 5.671,-2.055 5.671,-9.246c0,-1.481 -0.252,-2.911 -0.746,-4.25c-0.493,-1.36 -1.238,-2.569 -2.205,-3.586c-0.967,-1.007 -2.156,-1.823 -3.535,-2.417c-1.38,-0.604 -2.962,-0.907 -4.674,-0.907l-11.431,0c-0.544,0 -0.997,0.444 -0.997,0.998l0,28.795c0,0.553 0.453,0.997 0.997,0.997l4.311,0c0.554,0 0.997,-0.444 0.997,-0.997l0,-23.477l6.405,0c0.675,0 1.3,0.13 1.853,0.372c0.564,0.252 1.048,0.584 1.451,1.007c0.393,0.413 0.705,0.927 0.916,1.521c0.222,0.614 0.333,1.279 0.333,1.984c0,0.695 -0.121,1.36 -0.353,1.974c-0.221,0.605 -0.544,1.128 -0.946,1.572c-0.403,0.422 -0.857,0.704 -1.401,0.946c-0.543,0.242 -1.5,0.383 -3.374,0.383l-2.679,0c-0.523,0 -0.936,0.483 -0.523,1.138l10.001,13.164c0.191,0.262 0.493,0.413 0.816,0.413l5.529,0c0.816,0 1.35,-0.746 0.604,-1.672" style="fill:#0d47a1;fill-rule:nonzero;"/></g></svg>