<?xml version="1.0" encoding="UTF-8" standalone="no"?><!DOCTYPE svg PUBLIC "-//W3C//DTD SVG 1.1//EN" "http://www.w3.org/Graphics/SVG/1.1/DTD/svg11.dtd"><svg width="100%" height="100%" viewBox="0 0 89 46" version="1.1" xmlns="http://www.w3.org/2000/svg" xmlns:xlink="http://www.w3.org/1999/xlink" xml:space="preserve" style="fill-rule:evenodd;clip-rule:evenodd;stroke-linejoin:round;stroke-miterlimit:1.41421;"><g><path d="M19.431,20.114l-18.745,0l12.019,7.88l-10.829,12.706l18.383,-7.787l11.902,7.811l0,-12.881l18.162,-7.729l-18.162,0l0,-14.921l-12.73,14.921l0,0Z" style="fill:#0d47a1;fill-rule:nonzero;"/><path d="M54.716,12.47c0.641,0 1.154,-0.512 1.154,-1.154l0,-5c0,-0.63 -0.513,-1.155 -1.154,-1.155l-19.479,0l0,7.309l19.479,0Z" style="fill:#0d47a1;fill-rule:nonzero;"/><path d="M54.716,40.793c0.641,0 1.154,-0.513 1.154,-1.155l0,-5c0,-0.63 -0.513,-1.155 -1.154,-1.155l-19.479,0l0,7.31l19.479,0Z" style="fill:#0d47a1;fill-rule:nonzero;"/><path d="M68.12,15.387c-0.035,0.734 0.163,1.189 0.443,1.585c0.315,0.444 0.757,0.828 1.317,1.12c0.63,0.326 1.376,0.582 2.203,0.769c0.909,0.198 1.854,0.373 2.775,0.548c1.69,0.256 3.369,0.594 4.966,0.991c1.667,0.419 3.147,1.037 4.394,1.853c1.306,0.84 2.343,1.958 3.089,3.334c0.746,1.376 1.085,3.136 0.991,5.234c-0.093,2.028 -0.606,3.765 -1.55,5.152c-0.921,1.364 -2.098,2.472 -3.521,3.311c-1.399,0.816 -2.774,1.411 -4.476,1.726c-1.667,0.314 -3.532,0.407 -5.164,0.337c-4.057,-0.174 -10.037,-2.506 -13.033,-6.609c-0.244,-0.327 -0.536,-0.886 0.105,-1.55c0.653,-0.653 3.73,-3.789 3.73,-3.789c0.63,-0.653 1.225,-0.198 1.481,0.186c1.76,2.565 5.257,4.477 8.008,4.605c1.446,0.058 1.609,0 2.518,-0.116c0.816,-0.105 1.539,-0.315 2.227,-0.63c0.618,-0.28 1.142,-0.665 1.55,-1.189c0.385,-0.49 0.606,-1.178 0.665,-1.97c0.046,-0.77 -0.163,-1.399 -0.525,-1.888c-0.384,-0.548 -0.921,-0.957 -1.562,-1.295c-0.711,-0.373 -1.539,-0.618 -2.46,-0.781c-0.979,-0.186 -1.946,-0.349 -2.891,-0.489c-1.562,-0.198 -3.124,-0.513 -4.616,-0.945c-1.55,-0.442 -2.937,-1.06 -4.115,-1.853c-1.235,-0.816 -2.226,-1.888 -2.949,-3.159c-0.746,-1.306 -1.084,-2.798 -1.003,-4.663c0.082,-1.888 0.548,-3.544 1.388,-4.931c0.839,-1.375 1.935,-2.506 3.252,-3.357c1.294,-0.839 2.786,-1.457 4.43,-1.83c3.194,-0.723 6.399,-0.607 9.57,0.396c3.416,1.084 6.155,3.707 7.426,5.561c0.233,0.349 0.466,0.886 -0.035,1.445c-0.49,0.548 -3.509,3.509 -3.509,3.509c-0.653,0.618 -1.317,0.478 -1.69,-0.07c-1.842,-2.716 -4.232,-3.94 -6.995,-4.127c-2.961,-0.198 -6.294,0.467 -6.434,3.579" style="fill:#0d47a1;fill-rule:nonzero;"/></g></svg>