<?xml version="1.0" encoding="UTF-8" standalone="no"?><!DOCTYPE svg PUBLIC "-//W3C//DTD SVG 1.1//EN" "http://www.w3.org/Graphics/SVG/1.1/DTD/svg11.dtd"><svg width="100%" height="100%" viewBox="0 0 274 114" version="1.1" xmlns="http://www.w3.org/2000/svg" xmlns:xlink="http://www.w3.org/1999/xlink" xml:space="preserve" style="fill-rule:evenodd;clip-rule:evenodd;stroke-linejoin:round;stroke-miterlimit:1.41421;"><rect id="Artboard1" x="0" y="0" width="273.753" height="113.099" style="fill:none;"/><clipPath id="_clip1"><rect id="Artboard11" x="0" y="0" width="273.753" height="113.099"/></clipPath><g clip-path="url(#_clip1)"><g id="typography"><g><rect x="17.724" y="100.656" width="1.578" height="9.015" style="fill:#1a1619;fill-rule:nonzero;"/><path d="M28.767,109.671l-3.398,-5.288c-0.364,-0.554 -0.728,-1.213 -0.988,-1.768l-0.017,0c0.034,0.573 0.069,1.179 0.069,2.15l0,4.906l-1.525,0l0,-9.015l2.08,0l3.346,5.201c0.381,0.572 0.745,1.196 1.057,1.803l0.018,0c-0.052,-0.589 -0.07,-1.56 -0.07,-2.895l-0.017,-4.109l1.543,0l0,9.015l-2.098,0Z" style="fill:#1a1619;fill-rule:nonzero;"/><path d="M37.209,101.974l0,7.697l-1.578,0l0,-7.697l-2.601,0l0,-1.318l6.796,0l0,1.318l-2.617,0Z" style="fill:#1a1619;fill-rule:nonzero;"/><path d="M42.081,109.671l0,-9.015l5.097,0l0,1.231l-3.519,0l0,2.549l3.345,0l0,1.195l-3.345,0l0,2.774l3.519,0l0,1.266l-5.097,0Z" style="fill:#1a1619;fill-rule:nonzero;"/><path d="M52.778,101.817c-0.381,0 -0.642,0.018 -0.901,0.052l0,2.826c0.277,0.017 0.624,0.035 0.953,0.035c1.092,0 1.803,-0.607 1.803,-1.542c0,-0.919 -0.711,-1.371 -1.855,-1.371m2.063,7.854l-2.895,-3.866l-0.069,0l0,3.866l-1.578,0l0,-9.015c0.59,-0.035 1.612,-0.052 2.688,-0.052c2.097,0 3.311,0.832 3.311,2.427c0,1.526 -1.145,2.427 -2.705,2.583c0.225,0.243 0.486,0.589 0.78,0.954l2.445,3.103l-1.977,0Z" style="fill:#1a1619;fill-rule:nonzero;"/><path d="M65.261,109.671l-3.397,-5.288c-0.365,-0.554 -0.728,-1.213 -0.989,-1.768l-0.017,0c0.035,0.573 0.069,1.179 0.069,2.15l0,4.906l-1.525,0l0,-9.015l2.08,0l3.346,5.201c0.381,0.572 0.746,1.196 1.057,1.803l0.018,0c-0.052,-0.589 -0.07,-1.56 -0.07,-2.895l-0.017,-4.109l1.543,0l0,9.015l-2.098,0Z" style="fill:#1a1619;fill-rule:nonzero;"/><path d="M74.485,103.794c-0.19,-0.503 -0.364,-1.057 -0.502,-1.491l-0.018,0c-0.103,0.451 -0.277,0.971 -0.468,1.474l-1.11,2.843l3.19,0l-1.092,-2.826Zm2.202,5.877l-0.71,-1.89l-4.006,0l-0.71,1.89l-1.595,0l3.502,-9.015l1.803,0l3.467,9.015l-1.751,0Z" style="fill:#1a1619;fill-rule:nonzero;"/><path d="M82.737,101.974l0,7.697l-1.578,0l0,-7.697l-2.6,0l0,-1.318l6.796,0l0,1.318l-2.618,0Z" style="fill:#1a1619;fill-rule:nonzero;"/><rect x="87.61" y="100.656" width="1.578" height="9.015" style="fill:#1a1619;fill-rule:nonzero;"/><path d="M96.33,101.87c-1.473,0 -2.774,1.126 -2.774,3.242c0,1.837 0.746,3.328 2.722,3.328c1.578,0 2.826,-1.075 2.826,-3.225c0,-2.184 -1.075,-3.345 -2.774,-3.345m-0.156,7.94c-2.93,0 -4.299,-1.89 -4.299,-4.56c0,-2.981 2.115,-4.732 4.576,-4.732c2.653,0 4.352,1.576 4.352,4.559c0,3.016 -2.08,4.733 -4.629,4.733" style="fill:#1a1619;fill-rule:nonzero;"/><path d="M109.351,109.671l-3.398,-5.288c-0.364,-0.554 -0.728,-1.213 -0.988,-1.768l-0.017,0c0.034,0.573 0.069,1.179 0.069,2.15l0,4.906l-1.525,0l0,-9.015l2.08,0l3.346,5.201c0.381,0.572 0.745,1.196 1.057,1.803l0.017,0c-0.051,-0.589 -0.069,-1.56 -0.069,-2.895l-0.017,-4.109l1.543,0l0,9.015l-2.098,0Z" style="fill:#1a1619;fill-rule:nonzero;"/><path d="M118.575,103.794c-0.19,-0.503 -0.364,-1.057 -0.502,-1.491l-0.018,0c-0.104,0.451 -0.277,0.971 -0.468,1.474l-1.11,2.843l3.19,0l-1.092,-2.826Zm2.202,5.877l-0.711,-1.89l-4.005,0l-0.711,1.89l-1.594,0l3.502,-9.015l1.802,0l3.468,9.015l-1.751,0Z" style="fill:#1a1619;fill-rule:nonzero;"/><path d="M124.817,109.671l0,-9.015l1.578,0l0,7.663l3.224,0l0,1.352l-4.802,0Z" style="fill:#1a1619;fill-rule:nonzero;"/><path d="M138.424,101.974l0,7.697l-1.578,0l0,-7.697l-2.6,0l0,-1.318l6.796,0l0,1.318l-2.618,0Z" style="fill:#1a1619;fill-rule:nonzero;"/><path d="M146.554,101.87c-1.473,0 -2.774,1.126 -2.774,3.242c0,1.837 0.745,3.328 2.722,3.328c1.578,0 2.825,-1.075 2.825,-3.225c0,-2.184 -1.074,-3.345 -2.773,-3.345m-0.156,7.94c-2.93,0 -4.299,-1.89 -4.299,-4.56c0,-2.981 2.115,-4.732 4.577,-4.732c2.651,0 4.351,1.576 4.351,4.559c0,3.016 -2.081,4.733 -4.629,4.733" style="fill:#1a1619;fill-rule:nonzero;"/><path d="M157.46,109.81c-2.496,0 -3.796,-1.179 -3.796,-3.26l0,-5.894l1.577,0l0,5.617c0,1.543 0.85,2.236 2.341,2.236c1.7,0 2.324,-0.953 2.324,-2.391l0,-5.462l1.56,0l0,5.582c0,1.925 -1.162,3.572 -4.006,3.572" style="fill:#1a1619;fill-rule:nonzero;"/><path d="M167.481,101.817c-0.381,0 -0.641,0.018 -0.902,0.052l0,2.826c0.278,0.017 0.625,0.035 0.954,0.035c1.092,0 1.803,-0.607 1.803,-1.542c0,-0.919 -0.711,-1.371 -1.855,-1.371m2.063,7.854l-2.895,-3.866l-0.07,0l0,3.866l-1.576,0l0,-9.015c0.589,-0.035 1.611,-0.052 2.686,-0.052c2.098,0 3.311,0.832 3.311,2.427c0,1.526 -1.144,2.427 -2.703,2.583c0.225,0.243 0.484,0.589 0.779,0.954l2.445,3.103l-1.977,0Z" style="fill:#1a1619;fill-rule:nonzero;"/><path d="M179.965,109.671l-3.398,-5.288c-0.364,-0.554 -0.729,-1.213 -0.988,-1.768l-0.017,0c0.034,0.573 0.068,1.179 0.068,2.15l0,4.906l-1.525,0l0,-9.015l2.08,0l3.346,5.201c0.382,0.572 0.746,1.196 1.057,1.803l0.017,0c-0.051,-0.589 -0.069,-1.56 -0.069,-2.895l-0.017,-4.109l1.543,0l0,9.015l-2.097,0Z" style="fill:#1a1619;fill-rule:nonzero;"/><path d="M189.189,103.794c-0.191,-0.503 -0.364,-1.057 -0.503,-1.491l-0.017,0c-0.104,0.451 -0.277,0.971 -0.468,1.474l-1.109,2.843l3.189,0l-1.092,-2.826Zm2.202,5.877l-0.711,-1.89l-4.004,0l-0.711,1.89l-1.595,0l3.501,-9.015l1.804,0l3.467,9.015l-1.751,0Z" style="fill:#1a1619;fill-rule:nonzero;"/><path d="M204.636,109.671l-0.71,-5.01c-0.122,-0.954 -0.191,-1.665 -0.243,-2.168l-0.017,0c-0.105,0.468 -0.261,1.024 -0.468,1.613l-1.89,5.565l-1.682,0l-1.734,-5.184c-0.225,-0.641 -0.467,-1.404 -0.571,-1.976l-0.018,0c-0.034,0.693 -0.122,1.387 -0.225,2.219l-0.642,4.941l-1.577,0l1.37,-9.015l1.959,0l1.855,5.461c0.19,0.589 0.381,1.178 0.485,1.716l0.017,0c0.122,-0.624 0.26,-1.057 0.468,-1.664l1.907,-5.513l2.063,0l1.318,9.015l-1.665,0Z" style="fill:#1a1619;fill-rule:nonzero;"/><path d="M209.475,109.671l0,-9.015l5.097,0l0,1.231l-3.52,0l0,2.549l3.346,0l0,1.195l-3.346,0l0,2.774l3.52,0l0,1.266l-5.097,0Z" style="fill:#1a1619;fill-rule:nonzero;"/><path d="M223.553,109.671l-3.398,-5.288c-0.364,-0.554 -0.728,-1.213 -0.988,-1.768l-0.017,0c0.034,0.573 0.068,1.179 0.068,2.15l0,4.906l-1.524,0l0,-9.015l2.08,0l3.346,5.201c0.381,0.572 0.744,1.196 1.057,1.803l0.017,0c-0.052,-0.589 -0.069,-1.56 -0.069,-2.895l-0.018,-4.109l1.543,0l0,9.015l-2.097,0Z" style="fill:#1a1619;fill-rule:nonzero;"/><path d="M231.995,101.974l0,7.697l-1.578,0l0,-7.697l-2.601,0l0,-1.318l6.797,0l0,1.318l-2.618,0Z" style="fill:#1a1619;fill-rule:nonzero;"/><path d="M238.183,109.827c-0.66,0 -1.439,-0.104 -1.943,-0.225l0.07,-1.474c0.537,0.243 1.283,0.364 2.063,0.364c0.954,0 1.907,-0.399 1.907,-1.439c0,-1.785 -4.247,-0.918 -4.247,-3.814c0,-1.646 1.317,-2.721 3.606,-2.721c0.537,0 1.248,0.051 1.768,0.155l-0.069,1.371c-0.486,-0.157 -1.232,-0.262 -1.786,-0.262c-1.283,0 -1.855,0.503 -1.855,1.284c0,1.751 4.264,0.953 4.264,3.814c0,1.82 -1.611,2.947 -3.778,2.947" style="fill:#1a1619;fill-rule:nonzero;"/><path d="M7.919,91.878l0,-17.759l10.928,0l0,3.45l-6.523,0l0,3.551l6.216,0l0,3.347l-6.216,0l0,3.894l6.523,0l0,3.517l-10.928,0Z" style="fill:#1a1619;fill-rule:nonzero;"/><path d="M31.96,92.185c-5.397,0 -7.958,-2.527 -7.958,-6.557l0,-11.509l4.406,0l0,10.519c0,2.732 1.298,3.892 3.791,3.892c2.697,0 3.757,-1.501 3.757,-4.063l0,-10.348l4.336,0l0,10.895c0,3.961 -2.492,7.171 -8.332,7.171" style="fill:#1a1619;fill-rule:nonzero;"/><path d="M51.865,77.363c-0.478,0 -0.922,0.035 -1.332,0.069l0,4.541c0.444,0.069 0.991,0.069 1.469,0.069c1.707,0 2.8,-0.989 2.8,-2.458c0,-1.401 -1.127,-2.221 -2.937,-2.221m3.21,14.515l-4.371,-6.933l-0.171,0l0,6.933l-4.405,0l0,-17.759c1.435,-0.068 4.132,-0.102 6.386,-0.102c4.372,0 6.967,1.673 6.967,5.122c0,2.732 -1.742,4.44 -4.303,5.055c0.341,0.478 0.82,1.195 1.331,1.947l3.928,5.737l-5.362,0Z" style="fill:#1a1619;fill-rule:nonzero;"/><path d="M72.251,77.671c-2.39,0 -4.507,1.81 -4.507,5.259c0,3.108 1.4,5.362 4.405,5.362c2.493,0 4.645,-1.639 4.645,-5.26c0,-3.516 -1.845,-5.361 -4.543,-5.361m-0.341,14.514c-5.806,0 -8.879,-3.586 -8.879,-8.982c0,-5.805 4.508,-9.391 9.528,-9.391c5.054,0 8.947,2.869 8.947,8.981c0,5.84 -4.439,9.392 -9.596,9.392" style="fill:#1a1619;fill-rule:nonzero;"/><rect x="84.715" y="81.462" width="8.401" height="3.483" style="fill:#1a1619;fill-rule:nonzero;"/><path d="M100.662,92.253c-1.127,0 -2.492,-0.17 -3.483,-0.409l0.17,-3.894c1.025,0.41 2.357,0.649 3.757,0.649c1.469,0 2.698,-0.683 2.698,-2.015c0,-2.697 -7.138,-1.196 -7.138,-7.001c0,-3.483 2.63,-5.806 7.514,-5.806c0.956,0 2.253,0.138 3.244,0.274l-0.136,3.689c-0.956,-0.274 -2.254,-0.445 -3.279,-0.445c-1.878,0 -2.664,0.717 -2.664,1.811c0,2.526 7.275,1.468 7.275,6.932c0,3.722 -3.006,6.215 -7.958,6.215" style="fill:#1a1619;fill-rule:nonzero;"/><path d="M119.375,77.534c-0.512,0 -1.161,0 -1.571,0.035l0,5.293c0.342,0.068 0.956,0.102 1.366,0.102c1.912,0 3.176,-0.991 3.176,-2.766c0,-1.468 -0.99,-2.664 -2.971,-2.664m-0.103,8.913c-0.375,0 -1.092,-0.034 -1.468,-0.067l0,5.498l-4.406,0l0,-17.759c1.572,-0.068 4.099,-0.101 6.284,-0.101c4.679,0 7.343,2.15 7.343,5.941c0,3.996 -3.245,6.488 -7.753,6.488" style="fill:#1a1619;fill-rule:nonzero;"/><path d="M138.976,77.671c-2.391,0 -4.507,1.81 -4.507,5.259c0,3.108 1.399,5.362 4.404,5.362c2.493,0 4.645,-1.639 4.645,-5.26c0,-3.516 -1.844,-5.361 -4.542,-5.361m-0.341,14.514c-5.806,0 -8.88,-3.586 -8.88,-8.982c0,-5.805 4.508,-9.391 9.528,-9.391c5.055,0 8.949,2.869 8.949,8.981c0,5.84 -4.441,9.392 -9.597,9.392" style="fill:#1a1619;fill-rule:nonzero;"/><path d="M158.337,77.363c-0.478,0 -0.923,0.035 -1.331,0.069l0,4.541c0.443,0.069 0.99,0.069 1.467,0.069c1.708,0 2.802,-0.989 2.802,-2.458c0,-1.401 -1.127,-2.221 -2.938,-2.221m3.21,14.515l-4.372,-6.933l-0.169,0l0,6.933l-4.406,0l0,-17.759c1.434,-0.068 4.132,-0.102 6.386,-0.102c4.372,0 6.967,1.673 6.967,5.122c0,2.732 -1.741,4.44 -4.304,5.055c0.343,0.478 0.821,1.195 1.333,1.947l3.927,5.737l-5.362,0Z" style="fill:#1a1619;fill-rule:nonzero;"/><path d="M177.698,77.876l0,14.002l-4.406,0l0,-14.002l-4.644,0l0,-3.756l13.695,0l0,3.756l-4.645,0Z" style="fill:#1a1619;fill-rule:nonzero;"/><path d="M191.903,77.363c-0.478,0 -0.921,0.035 -1.331,0.069l0,4.541c0.443,0.069 0.99,0.069 1.468,0.069c1.708,0 2.8,-0.989 2.8,-2.458c0,-1.401 -1.126,-2.221 -2.937,-2.221m3.211,14.515l-4.371,-6.933l-0.171,0l0,6.933l-4.406,0l0,-17.759c1.435,-0.068 4.132,-0.102 6.386,-0.102c4.371,0 6.967,1.673 6.967,5.122c0,2.732 -1.741,4.44 -4.304,5.055c0.343,0.478 0.821,1.195 1.333,1.947l3.927,5.737l-5.361,0Z" style="fill:#1a1619;fill-rule:nonzero;"/><rect x="204.537" y="74.12" width="4.406" height="17.758" style="fill:#1a1619;fill-rule:nonzero;"/><path d="M226.15,91.878l-5.327,-8.675c-0.616,-0.99 -1.23,-2.253 -1.675,-3.244l-0.033,0c0.068,0.854 0.103,1.742 0.103,3.142l0,8.777l-4.235,0l0,-17.759l5.907,0l5.157,8.47c0.683,1.059 1.298,2.186 1.844,3.38l0.034,0c-0.068,-1.058 -0.102,-2.527 -0.102,-4.371l-0.033,-7.479l4.268,0l0,17.759l-5.908,0Z" style="fill:#1a1619;fill-rule:nonzero;"/><path d="M245.647,92.185c-5.26,0 -9.186,-2.971 -9.186,-8.845c0,-5.293 3.688,-9.528 9.971,-9.528c1.913,0 3.86,0.274 5.772,0.888l-0.819,3.791c-1.571,-0.649 -3.143,-0.991 -4.85,-0.991c-3.108,0 -5.396,1.981 -5.396,5.499c0,3.415 1.98,5.292 4.883,5.292c0.752,0 1.504,-0.101 2.118,-0.306l0,-5.567l4.406,0l0,8.469c-2.118,0.82 -4.371,1.298 -6.899,1.298" style="fill:#1a1619;fill-rule:nonzero;"/><path d="M261.901,72.847l-1.251,0l0,1.348l1.251,0c0.433,0 0.759,-0.205 0.759,-0.674c0,-0.445 -0.326,-0.674 -0.759,-0.674m0.567,2.045l0.973,1.912l-0.95,0l-0.926,-1.827l-0.915,0l0,1.827l-0.805,0l0,-4.74l2.08,0c0.843,0 1.552,0.446 1.552,1.433c0,0.746 -0.397,1.215 -1.009,1.395m-0.975,-4.018c-2.069,0 -3.645,1.576 -3.645,3.646c0,2.069 1.576,3.644 3.645,3.644c2.068,0 3.644,-1.575 3.644,-3.644c0,-2.07 -1.576,-3.646 -3.644,-3.646m0,7.988c-2.466,0 -4.343,-1.877 -4.343,-4.342c0,-2.467 1.877,-4.344 4.343,-4.344c2.466,0 4.342,1.877 4.342,4.344c0,2.465 -1.876,4.342 -4.342,4.342" style="fill:#1a1619;fill-rule:nonzero;"/><path d="M124.977,7.721c-12.102,2.708 -19.718,14.716 -17.012,26.818c2.709,12.103 14.715,19.721 26.82,17.012c12.103,-2.707 19.721,-14.715 17.011,-26.817c-2.34,-10.454 -11.613,-17.559 -21.896,-17.559c-1.624,0 -3.273,0.177 -4.923,0.546Z" style="fill:url(#_Radial2);fill-rule:nonzero;"/><path d="M131.904,14.822c0.566,0.175 0.591,-0.278 0.969,-0.381c-0.111,-0.009 -1.109,-0.374 -1.192,-0.404c-0.586,0.584 -0.361,0.607 0.223,0.785Zm0.969,-0.381c0.006,0.001 0.01,0 0.01,-0.003c-0.004,0.001 -0.007,0.002 -0.01,0.003Z" style="fill:url(#_Radial3);fill-rule:nonzero;"/><path d="M134.401,17.356c-0.002,-0.012 -0.002,-0.017 -0.002,-0.017c0,0 0,0.007 0.002,0.017Z" style="fill:url(#_Radial4);fill-rule:nonzero;"/><path d="M134.402,17.379c-0.001,-0.014 -0.001,-0.017 -0.001,-0.023c0,0.011 0.001,0.023 0.001,0.023Z" style="fill:url(#_Radial5);fill-rule:nonzero;"/><path d="M134.402,17.379c0.122,0.253 0.88,1.396 0.554,1.627c-0.186,0.132 -0.35,0.951 -0.219,1.143c0.174,0.249 1.026,-0.199 1.186,-0.307c0.239,-0.161 0.428,-0.43 0.308,-0.718c-0.089,-0.214 -0.354,-0.069 -0.435,-0.244c-0.162,-0.379 -0.237,-0.686 -0.294,-1.106c-0.023,-0.156 -0.588,-1.219 -0.605,-1.218c0,0 0,-0.001 0,-0.001c-0.023,0 -0.518,0.571 -0.495,0.824Z" style="fill:url(#_Radial6);fill-rule:nonzero;"/><path d="M133.408,18.761c-0.15,0.492 -0.025,0.637 0.439,0.71c0.214,0.035 0.963,-0.1 0.372,-0.292c0.003,-0.001 0.108,-0.185 0.211,-0.368c0.105,-0.184 0.208,-0.368 0.208,-0.368c-0.097,-0.202 -0.197,-0.402 -0.294,-0.604c-0.242,0.44 -0.752,0.322 -0.936,0.922Zm1.229,-0.318l-0.001,0l0.001,0Zm-0.011,0.007c-0.004,0.002 -0.008,0.005 -0.013,0.007c0.004,-0.002 0.008,-0.004 0.013,-0.007Z" style="fill:url(#_Radial7);fill-rule:nonzero;"/><path d="M111.242,22.384c-0.063,0.087 -0.075,0.125 -0.063,0.137c-0.185,0.503 0.691,0.819 0.648,1.294c-0.018,0.504 -0.609,0.823 -0.568,1.235c0.032,0.318 0.27,0.121 0.473,-0.077c0.131,-0.127 0.247,-0.255 0.286,-0.246c0.211,0.055 0.418,0.92 0.732,0.307c0.09,-0.179 0.148,-1.184 0.008,-1.305c-0.307,-0.263 -0.364,-0.812 -0.055,-1.076c0.397,-0.34 -0.263,-0.391 -0.471,0.102c-0.271,-0.013 -0.439,-0.389 -0.835,-0.389c-0.048,0 -0.099,0.006 -0.155,0.018Z" style="fill:url(#_Radial8);fill-rule:nonzero;"/><path d="M112.249,25.477c-0.656,0.433 0.341,0.346 0.463,0.739c0.185,0.599 0.157,0.58 0.816,0.557c0,-0.83 -0.274,-1.324 -0.969,-1.324c-0.095,0 -0.199,0.009 -0.31,0.028Z" style="fill:url(#_Radial9);fill-rule:nonzero;"/><path d="M113.846,26.781c-0.447,0.823 0.077,0.548 0.24,0.273c0.082,-0.138 0.074,-0.275 -0.193,-0.275c-0.015,0 -0.031,0 -0.047,0.002Z" style="fill:url(#_Radial10);fill-rule:nonzero;"/><path d="M140.59,24.874c-0.001,-0.004 -0.014,-0.004 -0.057,0.005c-0.409,0.41 0.571,0.764 0.709,0.637c0.477,-0.438 -0.18,-0.646 -0.56,-0.646c-0.034,0 -0.064,0.001 -0.092,0.004Z" style="fill:url(#_Radial11);fill-rule:nonzero;"/><path d="M149.065,39.875c-0.419,0.394 -0.624,0.839 -0.959,1.3c-0.368,0.504 -0.773,0.981 -1.126,1.496c-0.208,0.304 -0.25,0.624 -0.494,0.932c-0.18,0.226 -0.618,0.612 -0.577,0.935c0.04,0.322 0.367,0.366 0.609,0.164c0.145,-0.122 0.168,-0.337 0.29,-0.477c0.104,-0.121 0.286,-0.195 0.405,-0.311c0.395,-0.382 0.704,-0.843 1.021,-1.287c0.461,-0.646 0.82,-1.358 1.225,-2.039c0.136,-0.229 0.713,-0.996 0.224,-1.102c-0.018,-0.004 -0.036,-0.006 -0.054,-0.006c-0.217,0 -0.431,0.27 -0.564,0.395Z" style="fill:url(#_Radial12);fill-rule:nonzero;"/><path d="M130.784,7.203c-0.068,-0.004 -0.129,-0.008 -0.18,-0.011c0.058,0.004 0.119,0.008 0.18,0.011Zm0.05,0.003c-0.017,-0.002 -0.033,-0.002 -0.05,-0.003c0.016,0.001 0.033,0.001 0.05,0.003Z" style="fill:url(#_Radial13);fill-rule:nonzero;"/><path d="M130.604,7.192c-0.043,-0.002 -0.082,-0.004 -0.117,-0.006c0.032,0.002 0.074,0.004 0.117,0.006Z" style="fill:url(#_Radial14);fill-rule:nonzero;"/><path d="M131.075,7.22c-0.012,-0.001 -0.024,-0.001 -0.036,-0.002c0.012,0.001 0.025,0.001 0.036,0.002Zm0.148,0.008c0,0 -0.061,-0.004 -0.148,-0.008c0.047,0.002 0.092,0.005 0.148,0.008Z" style="fill:url(#_Radial15);fill-rule:nonzero;"/><path d="M115.673,12.285c-1.939,1.594 -3.606,3.516 -4.913,5.658c-0.154,0.252 -0.508,0.612 -0.42,0.937c0.085,0.309 -0.004,0.85 -0.11,1.164c-0.15,0.425 -0.594,0.653 -0.64,1.11c0.015,0.696 0.061,1.39 -0.03,2.08c0,0.529 -0.114,0.974 -0.001,1.501c0.15,0.702 0.049,0.86 -0.157,1.522c-0.213,0.684 0.12,1.029 0.183,1.668c-0.003,0.215 0.098,0.333 0.3,0.35c0.309,0.046 0.232,0.584 0.212,0.797c-0.032,0.338 0.133,1.084 -0.087,1.362c-0.338,0.407 -0.821,0.523 -0.888,1.119c-0.128,1.119 -0.024,2.22 0.181,3.324c0.229,1.233 0.544,2.181 1.212,3.225c0.543,1.016 0.605,2.011 1.054,3.017c0.294,0.566 0.457,1.121 0.697,1.701c0.154,0.309 0.066,0.592 0.188,0.894c0.844,1.042 1.813,1.935 2.758,2.872c0.185,-0.038 0.137,-0.354 0.191,-0.461c0.034,-0.078 0.123,-0.012 0.228,0.055c0.122,0.077 0.266,0.155 0.37,0.003c0.274,-0.406 0.762,-0.262 0.984,-0.585c0.133,-0.207 0.383,-0.053 0.345,-0.392c-0.036,-0.303 0.069,-0.811 0.506,-0.718c0.28,0.06 0.243,-0.088 0.468,-0.125c0.345,0.051 0.419,0.463 0.864,0.219c0.487,-0.271 0.703,-1.037 0.907,-1.514c0.146,-0.34 0.201,-0.582 0.167,-0.943c-0.02,-0.207 0.42,-0.456 0.548,-0.585c0.623,-0.616 1.12,-0.64 0.854,-1.627c-0.176,-0.645 -0.873,-0.867 -1.311,-1.318c-0.519,-0.43 -1.074,-0.871 -1.63,-1.25c-0.744,-0.506 -1.57,-0.557 -2.047,-1.401c-0.179,-0.317 -0.157,-0.68 -0.326,-0.987c-0.184,-0.337 -0.524,-0.561 -0.714,-0.906c-0.26,-0.474 -0.385,-0.272 -0.792,-0.517c-0.359,-0.218 -0.29,-0.669 -0.432,-1.007c-0.103,-0.24 -0.324,-0.407 -0.393,-0.663c-0.093,-0.343 0.111,-0.516 -0.178,-0.804c-0.289,-0.277 -0.019,-0.736 -0.328,-1.006c-0.178,-0.162 -0.51,-0.022 -0.739,-0.201c-0.612,-0.483 0.038,-0.611 -0.192,-1.072c-0.058,-0.117 -0.187,-0.075 -0.319,-0.033c-0.147,0.047 -0.297,0.094 -0.349,-0.084c-0.056,-0.185 0.077,-0.404 -0.028,-0.571c-0.209,0.046 -0.937,0.013 -1.022,0.17c-0.247,0.46 -0.418,-0.138 -0.607,-0.331c-0.288,-0.307 -0.703,-0.265 -0.665,-0.828c0.036,-0.528 0.398,-0.895 0.515,-1.374c0.168,-0.473 0.249,-0.889 0.125,-1.383c-0.171,-0.686 0.305,-1.031 0.524,-1.625c0.139,-0.379 0.374,-0.603 0.167,-1.015c-0.294,-0.583 -0.461,0.362 -0.73,0.371c-0.416,-0.004 0.502,-2.326 0.58,-2.458c0.224,-0.371 0.599,-0.905 0.978,-1.117c0.615,-0.347 0.37,0.403 0.538,0.705c0,0 0.476,-0.298 0.485,0.234c0.006,0.342 0.387,0.28 0.239,0.565c-0.248,0.487 -0.221,1.185 -0.52,1.599c-0.212,0.297 0.059,0.474 0.185,0.068c0.257,-0.825 0.823,-1.686 1.571,-2.177c0.43,-0.269 1.612,-0.013 1.251,-0.948c0.046,-0.008 0.331,-0.231 0.251,-0.161c0.167,-0.147 0.207,-0.097 0.258,-0.046c0.036,0.035 0.076,0.069 0.166,0.037c0.191,-0.043 0.253,-0.319 0.45,-0.376c0.258,-0.077 0.734,-0.069 1.004,-0.036c0.453,0.055 0.364,-0.212 0.612,-0.438c0.132,-0.122 0.534,-0.212 0.704,-0.258c0.207,-0.058 0.46,-0.07 0.536,0.19c0.115,0.387 -0.259,0.283 -0.503,0.369c0.035,0.164 1.17,0.185 1.342,0.16c0.586,-0.089 -0.337,-0.461 -0.314,-0.561c0.142,-0.557 0.093,-0.702 0.673,-0.759c0.518,-0.051 -0.324,-0.566 -0.46,-0.618c-0.06,-0.291 0.572,-0.242 0.698,-0.227c0.432,0.059 0.298,0.406 0.52,0.467c0.509,0.14 2.113,-0.121 0.819,0.672c-0.22,0.136 -0.801,0.275 -0.706,0.648c0.045,0.188 0.417,0.581 0.592,0.656c0.486,0.21 0.715,-0.105 0.829,-0.547c0.115,-0.439 -0.42,-0.298 -0.481,-0.537c0.664,-0.22 1.168,-0.993 0.981,-1.689c-0.136,-0.503 -0.481,-1.033 0.062,-1.403c0.165,-0.111 0.86,-0.509 0.728,-0.723c-0.765,0.171 -0.979,-0.033 -0.649,-0.798c0.054,-0.123 -0.39,-1.533 0.325,-0.981c0.417,0.323 0.039,1.537 1.027,1.053c0.615,-0.295 0.016,-0.933 0.662,-1.122c0.044,0.126 -0.144,0.447 -0.012,0.518c0.167,0.088 0.488,-0.047 0.625,-0.138c0.243,-0.161 -0.077,-0.286 -0.007,-0.495c0.043,-0.159 0.18,-0.14 0.329,-0.121c0.145,0.019 0.303,0.037 0.396,-0.112c0.332,-0.531 -0.232,-0.436 -0.315,-0.767c0.306,-0.158 0.509,-0.246 0.857,-0.33c0.297,-0.074 0.408,-0.418 0.621,-0.475c0.104,0.293 0.452,0.369 0.701,0.475c0.083,0.375 -0.05,0.369 0.472,0.249c0.093,0.375 -0.503,0.555 -0.628,0.782c-0.133,0.246 -0.123,0.572 -0.523,0.54c-0.225,-0.017 -0.278,0.133 -0.336,0.284c-0.056,0.146 -0.117,0.292 -0.34,0.284c-0.738,-0.025 -0.685,1.086 -0.873,1.633c-0.249,0.466 0.116,0.32 0.364,0.316c0.462,-0.006 -0.088,0.581 -0.124,0.66c-0.086,0.183 0.113,0.097 0.274,0.009c0.114,-0.063 0.208,-0.124 0.168,-0.09c0.259,-0.219 0.518,-0.455 0.808,-0.637c0.244,-0.152 0.377,-0.368 0.535,-0.597c0.272,-0.396 0.553,-0.067 0.88,-0.06c0.563,0 1.224,-0.247 1.733,-0.469c1.181,-0.286 0.139,-0.281 0.503,-0.612c0.252,-0.23 0.666,-0.381 0.824,-0.679c0.077,-0.311 0.474,-1.248 0.166,-1.402c-0.535,-0.265 -0.798,-0.657 -1.446,-0.674c-0.504,-0.012 -1.313,-0.174 -1.798,-0.04c-0.062,-0.239 0.975,-0.032 1.06,-0.305c0.038,-0.09 -0.78,-0.207 -0.87,-0.251c-0.519,-0.255 0.361,-0.481 0.532,-0.573c0.302,-0.161 0.075,-0.27 0.407,-0.461c0.306,-0.13 0.72,-0.359 0.634,-0.755c-0.426,-0.025 -0.852,-0.037 -1.278,-0.037c-5.163,0 -10.276,1.806 -14.272,5.094Z" style="fill:url(#_Radial16);fill-rule:nonzero;"/><path d="M130.487,7.186c-0.019,-0.001 -0.035,-0.002 -0.052,-0.004c0.017,0.002 0.031,0.003 0.052,0.004Z" style="fill:url(#_Radial17);fill-rule:nonzero;"/><path d="M131.039,7.218c-0.061,-0.004 -0.132,-0.008 -0.205,-0.012c0.061,0.003 0.131,0.008 0.205,0.012Z" style="fill:url(#_Radial18);fill-rule:nonzero;"/><path d="M130.435,7.182c-0.078,-0.004 -0.111,-0.006 -0.112,-0.006c-0.001,0 0.043,0.003 0.112,0.006Z" style="fill:url(#_Radial19);fill-rule:nonzero;"/><path d="M151.496,23.406c-0.002,-0.012 -0.003,-0.018 -0.003,-0.018c0,0 0,0.006 0.003,0.018Z" style="fill:url(#_Radial20);fill-rule:nonzero;"/><path d="M136.578,8.836c0.173,0.168 0.446,0.139 0.7,0.11c0.244,-0.028 0.472,-0.055 0.58,0.093c-0.001,0 -0.267,0.269 -0.317,0.296c-0.382,0.199 0.151,0.474 0.332,0.506c0.345,0.061 0.855,0.113 1.152,0.309c0.249,0.153 0.07,0.644 0.179,0.841c0.134,0.24 0.617,0.375 0.839,0.508c0.445,0.334 -0.03,0.052 0.116,0.411c0.108,0.261 0.572,0.375 0.332,0.647c-0.136,0.113 -0.217,0.258 -0.237,0.435c-0.039,0.01 -0.083,-0.007 -0.125,-0.024c-0.072,-0.028 -0.141,-0.056 -0.188,0.036c-0.082,0.016 0.527,0.221 0.564,0.229c0.185,0.805 -1.775,-0.302 -1.999,-0.34c-0.577,-0.107 -0.592,-0.007 -1.122,0.159c-0.622,0.199 -0.34,0.804 -0.305,1.278c0.024,0.351 -0.045,0.773 -0.302,1.044c-0.446,0.462 -0.35,0.624 -0.181,1.239c0.375,1.364 0.5,0.054 1.106,-0.228c0,0.727 1.326,1.135 0.396,1.592c-0.11,-0.219 -0.08,-0.654 -0.361,-0.737c-0.74,-0.209 0.063,0.861 -0.061,1.104c-0.151,0.293 -0.85,0.201 -0.716,0.616c0.137,0.405 -0.554,0.809 -0.941,1.05c-0.587,0.364 -0.381,0.614 -1.105,0.536c-0.468,-0.052 0.414,1.019 0.597,1.122c0.502,0.266 0.431,-0.013 0.4,0.69c-0.021,0.689 -0.833,0.381 -1.265,0.245c-0.945,-0.3 -0.565,0.439 -0.871,0.931c-0.241,0.406 -0.363,1.623 0.174,1.799c0.197,0.065 0.386,-0.005 0.588,-0.074c0.191,-0.065 0.394,-0.13 0.631,-0.086c0.343,0.067 0.715,0.19 1.028,-0.057c0.68,-0.533 0.178,-1.254 0.759,-1.85c0.34,-0.349 0.21,-0.691 0.895,-0.58c0.567,0.092 0.857,0.456 1.097,-0.239c0.075,0.168 1.928,1.411 1.952,1.445c0.202,0.315 0.257,0.717 0.486,1.014c0.163,0.211 0.247,-0.067 0.284,-0.346c0.027,-0.21 0.027,-0.42 0.017,-0.42c0.052,-0.003 0.106,0.002 0.153,0.006c0.155,0.016 0.234,0.03 -0.084,-0.235c-0.336,-0.278 -0.249,-0.244 -0.731,-0.51c-0.538,-0.296 -1.293,-0.705 -1.086,-1.361c0.01,-0.028 1.484,0.905 1.61,0.932c0.069,0.055 0.577,0.966 0.635,0.938c-0.012,0.124 -0.021,0.251 -0.033,0.376c0.217,0.33 0.512,0.597 0.678,0.954c0.194,0.417 0.399,0.316 0.736,0.07c0.435,-0.316 0.169,-0.423 -0.073,-0.76c-0.124,-0.177 -0.607,-0.934 -0.505,-1.136c0.039,-0.078 0.872,-0.464 0.979,-0.508c0,0.216 -0.4,0.393 -0.349,0.592c0.129,0.512 0.444,0.905 0.552,1.458c0.045,0.153 0.615,1.12 0.725,0.497c0.039,-0.235 -0.234,-0.415 -0.152,-0.619c0.069,-0.198 0.311,-0.181 0.384,-0.449c0.116,-0.023 0.213,0.076 0.325,0.174c0.139,0.122 0.301,0.245 0.551,0.131c0.316,-0.145 0.338,-0.183 0.411,0.246c0.049,0.289 0.148,1.466 -0.015,1.68c-0.346,0.468 -1.803,0.848 -2.278,0.54c-0.65,-0.417 -1.612,-0.104 -1.302,0.872c-0.381,0.081 -0.848,0.017 -1.1,-0.299c-0.337,-0.418 -1.086,-0.053 -1.327,-0.507c-0.282,-0.514 0.253,-1.261 -0.384,-1.586c-0.554,-0.276 -1.409,0.088 -2,0.145c-0.902,0.089 -1.652,0.758 -2.547,0.758c-0.303,-0.016 -0.52,-0.392 -0.92,-0.201c-0.459,0.211 -0.993,0.964 -1.386,1.321c-0.197,0.184 -0.382,0.593 -0.342,0.866c0.023,0.11 0.237,0.366 0.151,0.481c-0.102,0.122 -0.523,0.139 -0.676,0.247c-0.259,0.188 -0.484,0.426 -0.719,0.642c-0.496,0.391 -0.582,0.877 -1.011,1.311c-0.491,0.498 -0.61,0.877 -0.773,1.568c-0.169,0.713 0.248,1.406 0.003,2.136c-0.178,0.563 -0.359,0.961 0.21,1.346c0.551,0.376 0.513,0.62 0.475,1.203c-0.044,0.666 0.962,1.045 1.383,1.433c0.457,0.421 0.991,0.366 1.551,0.31c0.466,-0.046 0.952,-0.092 1.425,0.137c0.304,0.147 1.1,-0.279 1.416,-0.397c0.352,-0.079 0.705,-0.156 1.05,-0.253c0.291,-0.035 0.379,0.428 0.539,0.578c0.232,0.227 0.511,0.222 0.566,0.601c0.041,0.295 -0.041,0.613 0.108,0.891c0.23,0.458 0.774,0.345 0.941,0.92c0.215,0.693 0.089,1.351 -0.176,2.009c-0.277,0.613 -0.736,0.894 -0.636,1.583c0.066,0.469 0.371,0.861 0.161,1.33c-0.356,0.791 -0.402,1.003 -0.306,1.874c0.107,1.164 1.672,0.085 2.274,-0.257c1.366,-0.776 2.305,-1.718 3.441,-2.79c0.493,-0.38 0.598,-0.899 1.047,-1.285c0.494,-0.421 1.289,-0.905 1.591,-1.499c0.207,-0.397 0.38,-0.871 0.516,-1.3c0.12,-0.373 0.03,-0.818 0.213,-1.16c0.36,-0.671 0.57,-1.415 0.846,-2.129c0.368,-0.654 1.021,-1.144 1.446,-1.779c0.474,-0.711 0.524,-1.52 0.649,-2.331c0.045,-0.296 0.341,-1.263 0.113,-1.507c-0.12,-0.138 -0.348,0.219 -0.562,0.575c-0.193,0.32 -0.375,0.641 -0.462,0.603c-0.619,-0.256 -0.59,-1.607 -1.191,-1.968c-0.341,-0.209 -0.359,-0.001 -0.47,-0.502c-0.121,-0.537 -0.196,-1.097 -0.382,-1.617c-0.06,-0.168 -1.036,-1.296 -0.894,-1.375c0.449,-0.255 0.854,0.808 1.003,1.015c0.141,0.197 0.42,0.093 0.467,0.294c0.074,0.335 0.143,0.811 0.408,1.066c0.569,0.482 0.626,1.208 0.819,1.9c0.336,0.692 0.298,0.387 0.704,-0.205c0.44,-0.64 0.525,-1.538 0.805,-2.239c0.269,-0.442 0.303,-0.765 0.362,-1.284c0.037,-0.362 -0.119,-0.83 0.03,-1.163c0.228,-0.513 -0.185,-1.258 -0.7,-1.346c0.06,0.182 -0.109,0.963 -0.146,1.198c-0.401,0.089 -0.423,-0.585 -0.512,-0.787c-0.19,-0.395 -0.745,-0.604 -0.556,-1.244c0.282,0 0.408,0.914 0.886,0.63c0.187,-0.114 0.186,-0.396 0.448,-0.39c0.408,0.009 0.479,-0.255 0.606,-0.577c0.178,-0.039 0.322,0.606 0.444,1.253c0.122,0.643 0.222,1.286 0.312,1.251c0.389,-0.185 -0.161,-2.347 -0.257,-2.801c-1.782,-7.978 -7.95,-14.478 -15.815,-16.699c0.116,0.295 0.368,0.584 0.602,0.81Zm2.433,7.291c-0.438,-0.336 -0.631,-1.362 -0.418,-1.857c0.059,0.01 0.076,0.03 0.074,0.05c0.273,0.228 0.623,1.354 0.818,1.614c0.268,0.362 0.855,0.601 1.027,1.007c-0.019,-0.001 -0.024,0.007 -0.012,0.023c-0.115,0.027 -0.229,0.02 -0.328,0.013c-0.246,-0.018 -0.408,-0.036 -0.312,0.467c0.055,0.395 -0.09,0.494 -0.474,0.522c-0.147,0.011 -0.896,0.318 -0.816,-0.141c0.045,-0.355 0.506,-0.152 0.668,-0.143c-0.125,-0.574 0.31,-1.14 -0.227,-1.555Zm9.096,6.276c-0.304,-0.309 -0.271,-0.71 -0.541,-1.053c-0.366,-0.464 -1.538,-1.793 -1.115,-2.488c0.005,-0.014 0.014,-0.032 0.032,-0.056c0.06,0.013 0.076,0.032 0.072,0.049c0.141,0.143 0.325,0.561 0.35,0.688c0.066,0.384 0.049,0.513 0.424,0.89c0.581,0.597 0.969,1.053 1.389,1.756c0.152,0.253 -0.002,0.354 -0.201,0.354c-0.146,0 -0.316,-0.054 -0.41,-0.14Zm-4.505,-0.781c0.058,-0.164 0.173,-1.051 0.141,-1.214c0.219,0.057 0.233,0.355 0.45,0.397c0.154,0.027 0.35,-0.073 0.503,-0.094c0.43,-0.116 1.055,0.306 1.305,0.683c0.409,0.609 -0.373,0.491 -0.731,0.552c-0.3,0.051 -0.598,0.153 -0.837,0.349c-0.121,0.098 -0.314,0.48 -0.433,0.504c-0.062,-0.367 -0.546,-0.755 -0.398,-1.177Z" style="fill:url(#_Radial21);fill-rule:nonzero;"/><path d="M151.577,23.768c-0.038,-0.172 -0.069,-0.311 -0.081,-0.362c0.009,0.038 0.034,0.152 0.081,0.362Z" style="fill:url(#_Radial22);fill-rule:nonzero;"/><path d="M151.764,24.603c-0.008,-0.032 -0.016,-0.069 -0.025,-0.11c0.008,0.038 0.016,0.074 0.025,0.11Zm0.027,0.122c-0.01,-0.045 -0.019,-0.084 -0.027,-0.122c0.016,0.075 0.027,0.122 0.027,0.122Z" style="fill:url(#_Radial23);fill-rule:nonzero;"/><path d="M151.739,24.493c-0.071,-0.316 -0.124,-0.555 -0.162,-0.725c0.052,0.236 0.117,0.525 0.162,0.725Z" style="fill:url(#_Radial24);fill-rule:nonzero;"/><path d="M143.33,25.666c-0.056,0.099 0.266,0.378 0.266,0.378c0.237,0.043 0.503,-0.223 0.307,-0.321c-0.124,-0.062 -0.299,-0.107 -0.424,-0.107c-0.072,0 -0.129,0.015 -0.149,0.05Z" style="fill:url(#_Radial25);fill-rule:nonzero;"/><path d="M139.344,23.863c0,0.21 0.336,0.517 0.49,0.476c0.17,-0.047 0.043,-0.476 -0.098,-0.574c-0.06,-0.042 -0.141,-0.068 -0.214,-0.068c-0.096,0 -0.178,0.047 -0.178,0.166Z" style="fill:url(#_Radial26);fill-rule:nonzero;"/><path d="M139.023,23.178c-0.154,0.07 0.042,0.405 0.196,0.349c0.12,-0.043 -0.015,-0.358 -0.156,-0.358c-0.014,0 -0.027,0.003 -0.04,0.009Z" style="fill:url(#_Radial27);fill-rule:nonzero;"/><path d="M107.608,29.507c0,-12.243 9.959,-22.204 22.203,-22.204c12.242,0 22.203,9.961 22.203,22.204c0,12.243 -9.961,22.205 -22.203,22.205c-12.244,0 -22.203,-9.962 -22.203,-22.205m-1,0c0,12.794 10.409,23.204 23.203,23.204c12.793,0 23.205,-10.41 23.205,-23.204c0,-12.795 -10.412,-23.202 -23.205,-23.202c-12.794,0 -23.203,10.407 -23.203,23.202" style="fill:#1a1619;fill-rule:nonzero;"/><path d="M105.424,29.507c0,-13.446 10.939,-24.385 24.387,-24.385c13.445,0 24.386,10.939 24.386,24.385c0,13.446 -10.941,24.384 -24.386,24.384c-13.448,0 -24.387,-10.938 -24.387,-24.384m-1.849,0c0,14.468 11.769,26.237 26.236,26.237c14.468,0 26.237,-11.769 26.237,-26.237c0,-14.467 -11.769,-26.236 -26.237,-26.236c-14.467,0 -26.236,11.769 -26.236,26.236" style="fill:#1a1619;fill-rule:nonzero;"/><path d="M24.925,29.635l0.045,0c-0.021,0.002 -0.042,0.002 -0.063,0.003c22.43,0.936 45.643,1.557 69.433,1.84l0,-1.843l0,-1.841c-23.786,0.283 -46.993,0.904 -69.415,1.841" style="fill:#1a1619;fill-rule:nonzero;"/><path d="M233.85,29.635l0.046,0c-22.222,-0.937 -45.22,-1.558 -68.789,-1.841l-0.001,0l0,3.684c23.577,-0.283 46.58,-0.904 68.808,-1.84c-0.021,-0.001 -0.044,-0.001 -0.064,-0.003" style="fill:#1a1619;fill-rule:nonzero;"/></g></g></g><defs><radialGradient id="_Radial2" cx="0" cy="0" r="1" gradientUnits="userSpaceOnUse" gradientTransform="matrix(22.4617,0,0,22.4617,129.881,29.6365)"><stop offset="0%" style="stop-color:#61bae2;stop-opacity:1"/><stop offset="100%" style="stop-color:#0090ca;stop-opacity:1"/></radialGradient><radialGradient id="_Radial3" cx="0" cy="0" r="1" gradientUnits="userSpaceOnUse" gradientTransform="matrix(0.61922,0,0,0.61922,132.11,14.4495)"><stop offset="0%" style="stop-color:#e64525;stop-opacity:1"/><stop offset="100%" style="stop-color:#e52525;stop-opacity:1"/></radialGradient><radialGradient id="_Radial4" cx="0" cy="0" r="1" gradientUnits="userSpaceOnUse" gradientTransform="matrix(0.00571311,0,0,0.00571311,134.4,17.347)"><stop offset="0%" style="stop-color:#e64525;stop-opacity:1"/><stop offset="100%" style="stop-color:#e52525;stop-opacity:1"/></radialGradient><radialGradient id="_Radial5" cx="0" cy="0" r="1" gradientUnits="userSpaceOnUse" gradientTransform="matrix(0.0085077,0,0,0.0085077,134.402,17.3671)"><stop offset="0%" style="stop-color:#e64525;stop-opacity:1"/><stop offset="100%" style="stop-color:#e52525;stop-opacity:1"/></radialGradient><radialGradient id="_Radial6" cx="0" cy="0" r="1" gradientUnits="userSpaceOnUse" gradientTransform="matrix(1.45478,0,0,1.45478,135.335,18.3894)"><stop offset="0%" style="stop-color:#e64525;stop-opacity:1"/><stop offset="100%" style="stop-color:#e52525;stop-opacity:1"/></radialGradient><radialGradient id="_Radial7" cx="0" cy="0" r="1" gradientUnits="userSpaceOnUse" gradientTransform="matrix(0.737105,0,0,0.737105,133.993,18.6577)"><stop offset="0%" style="stop-color:#e64525;stop-opacity:1"/><stop offset="100%" style="stop-color:#e52525;stop-opacity:1"/></radialGradient><radialGradient id="_Radial8" cx="0" cy="0" r="1" gradientUnits="userSpaceOnUse" gradientTransform="matrix(1.18243,0,0,1.18243,111.998,23.8095)"><stop offset="0%" style="stop-color:#e64525;stop-opacity:1"/><stop offset="100%" style="stop-color:#e52525;stop-opacity:1"/></radialGradient><radialGradient id="_Radial9" cx="0" cy="0" r="1" gradientUnits="userSpaceOnUse" gradientTransform="matrix(0.709329,0,0,0.709329,112.778,26.1149)"><stop offset="0%" style="stop-color:#e64525;stop-opacity:1"/><stop offset="100%" style="stop-color:#e52525;stop-opacity:1"/></radialGradient><radialGradient id="_Radial10" cx="0" cy="0" r="1" gradientUnits="userSpaceOnUse" gradientTransform="matrix(0.253862,0,0,0.253862,113.901,27.0537)"><stop offset="0%" style="stop-color:#e64525;stop-opacity:1"/><stop offset="100%" style="stop-color:#e52525;stop-opacity:1"/></radialGradient><radialGradient id="_Radial11" cx="0" cy="0" r="1" gradientUnits="userSpaceOnUse" gradientTransform="matrix(0.418807,0,0,0.418807,140.921,25.2058)"><stop offset="0%" style="stop-color:#e64525;stop-opacity:1"/><stop offset="100%" style="stop-color:#e52525;stop-opacity:1"/></radialGradient><radialGradient id="_Radial12" cx="0" cy="0" r="1" gradientUnits="userSpaceOnUse" gradientTransform="matrix(2.35365,0,0,2.35365,147.891,42.1523)"><stop offset="0%" style="stop-color:#e64525;stop-opacity:1"/><stop offset="100%" style="stop-color:#e52525;stop-opacity:1"/></radialGradient><radialGradient id="_Radial13" cx="0" cy="0" r="1" gradientUnits="userSpaceOnUse" gradientTransform="matrix(0.0817106,0,0,0.0817106,130.719,7.19913)"><stop offset="0%" style="stop-color:#e64525;stop-opacity:1"/><stop offset="100%" style="stop-color:#e52525;stop-opacity:1"/></radialGradient><radialGradient id="_Radial14" cx="0" cy="0" r="1" gradientUnits="userSpaceOnUse" gradientTransform="matrix(0.0415659,0,0,0.0415659,130.545,7.18906)"><stop offset="0%" style="stop-color:#e64525;stop-opacity:1"/><stop offset="100%" style="stop-color:#e52525;stop-opacity:1"/></radialGradient><radialGradient id="_Radial15" cx="0" cy="0" r="1" gradientUnits="userSpaceOnUse" gradientTransform="matrix(0.0649468,0,0,0.0649468,131.131,7.22292)"><stop offset="0%" style="stop-color:#e64525;stop-opacity:1"/><stop offset="100%" style="stop-color:#e52525;stop-opacity:1"/></radialGradient><radialGradient id="_Radial16" cx="0" cy="0" r="1" gradientUnits="userSpaceOnUse" gradientTransform="matrix(16.2642,0,0,16.2642,120.942,26.8886)"><stop offset="0%" style="stop-color:#e64525;stop-opacity:1"/><stop offset="100%" style="stop-color:#e52525;stop-opacity:1"/></radialGradient><radialGradient id="_Radial17" cx="0" cy="0" r="1" gradientUnits="userSpaceOnUse" gradientTransform="matrix(0.0179681,0,0,0.0179681,130.461,7.18421)"><stop offset="0%" style="stop-color:#e64525;stop-opacity:1"/><stop offset="100%" style="stop-color:#e52525;stop-opacity:1"/></radialGradient><radialGradient id="_Radial18" cx="0" cy="0" r="1" gradientUnits="userSpaceOnUse" gradientTransform="matrix(0.0725843,0,0,0.0725843,130.937,7.21183)"><stop offset="0%" style="stop-color:#e64525;stop-opacity:1"/><stop offset="100%" style="stop-color:#e52525;stop-opacity:1"/></radialGradient><radialGradient id="_Radial19" cx="0" cy="0" r="1" gradientUnits="userSpaceOnUse" gradientTransform="matrix(0.0399369,0,0,0.0399369,130.379,7.17943)"><stop offset="0%" style="stop-color:#e64525;stop-opacity:1"/><stop offset="100%" style="stop-color:#e52525;stop-opacity:1"/></radialGradient><radialGradient id="_Radial20" cx="0" cy="0" r="1" gradientUnits="userSpaceOnUse" gradientTransform="matrix(0.00645042,0,0,0.00645042,151.494,23.397)"><stop offset="0%" style="stop-color:#e64525;stop-opacity:1"/><stop offset="100%" style="stop-color:#e52525;stop-opacity:1"/></radialGradient><radialGradient id="_Radial21" cx="0" cy="0" r="1" gradientUnits="userSpaceOnUse" gradientTransform="matrix(16.5402,0,0,16.5402,140.898,28.514)"><stop offset="0%" style="stop-color:#e64525;stop-opacity:1"/><stop offset="100%" style="stop-color:#e52525;stop-opacity:1"/></radialGradient><radialGradient id="_Radial22" cx="0" cy="0" r="1" gradientUnits="userSpaceOnUse" gradientTransform="matrix(0.131387,0,0,0.131387,151.537,23.5873)"><stop offset="0%" style="stop-color:#e64525;stop-opacity:1"/><stop offset="100%" style="stop-color:#e52525;stop-opacity:1"/></radialGradient><radialGradient id="_Radial23" cx="0" cy="0" r="1" gradientUnits="userSpaceOnUse" gradientTransform="matrix(0.0842151,0,0,0.0842151,151.765,24.6091)"><stop offset="0%" style="stop-color:#e64525;stop-opacity:1"/><stop offset="100%" style="stop-color:#e52525;stop-opacity:1"/></radialGradient><radialGradient id="_Radial24" cx="0" cy="0" r="1" gradientUnits="userSpaceOnUse" gradientTransform="matrix(0.262337,0,0,0.262337,151.658,24.1307)"><stop offset="0%" style="stop-color:#e64525;stop-opacity:1"/><stop offset="100%" style="stop-color:#e52525;stop-opacity:1"/></radialGradient><radialGradient id="_Radial25" cx="0" cy="0" r="1" gradientUnits="userSpaceOnUse" gradientTransform="matrix(0.275561,0,0,0.275561,143.647,25.8324)"><stop offset="0%" style="stop-color:#e64525;stop-opacity:1"/><stop offset="100%" style="stop-color:#e52525;stop-opacity:1"/></radialGradient><radialGradient id="_Radial26" cx="0" cy="0" r="1" gradientUnits="userSpaceOnUse" gradientTransform="matrix(0.304899,0,0,0.304899,139.63,24.0195)"><stop offset="0%" style="stop-color:#e64525;stop-opacity:1"/><stop offset="100%" style="stop-color:#e52525;stop-opacity:1"/></radialGradient><radialGradient id="_Radial27" cx="0" cy="0" r="1" gradientUnits="userSpaceOnUse" gradientTransform="matrix(0.166551,0,0,0.166551,139.116,23.3514)"><stop offset="0%" style="stop-color:#e64525;stop-opacity:1"/><stop offset="100%" style="stop-color:#e52525;stop-opacity:1"/></radialGradient></defs></svg>