<?xml version="1.0" encoding="utf-8"?>
<!-- Generator: Adobe Illustrator 22.1.0, SVG Export Plug-In . SVG Version: 6.00 Build 0)  -->
<svg version="1.1" id="Layer_1" xmlns="http://www.w3.org/2000/svg" xmlns:xlink="http://www.w3.org/1999/xlink" x="0px" y="0px"
	 viewBox="0 0 200 200" style="enable-background:new 0 0 200 200;" xml:space="preserve">
<style type="text/css">
	.st0{fill:none;}
	.st1{background-color: blue;}
</style>
<rect class="st0" width="200" height="200"/>
<path class="st1" d="M147.1,65.9c0,1.6-1.3,2.9-2.9,2.9H55.8c-1.6,0-2.9-1.3-2.9-2.9c0-1.6,1.3-2.9,2.9-2.9h88.4
	C145.8,63,147.1,64.3,147.1,65.9z M144.2,87.6H55.8c-1.6,0-2.9,1.3-2.9,2.9s1.3,2.9,2.9,2.9h88.4c1.6,0,2.9-1.3,2.9-2.9
	C147.1,88.9,145.8,87.6,144.2,87.6z M118.2,112.2H55.8c-1.6,0-2.9,1.3-2.9,2.9s1.3,2.9,2.9,2.9h62.4c1.6,0,2.9-1.3,2.9-2.9
	C121.1,113.5,119.8,112.2,118.2,112.2z M190,92.6c0,42.1-40.4,76.4-90,76.4c-7.1,0-14.4-0.8-21.7-2.3l-50.7,16.9
	c-0.6,0.2-1.2,0.3-1.8,0.3c-1.6,0-3.1-0.6-4.2-1.8c-1.5-1.6-2-4-1.1-6.1l13-31.8C18.3,130,10,111.8,10,92.6
	c0-42.1,40.4-76.4,90-76.4S190,50.5,190,92.6z M178.5,92.6c0-35.7-35.2-64.8-78.5-64.8S21.5,56.8,21.5,92.6c0,17.1,8,33.3,22.6,45.5
	c1.9,1.6,2.6,4.3,1.6,6.6L36,168.6l40.2-13.4c1-0.3,2.1-0.4,3.1-0.1c7,1.6,13.9,2.4,20.7,2.4C143.3,157.4,178.5,128.3,178.5,92.6z"
	/>
</svg>
