<?xml version="1.0" encoding="UTF-8"?>
<svg width="96px" height="31px" viewBox="0 0 96 31" version="1.1" xmlns="http://www.w3.org/2000/svg" xmlns:xlink="http://www.w3.org/1999/xlink">
    <!-- Generator: Sketch 52.3 (67297) - http://www.bohemiancoding.com/sketch -->
    <title>TMP logo@1x</title>
    <desc>Created with Sketch.</desc>
    <g id="TMP-logo" stroke="none" stroke-width="1" fill="none" fill-rule="evenodd">
        <g fill="#2096F3" fill-rule="nonzero" id="TMP">
            <path d="M24.288,7.624 L17.04,7.624 L17.04,31 L7.92,31 L7.92,7.624 L0.672,7.624 L0.672,0.28 L24.288,0.28 L24.288,7.624 Z M65.136,31 L55.968,31 L55.968,12.28 L50.688,31 L42.24,31 L36.96,12.232 L36.96,31 L27.792,31 L27.792,0.28 L40.848,0.28 L46.464,20.968 L52.08,0.28 L65.136,0.28 L65.136,31 Z M95.856,11.272 C95.856,15.928 95.184,22.12 82.848,22.12 L80.016,22.12 L80.016,31 L70.8,31 L70.8,0.28 L82.464,0.28 C94.848,0.28 95.856,6.568 95.856,11.272 Z M86.544,11.272 C86.544,9.304 85.728,7.624 82.704,7.624 L80.016,7.624 L80.016,14.968 L82.704,14.968 C85.776,14.968 86.544,13.192 86.544,11.272 Z"></path>
        </g>
    </g>
</svg>