<svg xmlns="http://www.w3.org/2000/svg" xmlns:xlink="http://www.w3.org/1999/xlink" width="98" height="41" viewBox="0 0 98 41">
  <defs>
    <rect id="logo-footer-a" width="103.906" height="42.928"/>
    <radialGradient id="logo-footer-c" cx="0%" cy="0%" r="2.226%" fx="0%" fy="0%" gradientTransform="scale(.99997 1)">
      <stop offset="0%" stop-color="#61BAE2"/>
      <stop offset="100%" stop-color="#0090CA"/>
    </radialGradient>
    <radialGradient id="logo-footer-d" cx="50.017%" cy="50.05%" r="53.565%" fx="50.017%" fy="50.05%" gradientTransform="matrix(1 0 0 .71822 0 .141)">
      <stop offset="0%" stop-color="#E64525"/>
      <stop offset="100%" stop-color="#E52525"/>
    </radialGradient>
    <radialGradient id="logo-footer-e" cx="50.022%" cy="50.054%" r="59.218%" fx="50.022%" fy="50.054%" gradientTransform="matrix(1 0 0 .9127 0 .044)">
      <stop offset="0%" stop-color="#E64525"/>
      <stop offset="100%" stop-color="#E52525"/>
    </radialGradient>
    <radialGradient id="logo-footer-f" cx="50.016%" cy="49.975%" r="75.049%" fx="50.016%" fy="49.975%">
      <stop offset="0%" stop-color="#E64525"/>
      <stop offset="100%" stop-color="#E52525"/>
    </radialGradient>
    <radialGradient id="logo-footer-g" cx="49.993%" cy="50.044%" r="25.189%" fx="49.993%" fy="50.044%" gradientTransform="matrix(1 0 0 .74284 0 .129)">
      <stop offset="0%" stop-color="#E64525"/>
      <stop offset="100%" stop-color="#E52525"/>
    </radialGradient>
    <radialGradient id="logo-footer-h" cx="49.997%" cy="19.9%" r="4.21%" fx="49.997%" fy="19.9%" gradientTransform="matrix(1 0 0 .60296 0 .079)">
      <stop offset="0%" stop-color="#E64525"/>
      <stop offset="100%" stop-color="#E52525"/>
    </radialGradient>
    <radialGradient id="logo-footer-i" cx="49.999%" cy="22.5%" r="4.43%" fx="49.999%" fy="22.5%" gradientTransform="matrix(1 0 0 .55093 0 .101)">
      <stop offset="0%" stop-color="#E64525"/>
      <stop offset="100%" stop-color="#E52525"/>
    </radialGradient>
  </defs>
  <g fill="none" fill-rule="evenodd" transform="translate(-3 -1)">
    <rect width="103.906" height="42.928"/>
    <mask id="logo-footer-b" fill="#fff">
      <use xlink:href="#logo-footer-a"/>
    </mask>
    <g fill-rule="nonzero" mask="url(#logo-footer-b)">
      <g transform="translate(2.657 1.139)">
        <rect width="1" height="3.422" x="4.07" y="37.067" fill="#1A1619"/>
        <path fill="#1A1619" d="M8.26192701,40.4882628 L6.97217518,38.4811387 C6.8340146,38.2708613 6.69585401,38.0207299 6.59716788,37.810073 L6.59071533,37.810073 C6.60362044,38.027562 6.61690511,38.2575766 6.61690511,38.6261314 L6.61690511,40.4882628 L6.03807299,40.4882628 L6.03807299,37.0665109 L6.82756204,37.0665109 L8.09757664,39.0406131 C8.24218978,39.2577226 8.38035036,39.4945693 8.49877372,39.7249635 L8.50560584,39.7249635 C8.48586861,39.5014015 8.4790365,39.1328467 8.4790365,38.6261314 L8.47258394,37.0665109 L9.05824818,37.0665109 L9.05824818,40.4882628 L8.26192701,40.4882628 Z"/>
        <polygon fill="#1A1619" points="11.466 37.567 11.466 40.488 10.867 40.488 10.867 37.567 9.88 37.567 9.88 37.067 12.46 37.067 12.46 37.567"/>
        <polygon fill="#1A1619" points="13.315 40.488 13.315 37.067 15.25 37.067 15.25 37.534 13.914 37.534 13.914 38.501 15.184 38.501 15.184 38.955 13.914 38.955 13.914 40.008 15.25 40.008 15.25 40.488"/>
        <path fill="#1A1619" d="M17.3755912,37.5071825 C17.2309781,37.5071825 17.1319124,37.5140146 17.0336058,37.5269197 L17.0336058,38.599562 C17.1387445,38.6060146 17.2704526,38.6128467 17.3953285,38.6128467 C17.8098102,38.6128467 18.0796788,38.3824526 18.0796788,38.027562 C18.0796788,37.6787445 17.8098102,37.5071825 17.3755912,37.5071825 Z M18.1586277,40.4882628 L17.0597956,39.0208759 L17.0336058,39.0208759 L17.0336058,40.4882628 L16.4346569,40.4882628 L16.4346569,37.0665109 C16.6585985,37.0532263 17.0465109,37.0467737 17.4549197,37.0467737 C18.2508613,37.0467737 18.7116496,37.3625693 18.7116496,37.9679708 C18.7116496,38.5471825 18.2770511,38.8891679 17.6849343,38.9483796 C17.7703358,39.0406131 17.8694015,39.1719416 17.9809927,39.3104818 L18.9090219,40.4882628 L18.1586277,40.4882628 Z M22.1136642,40.4882628 L20.824292,38.4811387 C20.6857518,38.2708613 20.5479708,38.0207299 20.4489051,37.810073 L20.4424526,37.810073 C20.4557372,38.027562 20.4686423,38.2575766 20.4686423,38.6261314 L20.4686423,40.4882628 L19.8898102,40.4882628 L19.8898102,37.0665109 L20.6792993,37.0665109 L21.9493139,39.0406131 C22.093927,39.2577226 22.2324672,39.4945693 22.3505109,39.7249635 L22.3573431,39.7249635 C22.3376058,39.5014015 22.3307737,39.1328467 22.3307737,38.6261314 L22.3243212,37.0665109 L22.9099854,37.0665109 L22.9099854,40.4882628 L22.1136642,40.4882628 Z M25.6147445,38.2575766 C25.5426277,38.0666569 25.4765839,37.8563796 25.4242044,37.6916496 L25.4173723,37.6916496 C25.3782774,37.8628321 25.3122336,38.0602044 25.2397372,38.2511241 L24.8184234,39.330219 L26.0292263,39.330219 L25.6147445,38.2575766 Z M26.4505401,40.4882628 L26.1810511,39.7708905 L24.6605255,39.7708905 L24.3910365,40.4882628 L23.785635,40.4882628 L25.1148613,37.0665109 L25.7992117,37.0665109 L27.1151533,40.4882628 L26.4505401,40.4882628 Z"/>
        <polygon fill="#1A1619" points="28.747 37.567 28.747 40.488 28.148 40.488 28.148 37.567 27.161 37.567 27.161 37.067 29.741 37.067 29.741 37.567"/>
        <rect width="1" height="3.422" x="30.596" y="37.067" fill="#1A1619"/>
        <path fill="#1A1619" d="M33.9062774,37.5272993 C33.3471825,37.5272993 32.8533723,37.9546861 32.8533723,38.7578394 C32.8533723,39.4550949 33.1365255,40.0210219 33.8865401,40.0210219 C34.4854891,40.0210219 34.9591825,39.6129927 34.9591825,38.7969343 C34.9591825,37.9679708 34.5511533,37.5272993 33.9062774,37.5272993 Z M33.8470657,40.5410219 C32.7349489,40.5410219 32.2153285,39.8236496 32.2153285,38.810219 C32.2153285,37.6787445 33.0181022,37.0141314 33.9522044,37.0141314 C34.9591825,37.0141314 35.6040584,37.6123212 35.6040584,38.7445547 C35.6040584,39.8893139 34.8145693,40.5410219 33.8470657,40.5410219 Z M38.8485547,40.4882628 L37.5588029,38.4811387 C37.4206423,38.2708613 37.2824818,38.0207299 37.1837956,37.810073 L37.1773431,37.810073 C37.1902482,38.027562 37.2035328,38.2575766 37.2035328,38.6261314 L37.2035328,40.4882628 L36.6247007,40.4882628 L36.6247007,37.0665109 L37.4141898,37.0665109 L38.6842044,39.0406131 C38.8288175,39.2577226 38.9669781,39.4945693 39.0854015,39.7249635 L39.091854,39.7249635 C39.0724964,39.5014015 39.0656642,39.1328467 39.0656642,38.6261314 L39.0592117,37.0665109 L39.6448759,37.0665109 L39.6448759,40.4882628 L38.8485547,40.4882628 Z M42.349635,38.2575766 C42.2775182,38.0666569 42.2114745,37.8563796 42.1590949,37.6916496 L42.1522628,37.6916496 C42.1127883,37.8628321 42.0471241,38.0602044 41.9746277,38.2511241 L41.5533139,39.330219 L42.7641168,39.330219 L42.349635,38.2575766 Z M43.1854307,40.4882628 L42.915562,39.7708905 L41.3954161,39.7708905 L41.1255474,40.4882628 L40.5205255,40.4882628 L41.8497518,37.0665109 L42.5337226,37.0665109 L43.8500438,40.4882628 L43.1854307,40.4882628 Z"/>
        <polygon fill="#1A1619" points="44.719 40.488 44.719 37.067 45.318 37.067 45.318 39.975 46.542 39.975 46.542 40.488"/>
        <polygon fill="#1A1619" points="49.884 37.567 49.884 40.488 49.285 40.488 49.285 37.567 48.298 37.567 48.298 37.067 50.877 37.067 50.877 37.567"/>
        <path fill="#1A1619" d="M52.9694015,37.5272993 C52.4103066,37.5272993 51.9164964,37.9546861 51.9164964,38.7578394 C51.9164964,39.4550949 52.1992701,40.0210219 52.9496642,40.0210219 C53.5486131,40.0210219 54.021927,39.6129927 54.021927,38.7969343 C54.021927,37.9679708 53.6142774,37.5272993 52.9694015,37.5272993 Z M52.9101898,40.5410219 C51.798073,40.5410219 51.2784526,39.8236496 51.2784526,38.810219 C51.2784526,37.6787445 52.0812263,37.0141314 53.015708,37.0141314 C54.021927,37.0141314 54.6671825,37.6123212 54.6671825,38.7445547 C54.6671825,39.8893139 53.8773139,40.5410219 52.9101898,40.5410219 Z M57.1089051,40.5410219 C56.1615182,40.5410219 55.6680876,40.0935182 55.6680876,39.3036496 L55.6680876,37.0665109 L56.2666569,37.0665109 L56.2666569,39.1985109 C56.2666569,39.7841752 56.5892847,40.0472117 57.1552117,40.0472117 C57.8004672,40.0472117 58.0373139,39.6854891 58.0373139,39.1396788 L58.0373139,37.0665109 L58.6294307,37.0665109 L58.6294307,39.1852263 C58.6294307,39.9158832 58.1883796,40.5410219 57.1089051,40.5410219 Z M60.9124964,37.5071825 C60.7678832,37.5071825 60.6691971,37.5140146 60.5701314,37.5269197 L60.5701314,38.599562 C60.6756496,38.6060146 60.8073577,38.6128467 60.9322336,38.6128467 C61.3467153,38.6128467 61.6165839,38.3824526 61.6165839,38.027562 C61.6165839,37.6787445 61.3467153,37.5071825 60.9124964,37.5071825 Z M61.6955328,40.4882628 L60.5967007,39.0208759 L60.5701314,39.0208759 L60.5701314,40.4882628 L59.9719416,40.4882628 L59.9719416,37.0665109 C60.1955036,37.0532263 60.5834161,37.0467737 60.9914453,37.0467737 C61.7877664,37.0467737 62.2481752,37.3625693 62.2481752,37.9679708 C62.2481752,38.5471825 61.8139562,38.8891679 61.222219,38.9483796 C61.3076204,39.0406131 61.405927,39.1719416 61.5178978,39.3104818 L62.445927,40.4882628 L61.6955328,40.4882628 Z M65.6509489,40.4882628 L64.3611971,38.4811387 C64.2230365,38.2708613 64.0844964,38.0207299 63.9861898,37.810073 L63.9797372,37.810073 C63.9926423,38.027562 64.0055474,38.2575766 64.0055474,38.6261314 L64.0055474,40.4882628 L63.4267153,40.4882628 L63.4267153,37.0665109 L64.2162044,37.0665109 L65.486219,39.0406131 C65.6312117,39.2577226 65.7693723,39.4945693 65.8874161,39.7249635 L65.8938686,39.7249635 C65.8745109,39.5014015 65.8676788,39.1328467 65.8676788,38.6261314 L65.8612263,37.0665109 L66.4468905,37.0665109 L66.4468905,40.4882628 L65.6509489,40.4882628 Z M69.1520292,38.2575766 C69.0795328,38.0666569 69.0138686,37.8563796 68.9611095,37.6916496 L68.9546569,37.6916496 C68.9151825,37.8628321 68.8495182,38.0602044 68.7770219,38.2511241 L68.3560876,39.330219 L69.5665109,39.330219 L69.1520292,38.2575766 Z M69.9878248,40.4882628 L69.7179562,39.7708905 L68.1981898,39.7708905 L67.9283212,40.4882628 L67.3229197,40.4882628 L68.6517664,37.0665109 L69.3364964,37.0665109 L70.652438,40.4882628 L69.9878248,40.4882628 Z M75.0151241,40.4882628 L74.745635,38.5866569 C74.6993285,38.2245547 74.6731387,37.9546861 74.6534015,37.7637664 L74.6469489,37.7637664 C74.6070949,37.9414015 74.5478832,38.152438 74.4693139,38.376 L73.7519416,40.4882628 L73.1135182,40.4882628 L72.4553577,38.5206131 C72.3699562,38.2773139 72.2781022,37.987708 72.2386277,37.7705985 L72.2317956,37.7705985 C72.2188905,38.033635 72.1854891,38.2970511 72.1463942,38.6128467 L71.9027153,40.4882628 L71.304146,40.4882628 L71.824146,37.0665109 L72.567708,37.0665109 L73.2717956,39.1392993 C73.3439124,39.3628613 73.4164088,39.5864234 73.4558832,39.7906277 L73.4623358,39.7906277 C73.5086423,39.553781 73.5610219,39.3894307 73.6399708,39.1590365 L74.3637956,37.0665109 L75.1468321,37.0665109 L75.6470949,40.4882628 L75.0151241,40.4882628 Z"/>
        <polygon fill="#1A1619" points="76.852 40.488 76.852 37.067 78.786 37.067 78.786 37.534 77.45 37.534 77.45 38.501 78.72 38.501 78.72 38.955 77.45 38.955 77.45 40.008 78.786 40.008 78.786 40.488"/>
        <path fill="#1A1619" d="M82.1952993,40.4882628 L80.9055474,38.4811387 C80.7673869,38.2708613 80.6292263,38.0207299 80.5305401,37.810073 L80.5240876,37.810073 C80.5369927,38.027562 80.5498978,38.2575766 80.5498978,38.6261314 L80.5498978,40.4882628 L79.9714453,40.4882628 L79.9714453,37.0665109 L80.7609343,37.0665109 L82.0309489,39.0406131 C82.175562,39.2577226 82.3133431,39.4945693 82.432146,39.7249635 L82.4385985,39.7249635 C82.4188613,39.5014015 82.4124088,39.1328467 82.4124088,38.6261314 L82.4055766,37.0665109 L82.9912409,37.0665109 L82.9912409,40.4882628 L82.1952993,40.4882628 Z"/>
        <polygon fill="#1A1619" points="85.4 37.567 85.4 40.488 84.801 40.488 84.801 37.567 83.813 37.567 83.813 37.067 86.393 37.067 86.393 37.567"/>
        <path fill="#1A1619" d="M87.748292,40.5474745 C87.497781,40.5474745 87.2021022,40.508 87.0108029,40.462073 L87.0373723,39.9025985 C87.2411971,39.9948321 87.5243504,40.0407591 87.8204088,40.0407591 C88.1825109,40.0407591 88.5442336,39.8893139 88.5442336,39.4945693 C88.5442336,38.8170511 86.9322336,39.1461314 86.9322336,38.0469197 C86.9322336,37.4221606 87.4321168,37.0141314 88.3009343,37.0141314 C88.5047591,37.0141314 88.7746277,37.0334891 88.972,37.0729635 L88.9458102,37.5933431 C88.7613431,37.5337518 88.4781898,37.4938978 88.2679124,37.4938978 C87.7809343,37.4938978 87.5638248,37.6848175 87.5638248,37.9812555 C87.5638248,38.6458686 89.1822774,38.3429781 89.1822774,39.4289051 C89.1822774,40.119708 88.5708029,40.5474745 87.748292,40.5474745"/>
        <polygon fill="#1A1619" points=".349 33.735 .349 26.994 4.497 26.994 4.497 28.304 2.021 28.304 2.021 29.651 4.38 29.651 4.38 30.922 2.021 30.922 2.021 32.4 4.497 32.4 4.497 33.735"/>
        <path fill="#1A1619" d="M9.47386861,33.8512409 C7.42537226,33.8512409 6.45331387,32.8920876 6.45331387,31.3624526 L6.45331387,26.994073 L8.12566423,26.994073 L8.12566423,30.9866861 C8.12566423,32.0236496 8.61833577,32.4639416 9.56458394,32.4639416 C10.5882628,32.4639416 10.9905985,31.894219 10.9905985,30.921781 L10.9905985,26.994073 L12.6363796,26.994073 L12.6363796,31.1294015 C12.6363796,32.6328467 11.6905109,33.8512409 9.47386861,33.8512409 Z M17.0290511,28.2253723 C16.8476204,28.2253723 16.6790949,28.2386569 16.5234745,28.251562 L16.5234745,29.9751533 C16.692,30.0013431 16.8996204,30.0013431 17.0810511,30.0013431 C17.7289635,30.0013431 18.1438248,29.6259562 18.1438248,29.0683796 C18.1438248,28.5366131 17.7160584,28.2253723 17.0290511,28.2253723 Z M18.2474453,33.7347153 L16.5883796,31.1032117 L16.5234745,31.1032117 L16.5234745,33.7347153 L14.8515036,33.7347153 L14.8515036,26.994073 C15.3961752,26.9682628 16.419854,26.9553577 17.2753869,26.9553577 C18.9348321,26.9553577 19.9197956,27.590365 19.9197956,28.8994745 C19.9197956,29.936438 19.2585985,30.5847299 18.2865401,30.8181606 C18.4159708,30.9995912 18.597781,31.2717372 18.7917372,31.5571679 L20.2826569,33.7347153 L18.2474453,33.7347153 Z M24.7668029,28.3422774 C23.8596496,28.3422774 23.0561168,29.0292847 23.0561168,30.3383942 C23.0561168,31.518073 23.5875036,32.3736058 24.7280876,32.3736058 C25.6743358,32.3736058 26.4911533,31.7515036 26.4911533,30.3771095 C26.4911533,29.0425693 25.7908613,28.3422774 24.7668029,28.3422774 Z M24.6373723,33.8512409 C22.433635,33.8512409 21.2672409,32.4901314 21.2672409,30.4420146 C21.2672409,28.2386569 22.9783066,26.8775474 24.883708,26.8775474 C26.8020146,26.8775474 28.2796496,27.9665109 28.2796496,30.2863942 C28.2796496,32.5030365 26.5947737,33.8512409 24.6373723,33.8512409 Z"/>
        <rect width="3.189" height="1.322" x="29.498" y="29.781" fill="#1A1619"/>
        <path fill="#1A1619" d="M35.5505401,33.8770511 C35.1227737,33.8770511 34.6046715,33.8125255 34.2285255,33.7218102 L34.2930511,32.2437956 C34.6821022,32.3994161 35.1876788,32.4901314 35.7190657,32.4901314 C36.2766423,32.4901314 36.7431241,32.2308905 36.7431241,31.7253139 C36.7431241,30.701635 34.0338102,31.2713577 34.0338102,29.068 C34.0338102,27.7459854 35.0320584,26.8642628 36.8858394,26.8642628 C37.2487007,26.8642628 37.7409927,26.9166423 38.1171387,26.9682628 L38.0655182,28.3684672 C37.7026569,28.2644672 37.2099854,28.199562 36.8209343,28.199562 C36.1081168,28.199562 35.809781,28.471708 35.809781,28.8869489 C35.809781,29.8457226 38.5710949,29.444146 38.5710949,31.518073 C38.5710949,32.9308029 37.4301314,33.8770511 35.5505401,33.8770511 Z M42.6532847,28.2902774 C42.4589489,28.2902774 42.2126131,28.2902774 42.0569927,28.303562 L42.0569927,30.3125839 C42.1868029,30.3383942 42.419854,30.3512993 42.5754745,30.3512993 C43.3011971,30.3512993 43.7809635,29.9751533 43.7809635,29.3014307 C43.7809635,28.7442336 43.4051971,28.2902774 42.6532847,28.2902774 Z M42.6141898,31.6733139 C42.471854,31.6733139 42.199708,31.6604088 42.0569927,31.6478832 L42.0569927,33.7347153 L40.3846423,33.7347153 L40.3846423,26.994073 C40.9813139,26.9682628 41.9404672,26.9557372 42.7698102,26.9557372 C44.545781,26.9557372 45.5569343,27.7717956 45.5569343,29.2107153 C45.5569343,30.7274453 44.3252555,31.6733139 42.6141898,31.6733139 Z M50.0930803,28.3422774 C49.1855474,28.3422774 48.3823942,29.0292847 48.3823942,30.3383942 C48.3823942,31.518073 48.9134015,32.3736058 50.0539854,32.3736058 C51.0002336,32.3736058 51.8170511,31.7515036 51.8170511,30.3771095 C51.8170511,29.0425693 51.1171387,28.3422774 50.0930803,28.3422774 Z M49.9636496,33.8512409 C47.7599124,33.8512409 46.5931387,32.4901314 46.5931387,30.4420146 C46.5931387,28.2386569 48.3042044,26.8775474 50.2096058,26.8775474 C52.128292,26.8775474 53.6063066,27.9665109 53.6063066,30.2863942 C53.6063066,32.5030365 51.9206715,33.8512409 49.9636496,33.8512409 Z M57.441781,28.2253723 C57.2603504,28.2253723 57.0914453,28.2386569 56.9365839,28.251562 L56.9365839,29.9751533 C57.1047299,30.0013431 57.3123504,30.0013431 57.4934015,30.0013431 C58.1416934,30.0013431 58.5569343,29.6259562 58.5569343,29.0683796 C58.5569343,28.5366131 58.1291679,28.2253723 57.441781,28.2253723 Z M58.6601752,33.7347153 L57.0007299,31.1032117 L56.9365839,31.1032117 L56.9365839,33.7347153 L55.2642336,33.7347153 L55.2642336,26.994073 C55.8085255,26.9682628 56.8325839,26.9553577 57.6881168,26.9553577 C59.347562,26.9553577 60.3325255,27.590365 60.3325255,28.8994745 C60.3325255,29.936438 59.671708,30.5847299 58.6988905,30.8181606 C58.8290803,30.9995912 59.0105109,31.2717372 59.2048467,31.5571679 L60.6953869,33.7347153 L58.6601752,33.7347153 Z"/>
        <polygon fill="#1A1619" points="64.79 28.42 64.79 33.735 63.118 33.735 63.118 28.42 61.355 28.42 61.355 26.994 66.554 26.994 66.554 28.42"/>
        <path fill="#1A1619" d="M70.1821606,28.2253723 C70.0007299,28.2253723 69.8325839,28.2386569 69.6769635,28.251562 L69.6769635,29.9751533 C69.8451095,30.0013431 70.0527299,30.0013431 70.2341606,30.0013431 C70.8824526,30.0013431 71.2969343,29.6259562 71.2969343,29.0683796 C71.2969343,28.5366131 70.8695474,28.2253723 70.1821606,28.2253723 Z M71.4009343,33.7347153 L69.7418686,31.1032117 L69.6769635,31.1032117 L69.6769635,33.7347153 L68.0046131,33.7347153 L68.0046131,26.994073 C68.5492847,26.9682628 69.5729635,26.9553577 70.4284964,26.9553577 C72.087562,26.9553577 73.0729051,27.590365 73.0729051,28.8994745 C73.0729051,29.936438 72.4120876,30.5847299 71.4392701,30.8181606 C71.5694599,30.9995912 71.7508905,31.2717372 71.9452263,31.5571679 L73.4357664,33.7347153 L71.4009343,33.7347153 Z"/>
        <rect width="1.672" height="6.74" x="74.978" y="26.994" fill="#1A1619"/>
        <path fill="#1A1619" d="M83.1810219,33.7347153 L81.1590949,30.4420146 C80.9252847,30.0662482 80.6922336,29.5868613 80.5233285,29.2107153 L80.5108029,29.2107153 C80.5366131,29.5348613 80.5498978,29.8719124 80.5498978,30.4032993 L80.5498978,33.7347153 L78.9424526,33.7347153 L78.9424526,26.994073 L81.1845255,26.994073 L83.141927,30.2089635 C83.4011679,30.6109197 83.6345985,31.0386861 83.8418394,31.4918832 L83.8547445,31.4918832 C83.8289343,31.0903066 83.8160292,30.5327299 83.8160292,29.8328175 L83.8035036,26.994073 L85.4234745,26.994073 L85.4234745,33.7347153 L83.1810219,33.7347153 Z M90.5813431,33.8512409 C88.5848467,33.8512409 87.0946861,32.723562 87.0946861,30.4940146 C87.0946861,28.4849927 88.4945109,26.8775474 90.8792993,26.8775474 C91.6054015,26.8775474 92.3444088,26.9815474 93.0701314,27.2145985 L92.7592701,28.6535182 C92.1629781,28.4071825 91.5663066,28.2773723 90.9183942,28.2773723 C89.7387153,28.2773723 88.8702774,29.0292847 88.8702774,30.3645839 C88.8702774,31.6607883 89.6218102,32.3732263 90.7236788,32.3732263 C91.0091095,32.3732263 91.2945401,32.3348905 91.5275912,32.2570803 L91.5275912,30.1440584 L93.1999416,30.1440584 L93.1999416,33.3585693 C92.3960292,33.6698102 91.5408759,33.8512409 90.5813431,33.8512409 Z M96.7507445,26.5112701 L96.2759124,26.5112701 L96.2759124,27.0229197 L96.7507445,27.0229197 C96.9150949,27.0229197 97.0388321,26.9451095 97.0388321,26.7670949 C97.0388321,26.5981898 96.9150949,26.5112701 96.7507445,26.5112701 Z M96.9659562,27.2874745 L97.3352701,28.0131971 L96.9746861,28.0131971 L96.6232117,27.3197372 L96.2759124,27.3197372 L96.2759124,28.0131971 L95.970365,28.0131971 L95.970365,26.214073 L96.759854,26.214073 C97.0798248,26.214073 97.3489343,26.3833577 97.3489343,26.7579854 C97.3489343,27.0411387 97.1982482,27.2191533 96.9659562,27.2874745 Z M96.5958832,25.7623942 C95.8105693,25.7623942 95.2123796,26.3605839 95.2123796,27.1462774 C95.2123796,27.9315912 95.8105693,28.5294015 96.5958832,28.5294015 C97.3808175,28.5294015 97.9790073,27.9315912 97.9790073,27.1462774 C97.9790073,26.3605839 97.3808175,25.7623942 96.5958832,25.7623942 Z M96.5958832,28.7943358 C95.6598832,28.7943358 94.9474453,28.0818978 94.9474453,27.1462774 C94.9474453,26.2098978 95.6598832,25.4974599 96.5958832,25.4974599 C97.5318832,25.4974599 98.2439416,26.2098978 98.2439416,27.1462774 C98.2439416,28.0818978 97.5318832,28.7943358 96.5958832,28.7943358 Z"/>
        <path fill="url(#logo-footer-c)" d="M44.7795912,1.79191241 C40.1861314,2.81976642 37.2953869,7.37754745 38.3224818,11.9710073 C39.3507153,16.5648467 43.9077372,19.4563504 48.5023358,18.4281168 C53.0961752,17.4006423 55.9876788,12.8428613 54.9590657,8.24940146 C54.0708905,4.28145985 50.5512117,1.58467153 46.6481752,1.58467153 C46.0317664,1.58467153 45.4058686,1.65185401 44.7795912,1.79191241 Z"/>
        <path fill="url(#logo-footer-d)" d="M48.3569635,5.45772263 C48.4032701,5.55375182 48.6909781,5.98759124 48.5672409,6.07527007 C48.4966423,6.12537226 48.4343942,6.43623358 48.4841168,6.50910949 C48.5501606,6.60362044 48.8735474,6.43357664 48.9342774,6.39258394 C49.0249927,6.33147445 49.0967299,6.22937226 49.0511825,6.12005839 C49.0174015,6.03883212 48.9168175,6.09386861 48.886073,6.02744526 C48.8245839,5.88359124 48.7961168,5.76706569 48.7744818,5.60764964 C48.7657518,5.54843796 48.5512993,5.1449635 48.5448467,5.14534307 C48.5448467,5.14534307 48.5448467,5.1449635 48.5448467,5.1449635 C48.5361168,5.1449635 48.3482336,5.36169343 48.3569635,5.45772263 Z"/>
        <path fill="url(#logo-footer-e)" d="M39.5663066,7.35743066 C39.5423942,7.39045255 39.5378394,7.40487591 39.5423942,7.40943066 C39.4721752,7.60035036 39.8046715,7.72029197 39.7883504,7.90058394 C39.7815182,8.09188321 39.5571971,8.2129635 39.5727591,8.36934307 C39.5849051,8.4900438 39.6752409,8.41527007 39.752292,8.34011679 C39.8020146,8.29191241 39.8460438,8.24332847 39.8608467,8.24674453 C39.9409343,8.26762044 40.0195036,8.59594161 40.1386861,8.36327007 C40.1728467,8.29532847 40.1948613,7.91386861 40.1417226,7.86794161 C40.0251971,7.76811679 40.003562,7.55973723 40.1208467,7.45953285 C40.2715328,7.33048175 40.0210219,7.31112409 39.942073,7.49824818 C39.8392117,7.49331387 39.7754453,7.35059854 39.6251387,7.35059854 C39.6069197,7.35059854 39.587562,7.35287591 39.5663066,7.35743066 Z"/>
        <path fill="url(#logo-footer-f)" d="M39.9485255,8.53141606 C39.6995328,8.69576642 40.0779562,8.66274453 40.1242628,8.81191241 C40.1944818,9.03927007 40.183854,9.03205839 40.4339854,9.02332847 C40.4339854,8.70829197 40.3299854,8.52078832 40.0661898,8.52078832 C40.0301314,8.52078832 39.9906569,8.52420438 39.9485255,8.53141606 Z"/>
        <path fill="url(#logo-footer-g)" d="M53.9224818,13.9963504 C53.7634453,14.1458978 53.685635,14.3148029 53.5584818,14.489781 C53.4188029,14.6810803 53.2650803,14.8621314 53.1310949,15.0576058 C53.052146,15.1729927 53.0362044,15.2944526 52.9435912,15.4113577 C52.8752701,15.4971387 52.7090219,15.6436496 52.7245839,15.7662482 C52.7397664,15.8884672 52.8638832,15.9051679 52.9557372,15.8284964 C53.0107737,15.7821898 53.0195036,15.7005839 53.0658102,15.6474453 C53.1052847,15.6015182 53.174365,15.5734307 53.2195328,15.5294015 C53.3694599,15.3844088 53.4867445,15.2094307 53.6070657,15.0409051 C53.7820438,14.795708 53.9183066,14.5254599 54.0720292,14.2669781 C54.1236496,14.1800584 54.3426569,13.8889343 54.1570511,13.8487007 C54.150219,13.8471825 54.1433869,13.8464234 54.1365547,13.8464234 C54.0541898,13.8464234 53.9729635,13.9489051 53.9224818,13.9963504 Z"/>
        <path fill="url(#logo-footer-h)" d="M41.248146,3.52423358 C40.5121752,4.12925547 39.8794453,4.85877372 39.3833577,5.67179562 C39.3249051,5.76744526 39.1905401,5.90408759 39.2239416,6.02744526 C39.2562044,6.14472993 39.2224234,6.35007299 39.1821898,6.46925547 C39.1252555,6.63056934 38.9567299,6.71710949 38.9392701,6.89056934 C38.9449635,7.15474453 38.9624234,7.41816058 38.9278832,7.68005839 C38.9278832,7.88084672 38.8846131,8.04975182 38.9275036,8.24978102 C38.984438,8.51623358 38.9461022,8.57620438 38.8679124,8.82747445 C38.7870657,9.08709489 38.9134599,9.2180438 38.9373723,9.46058394 C38.9362336,9.54218978 38.9745693,9.5869781 39.0512409,9.59343066 C39.1685255,9.61089051 39.1392993,9.81509489 39.131708,9.89594161 C39.119562,10.0242336 39.1821898,10.3073869 39.0986861,10.4129051 C38.9703942,10.5673869 38.7870657,10.6114161 38.761635,10.837635 C38.7130511,11.262365 38.7525255,11.6802628 38.8303358,12.0992993 C38.9172555,12.5672993 39.0368175,12.9271241 39.290365,13.3233869 C39.4964672,13.7090219 39.52,14.0866861 39.6904234,14.4685255 C39.8020146,14.6833577 39.8638832,14.8940146 39.9549781,15.1141606 C40.0134307,15.2314453 39.9800292,15.3388613 40.0263358,15.4534891 C40.3466861,15.8489927 40.7144818,16.1879416 41.0731679,16.5435912 C41.1433869,16.5291679 41.1251679,16.4092263 41.1456642,16.3686131 C41.1585693,16.3390073 41.1923504,16.3640584 41.2322044,16.3894891 C41.2785109,16.4187153 41.3331679,16.4483212 41.3726423,16.3906277 C41.4766423,16.2365255 41.6618686,16.2911825 41.7461314,16.1685839 C41.7966131,16.0900146 41.8915036,16.1484672 41.8770803,16.0197956 C41.8634161,15.9047883 41.9032701,15.7119708 42.0691387,15.7472701 C42.1754161,15.7700438 42.1613723,15.7138686 42.2467737,15.6998248 C42.3777226,15.7191825 42.4058102,15.875562 42.5747153,15.7829489 C42.759562,15.6800876 42.8415474,15.3893431 42.9189781,15.208292 C42.9743942,15.0792409 42.9952701,14.9873869 42.982365,14.850365 C42.9747737,14.7717956 43.141781,14.6772847 43.190365,14.6283212 C43.4268321,14.3945109 43.6154745,14.3854015 43.5145109,14.0107737 C43.447708,13.7659562 43.1831533,13.6816934 43.0169051,13.5105109 C42.8199124,13.3472993 42.6092555,13.1799124 42.398219,13.0360584 C42.1158248,12.844 41.8023066,12.8246423 41.6212555,12.504292 C41.5533139,12.3839708 41.5616642,12.2461898 41.4975182,12.1296642 C41.4276788,12.0017518 41.2986277,11.9167299 41.2265109,11.785781 C41.1278248,11.6058686 41.0803796,11.6825401 40.9258978,11.5895474 C40.789635,11.5068029 40.8158248,11.3356204 40.761927,11.2073285 C40.7228321,11.1162336 40.6389489,11.0528467 40.6127591,10.9556788 C40.5774599,10.8254891 40.6548905,10.7598248 40.5451971,10.6505109 C40.4355036,10.5453723 40.5379854,10.3711533 40.4207007,10.2686715 C40.3531387,10.2071825 40.2271241,10.2603212 40.1402044,10.1923796 C39.9079124,10.0090511 40.1546277,9.96046715 40.0673285,9.78548905 C40.0453139,9.74108029 39.9963504,9.7570219 39.9462482,9.7729635 C39.8904526,9.79080292 39.8335182,9.80864234 39.813781,9.74108029 C39.7925255,9.67086131 39.8430073,9.58773723 39.8031533,9.52435036 C39.7238248,9.54181022 39.4475036,9.52928467 39.4152409,9.58887591 C39.3214891,9.76347445 39.2565839,9.53649635 39.1848467,9.46324088 C39.0755328,9.34671533 38.9180146,9.36265693 38.932438,9.1489635 C38.9461022,8.94855474 39.0835036,8.80925547 39.1279124,8.62744526 C39.1916788,8.44791241 39.2224234,8.2900146 39.1753577,8.10251095 C39.1104526,7.84213139 39.2911241,7.71118248 39.3742482,7.48572263 C39.4270073,7.34186861 39.5162044,7.25684672 39.437635,7.10046715 C39.3260438,6.87918248 39.2626569,7.23786861 39.1605547,7.24128467 C39.0026569,7.23976642 39.3510949,6.35842336 39.3807007,6.30832117 C39.4657226,6.16750365 39.6080584,5.96481752 39.7519124,5.88435036 C39.9853431,5.75264234 39.8923504,6.03731387 39.9561168,6.15194161 C39.9561168,6.15194161 40.1367883,6.03883212 40.1402044,6.24075912 C40.1424818,6.37056934 40.2870949,6.3470365 40.2309197,6.45521168 C40.1367883,6.64005839 40.1470365,6.9049927 40.0335474,7.06213139 C39.9530803,7.17486131 40.0559416,7.2420438 40.1037664,7.08794161 C40.2013139,6.77480292 40.416146,6.448 40.7000584,6.26163504 C40.8632701,6.15953285 41.3119124,6.25670073 41.1748905,5.90181022 C41.1923504,5.89877372 41.3005255,5.81413139 41.2701606,5.84070073 C41.3335474,5.78490511 41.3487299,5.80388321 41.3680876,5.82324088 C41.3817518,5.83652555 41.3969343,5.84943066 41.4310949,5.83728467 C41.5035912,5.8209635 41.5271241,5.71620438 41.6018978,5.69456934 C41.6998248,5.66534307 41.8804964,5.66837956 41.9829781,5.68090511 C42.1549197,5.70178102 42.1211387,5.60043796 42.2152701,5.51465693 C42.2653723,5.46835036 42.4179562,5.43418978 42.4824818,5.41672993 C42.5610511,5.39471533 42.6570803,5.39016058 42.685927,5.48884672 C42.7295766,5.63573723 42.5876204,5.59626277 42.4950073,5.62890511 C42.508292,5.69115328 42.9390949,5.69912409 43.0043796,5.68963504 C43.2268029,5.65585401 42.8764672,5.51465693 42.8851971,5.47670073 C42.9390949,5.26528467 42.9204964,5.21024818 43.1406423,5.18861314 C43.3372555,5.16925547 43.0176642,4.97378102 42.9660438,4.9540438 C42.9432701,4.84359124 43.1831533,4.86218978 43.2309781,4.86788321 C43.3949489,4.89027737 43.3440876,5.0219854 43.4283504,5.04513869 C43.6215474,5.09827737 44.230365,4.99921168 43.7392117,5.30020438 C43.655708,5.35182482 43.4351825,5.40458394 43.4712409,5.54616058 C43.4883212,5.61751825 43.6295182,5.76668613 43.6959416,5.79515328 C43.8804088,5.87486131 43.9673285,5.75529927 44.0105985,5.58753285 C44.0542482,5.42090511 43.8511825,5.47442336 43.8280292,5.38370803 C44.0800584,5.30020438 44.2713577,5.00680292 44.2003796,4.74262774 C44.1487591,4.55170803 44.0178102,4.35054015 44.2239124,4.21010219 C44.2865401,4.1679708 44.5503358,4.01690511 44.5002336,3.93567883 C44.2098686,4.00058394 44.1286423,3.92315328 44.2538978,3.63278832 C44.2743942,3.58610219 44.1058686,3.05091971 44.3772555,3.26043796 C44.5355328,3.3830365 44.3920584,3.84382482 44.7670657,3.66011679 C45.0004964,3.54814599 44.7731387,3.3059854 45.0183358,3.23424818 C45.0350365,3.28207299 44.9636788,3.40391241 45.013781,3.43086131 C45.0771679,3.46426277 45.1990073,3.4130219 45.2510073,3.37848175 C45.3432409,3.31737226 45.221781,3.26992701 45.2483504,3.19059854 C45.2646715,3.13024818 45.3166715,3.13745985 45.3732263,3.14467153 C45.4282628,3.15188321 45.4882336,3.15871533 45.5235328,3.10216058 C45.6495474,2.90061314 45.4354745,2.93667153 45.4039708,2.8110365 C45.5201168,2.75106569 45.5971679,2.71766423 45.7292555,2.68578102 C45.8419854,2.65769343 45.8841168,2.52712409 45.9649635,2.50548905 C46.004438,2.61670073 46.1365255,2.64554745 46.2310365,2.68578102 C46.2625401,2.82811679 46.2120584,2.82583942 46.4101898,2.78029197 C46.4454891,2.92262774 46.2192701,2.99094891 46.1718248,3.07710949 C46.1213431,3.17048175 46.1251387,3.29421898 45.9733139,3.28207299 C45.8879124,3.27562044 45.8677956,3.33255474 45.845781,3.38986861 C45.8245255,3.44528467 45.8013723,3.50070073 45.7167299,3.49766423 C45.4366131,3.48817518 45.4567299,3.90986861 45.3853723,4.11748905 C45.2908613,4.29436496 45.4294015,4.23894891 45.5235328,4.23743066 C45.6988905,4.23515328 45.4901314,4.4579562 45.4764672,4.48794161 C45.4438248,4.55740146 45.5193577,4.52475912 45.5804672,4.49135766 C45.6237372,4.46744526 45.6594161,4.44429197 45.6442336,4.45719708 C45.7425401,4.37407299 45.8408467,4.28449635 45.9509197,4.21541606 C46.0435328,4.15772263 46.0940146,4.07573723 46.1539854,3.98881752 C46.2572263,3.83851095 46.3638832,3.96338686 46.488,3.9660438 C46.7016934,3.9660438 46.9525839,3.87229197 47.145781,3.7880292 C47.5940438,3.67947445 47.1985401,3.68137226 47.3367007,3.55573723 C47.4323504,3.46843796 47.5894891,3.41112409 47.6494599,3.2980146 C47.6786861,3.1799708 47.8293723,2.82432117 47.7124672,2.76586861 C47.5094015,2.66528467 47.4095766,2.51649635 47.1636204,2.5100438 C46.9723212,2.50548905 46.6652555,2.444 46.4811679,2.49486131 C46.457635,2.40414599 46.8512409,2.48271533 46.8835036,2.37909489 C46.897927,2.34493431 46.5874453,2.30052555 46.5532847,2.28382482 C46.356292,2.1870365 46.6903066,2.10125547 46.7552117,2.06633577 C46.8698394,2.00522628 46.7836788,1.96385401 46.9096934,1.89135766 C47.0258394,1.8420146 47.1829781,1.75509489 47.1503358,1.60478832 C46.9886423,1.59529927 46.8269489,1.59074453 46.6652555,1.59074453 C44.7055766,1.59074453 42.7648759,2.27623358 41.248146,3.52423358 Z"/>
        <path fill="url(#logo-footer-i)" d="M49.1828905,2.21512409 C49.2485547,2.27889051 49.3521752,2.26788321 49.4485839,2.25687591 C49.5411971,2.24624818 49.6277372,2.236 49.6687299,2.29217518 C49.6683504,2.29217518 49.5673869,2.39427737 49.5484088,2.40452555 C49.4034161,2.48005839 49.6057226,2.58443796 49.6744234,2.59658394 C49.8053723,2.61973723 49.9989489,2.63947445 50.1116788,2.71386861 C50.2061898,2.77194161 50.1382482,2.95830657 50.1796204,3.03308029 C50.2304818,3.12417518 50.4138102,3.17541606 50.498073,3.22589781 C50.6669781,3.35267153 50.4866861,3.24563504 50.5421022,3.38189781 C50.5830949,3.4809635 50.7592117,3.52423358 50.6681168,3.62747445 C50.6164964,3.67036496 50.5857518,3.72540146 50.5781606,3.79258394 C50.5633577,3.79637956 50.5466569,3.78992701 50.5307153,3.78347445 C50.5033869,3.77284672 50.4771971,3.76221898 50.4593577,3.79713869 C50.4282336,3.80321168 50.6593869,3.8810219 50.6734307,3.88405839 C50.7436496,4.18960584 49.999708,3.76943066 49.9146861,3.7550073 C49.6956788,3.71439416 49.6899854,3.75235036 49.4888175,3.81535766 C49.2527299,3.89089051 49.3597664,4.12052555 49.3730511,4.30043796 C49.3821606,4.43366423 49.3559708,4.59383942 49.2584234,4.69670073 C49.0891387,4.87205839 49.1255766,4.93354745 49.1897226,5.1669781 C49.3320584,5.68470073 49.3795036,5.18747445 49.6095182,5.08043796 C49.6095182,5.35637956 50.1128175,5.51124088 49.7598248,5.68470073 C49.718073,5.60157664 49.7294599,5.43646715 49.6228029,5.4049635 C49.341927,5.32563504 49.6467153,5.73176642 49.5996496,5.824 C49.5423358,5.93521168 49.2770219,5.90029197 49.3278832,6.05781022 C49.3798832,6.21153285 49.1176058,6.36487591 48.9707153,6.45635036 C48.7479124,6.59451095 48.8261022,6.68940146 48.5512993,6.65979562 C48.3736642,6.64005839 48.708438,7.04656934 48.7778978,7.08566423 C48.968438,7.18662774 48.9414891,7.08072993 48.9297226,7.34756204 C48.9217518,7.60908029 48.6135474,7.49217518 48.4495766,7.44055474 C48.0908905,7.32668613 48.2351241,7.60718248 48.1189781,7.79392701 C48.0275036,7.9480292 47.9811971,8.4099562 48.1850219,8.47675912 C48.2597956,8.50143066 48.3315328,8.47486131 48.4082044,8.44867153 C48.4807007,8.424 48.5577518,8.39932847 48.647708,8.4160292 C48.7778978,8.44145985 48.9190949,8.48814599 49.0378978,8.39439416 C49.296,8.19208759 49.1054599,7.91842336 49.3259854,7.69220438 C49.4550365,7.55973723 49.4056934,7.42992701 49.6656934,7.47205839 C49.8809051,7.5069781 49.9909781,7.64513869 50.082073,7.38134307 C50.1105401,7.44510949 50.8138686,7.91690511 50.8229781,7.92981022 C50.8996496,8.04937226 50.9205255,8.2019562 51.0074453,8.31468613 C51.0693139,8.39477372 51.1011971,8.28925547 51.1152409,8.18335766 C51.1254891,8.10364964 51.1254891,8.02394161 51.1216934,8.02394161 C51.1414307,8.02280292 51.161927,8.02470073 51.1797664,8.02621898 C51.2385985,8.03229197 51.2685839,8.03760584 51.1478832,7.9370219 C51.0203504,7.83150365 51.0533723,7.84440876 50.8704234,7.74344526 C50.666219,7.63109489 50.3796496,7.47585401 50.458219,7.22686131 C50.4620146,7.21623358 51.0214891,7.57036496 51.0693139,7.58061314 C51.0955036,7.60148905 51.2883212,7.94727007 51.3103358,7.93664234 C51.305781,7.98370803 51.302365,8.03191241 51.2978102,8.07935766 C51.3801752,8.20461314 51.492146,8.3059562 51.5551533,8.44145985 C51.6287883,8.59973723 51.7065985,8.56140146 51.8345109,8.4680292 C51.9996204,8.34808759 51.8986569,8.30747445 51.8068029,8.17956204 C51.7597372,8.11237956 51.5764088,7.82505109 51.6151241,7.74837956 C51.629927,7.71877372 51.9461022,7.57226277 51.9867153,7.55556204 C51.9867153,7.63754745 51.8348905,7.70472993 51.8542482,7.78026277 C51.9032117,7.97459854 52.0227737,8.12376642 52.0637664,8.33366423 C52.0808467,8.39173723 52.2971971,8.75877372 52.3389489,8.52230657 C52.3537518,8.43310949 52.2501314,8.36478832 52.2812555,8.28735766 C52.3074453,8.21220438 52.3992993,8.21865693 52.4270073,8.11693431 C52.4710365,8.10820438 52.507854,8.14578102 52.550365,8.1829781 C52.6031241,8.22928467 52.6646131,8.2759708 52.7595036,8.23270073 C52.8794453,8.17766423 52.8877956,8.16324088 52.9155036,8.32607299 C52.9341022,8.43576642 52.9716788,8.88251095 52.9098102,8.96373723 C52.7784818,9.14137226 52.2254599,9.28560584 52.0451679,9.16870073 C51.7984526,9.01042336 51.4333139,9.12922628 51.5509781,9.49967883 C51.406365,9.53042336 51.2291095,9.50613139 51.1334599,9.38618978 C51.0055474,9.22753285 50.7212555,9.36607299 50.629781,9.19375182 C50.5227445,8.99865693 50.7258102,8.71512409 50.4840292,8.59176642 C50.2737518,8.4870073 49.9492263,8.62516788 49.7249051,8.64680292 C49.3825401,8.68058394 49.0978686,8.93451095 48.7581606,8.93451095 C48.6431533,8.92843796 48.5607883,8.78572263 48.4089635,8.85821898 C48.2347445,8.93830657 48.0320584,9.22411679 47.8828905,9.35962044 C47.8081168,9.42945985 47.7378978,9.58470073 47.7530803,9.68832117 C47.7618102,9.73007299 47.8430365,9.82724088 47.8103942,9.87089051 C47.7716788,9.91719708 47.6118832,9.92364964 47.5538102,9.96464234 C47.4555036,10.036 47.3701022,10.1263358 47.2809051,10.2083212 C47.0926423,10.3567299 47.06,10.5411971 46.8971679,10.705927 C46.7108029,10.8949489 46.665635,11.0388029 46.6037664,11.3010803 C46.5396204,11.571708 46.6978978,11.8347445 46.6049051,12.1118248 C46.5373431,12.3255182 46.4686423,12.4765839 46.6846131,12.6227153 C46.8937518,12.7654307 46.8793285,12.8580438 46.8649051,13.0793285 C46.8482044,13.3321168 47.2300438,13.4759708 47.3898394,13.6232409 C47.5632993,13.7830365 47.7659854,13.7621606 47.9785401,13.7409051 C48.1554161,13.7234453 48.3398832,13.7059854 48.5194161,13.7929051 C48.6348029,13.8487007 48.9369343,13.6870073 49.0568759,13.642219 C49.1904818,13.6122336 49.3244672,13.5830073 49.4554161,13.5461898 C49.5658686,13.5329051 49.5992701,13.7086423 49.66,13.7655766 C49.7480584,13.8517372 49.8539562,13.8498394 49.8748321,13.9936934 C49.8903942,14.1056642 49.8592701,14.226365 49.9158248,14.3318832 C50.0031241,14.5057226 50.2096058,14.4628321 50.2729927,14.6810803 C50.3545985,14.9441168 50.3067737,15.1938686 50.2061898,15.4436204 C50.1010511,15.676292 49.9268321,15.7829489 49.9647883,16.0444672 C49.9898394,16.2224818 50.1056058,16.3712701 50.0258978,16.5492847 C49.8907737,16.8495182 49.8733139,16.9299854 49.9097518,17.2605839 C49.950365,17.7023942 50.5443796,17.2928467 50.7728759,17.1630365 C51.2913577,16.8684964 51.6477664,16.5109489 52.0789489,16.1040584 C52.266073,15.9598248 52.305927,15.7628321 52.4763504,15.6163212 C52.663854,15.4565255 52.9656058,15.2728175 53.0802336,15.0473577 C53.1588029,14.8966715 53.2244672,14.7167591 53.2760876,14.553927 C53.321635,14.4123504 53.2874745,14.2434453 53.3569343,14.113635 C53.4935766,13.8589489 53.5732847,13.5765547 53.6780438,13.3055474 C53.8177226,13.0573139 54.0655766,12.8713285 54.2268905,12.6303066 C54.4068029,12.360438 54.425781,12.0533723 54.4732263,11.7455474 C54.4903066,11.6331971 54.6026569,11.2661606 54.5161168,11.1735474 C54.4705693,11.1211679 54.3840292,11.2566715 54.3028029,11.3917956 C54.2295474,11.5132555 54.1604672,11.6350949 54.1274453,11.6206715 C53.8924964,11.5235036 53.9035036,11.0107153 53.6753869,10.8736934 C53.5459562,10.794365 53.5391241,10.8733139 53.4969927,10.6831533 C53.4510657,10.4793285 53.4225985,10.2667737 53.352,10.0694015 C53.3292263,10.005635 52.9587737,9.57748905 53.0126715,9.54750365 C53.1830949,9.45071533 53.3368175,9.85418978 53.3933723,9.93275912 C53.4468905,10.0075328 53.5527883,9.96805839 53.5706277,10.0443504 C53.5987153,10.1715036 53.6249051,10.3521752 53.7254891,10.4489635 C53.9414599,10.6319124 53.9630949,10.9074745 54.0363504,11.1701314 C54.1638832,11.4327883 54.1494599,11.3170219 54.303562,11.0923212 C54.4705693,10.8494015 54.5028321,10.5085547 54.6091095,10.2424818 C54.7112117,10.0747153 54.7241168,9.95211679 54.7465109,9.75512409 C54.7605547,9.61772263 54.7013431,9.44008759 54.7578978,9.31369343 C54.844438,9.1189781 54.6876788,8.83620438 54.4922044,8.80280292 C54.5149781,8.87188321 54.4508321,9.16832117 54.4367883,9.25751825 C54.2845839,9.29129927 54.2762336,9.03547445 54.2424526,8.95880292 C54.1703358,8.80887591 53.9596788,8.72954745 54.0314161,8.48662774 C54.1384526,8.48662774 54.1862774,8.83354745 54.367708,8.72575182 C54.4386861,8.68248175 54.4383066,8.57544526 54.5377518,8.57772263 C54.6926131,8.58113869 54.719562,8.48093431 54.7677664,8.35871533 C54.8353285,8.34391241 54.8899854,8.58872993 54.936292,8.83430657 C54.9825985,9.07836496 55.0205547,9.32242336 55.0547153,9.30913869 C55.202365,9.23891971 54.9936058,8.41830657 54.9571679,8.2459854 C54.2807883,5.21783942 51.9396496,2.75068613 48.9543942,1.90767883 C48.9984234,2.01964964 49.094073,2.12934307 49.1828905,2.21512409 Z M50.106365,4.98251095 C49.9401168,4.8549781 49.8668613,4.46554745 49.947708,4.27766423 C49.9701022,4.28145985 49.9765547,4.28905109 49.9757956,4.29664234 C50.0794161,4.38318248 50.2122628,4.81056934 50.2862774,4.90925547 C50.388,5.04665693 50.6108029,5.13737226 50.6760876,5.29147445 C50.6688759,5.29109489 50.6669781,5.29413139 50.6715328,5.30020438 C50.6278832,5.31045255 50.5846131,5.30779562 50.5470365,5.30513869 C50.4536642,5.29830657 50.3921752,5.29147445 50.4286131,5.48239416 C50.4494891,5.63232117 50.3944526,5.66989781 50.2487007,5.68052555 C50.1929051,5.68470073 49.9086131,5.80122628 49.9389781,5.6270073 C49.9560584,5.49226277 50.1310365,5.56931387 50.1925255,5.57272993 C50.1450803,5.35486131 50.3101898,5.1400292 50.106365,4.98251095 Z M53.5588613,7.36464234 C53.4434745,7.24735766 53.456,7.09515328 53.3535182,6.9649635 C53.2145985,6.78884672 52.7697518,6.28440876 52.9303066,6.02061314 C52.9322044,6.01529927 52.9356204,6.00846715 52.9424526,5.99935766 C52.9652263,6.00429197 52.9712993,6.01150365 52.969781,6.0179562 C53.0232993,6.07223358 53.0931387,6.23089051 53.1026277,6.27909489 C53.1276788,6.42484672 53.1212263,6.47381022 53.263562,6.61690511 C53.4840876,6.84350365 53.6313577,7.01658394 53.7907737,7.28341606 C53.8484672,7.37944526 53.7900146,7.41778102 53.7144818,7.41778102 C53.6590657,7.41778102 53.5945401,7.39728467 53.5588613,7.36464234 Z M51.8489343,7.06820438 C51.8709489,7.0059562 51.9145985,6.66928467 51.9024526,6.60741606 C51.9855766,6.62905109 51.9908905,6.74216058 52.0732555,6.75810219 C52.131708,6.76835036 52.2061022,6.73039416 52.2641752,6.72242336 C52.4273869,6.67839416 52.6646131,6.83856934 52.7595036,6.98166423 C52.9147445,7.21281752 52.617927,7.1680292 52.4820438,7.19118248 C52.3681752,7.21054015 52.2550657,7.24925547 52.1643504,7.32364964 C52.1184234,7.36084672 52.0451679,7.50583942 52,7.51494891 C51.9764672,7.37564964 51.7927591,7.22837956 51.8489343,7.06820438 Z"/>
        <path fill="#1A1619" d="M38.1869781,10.0610511 C38.1869781,5.41407299 41.9670365,1.63325547 46.6143942,1.63325547 C51.2609927,1.63325547 55.0418102,5.41407299 55.0418102,10.0610511 C55.0418102,14.7080292 51.2609927,18.4892263 46.6143942,18.4892263 C41.9670365,18.4892263 38.1869781,14.7080292 38.1869781,10.0610511 M37.8074161,10.0610511 C37.8074161,14.9171679 41.7582774,18.8684088 46.6143942,18.8684088 C51.4701314,18.8684088 55.4221314,14.9171679 55.4221314,10.0610511 C55.4221314,5.20455474 51.4701314,1.25445255 46.6143942,1.25445255 C41.7582774,1.25445255 37.8074161,5.20455474 37.8074161,10.0610511"/>
        <path fill="#1A1619" d="M37.3580146,10.0610511 C37.3580146,4.95745985 41.5100438,0.805430657 46.6143942,0.805430657 C51.7176058,0.805430657 55.8703942,4.95745985 55.8703942,10.0610511 C55.8703942,15.1646423 51.7176058,19.316292 46.6143942,19.316292 C41.5100438,19.316292 37.3580146,15.1646423 37.3580146,10.0610511 M36.6562044,10.0610511 C36.6562044,15.5525547 41.1232701,20.0196204 46.6143942,20.0196204 C52.1058978,20.0196204 56.5729635,15.5525547 56.5729635,10.0610511 C56.5729635,4.56992701 52.1058978,0.102861314 46.6143942,0.102861314 C41.1232701,0.102861314 36.6562044,4.56992701 36.6562044,10.0610511 M6.80364964,10.109635 L6.82072993,10.109635 C6.81275912,10.1103942 6.80478832,10.1103942 6.79681752,10.1107737 C15.3103942,10.4660438 24.1211679,10.7017518 33.1509489,10.8091679 L33.1509489,10.109635 L33.1509489,9.41086131 C24.1226861,9.51827737 15.3141898,9.7539854 6.80364964,10.109635 M86.1036496,10.109635 L86.1211095,10.109635 C77.6864818,9.7539854 68.9573139,9.51827737 60.0114161,9.41086131 L60.0110365,9.41086131 L60.0110365,10.8091679 C68.9599708,10.7017518 77.6910365,10.4660438 86.1279416,10.1107737 C86.1199708,10.1103942 86.1112409,10.1103942 86.1036496,10.109635"/>
      </g>
    </g>
  </g>
</svg>
