<svg xmlns="http://www.w3.org/2000/svg" xmlns:xlink="http://www.w3.org/1999/xlink" width="115" height="48" viewBox="0 0 115 48">
  <defs>
    <rect id="logo-desk-a" width="120.891" height="49.605"/>
    <radialGradient id="logo-desk-c" r="2.241%" fx="50%" fy="50%" gradientTransform="matrix(.99316 0 0 1 .003 0)">
      <stop offset="0%" stop-color="#61BAE2"/>
      <stop offset="100%" stop-color="#0090CA"/>
    </radialGradient>
    <radialGradient id="logo-desk-d" cx="49.966%" cy="41.25%" r="65.266%" fx="49.966%" fy="41.25%" gradientTransform="matrix(.99174 0 0 1 .004 0)">
      <stop offset="0%" stop-color="#E64525"/>
      <stop offset="100%" stop-color="#E52525"/>
    </radialGradient>
    <radialGradient id="logo-desk-e" cx=".1%" cy=".8%" r="100.833%" fx=".1%" fy=".8%" gradientTransform="matrix(.99174 0 0 1 0 0)">
      <stop offset="0%" stop-color="#E64525"/>
      <stop offset="100%" stop-color="#E52525"/>
    </radialGradient>
    <radialGradient id="logo-desk-f" cx=".1%" cy="1.11%" r="100.833%" fx=".1%" fy="1.11%" gradientTransform="matrix(.99174 0 0 1 0 0)">
      <stop offset="0%" stop-color="#E64525"/>
      <stop offset="100%" stop-color="#E52525"/>
    </radialGradient>
    <radialGradient id="logo-desk-g" cx="50.017%" cy="50.007%" r="53.565%" fx="50.017%" fy="50.007%" gradientTransform="matrix(1 0 0 .7834 0 .108)">
      <stop offset="0%" stop-color="#E64525"/>
      <stop offset="100%" stop-color="#E52525"/>
    </radialGradient>
    <radialGradient id="logo-desk-h" cx="50.005%" cy="49.996%" r="78.158%" fx="50.005%" fy="49.996%" gradientTransform="matrix(.99174 0 0 1 .004 0)">
      <stop offset="0%" stop-color="#E64525"/>
      <stop offset="100%" stop-color="#E52525"/>
    </radialGradient>
    <radialGradient id="logo-desk-i" cx="50.022%" cy="50.007%" r="59.218%" fx="50.022%" fy="50.007%" gradientTransform="matrix(1 0 0 .99554 0 .002)">
      <stop offset="0%" stop-color="#E64525"/>
      <stop offset="100%" stop-color="#E52525"/>
    </radialGradient>
    <radialGradient id="logo-desk-j" cx="50.023%" cy="49.975%" r="67.192%" fx="50.023%" fy="49.975%" gradientTransform="matrix(.99174 0 0 1 .004 0)">
      <stop offset="0%" stop-color="#E64525"/>
      <stop offset="100%" stop-color="#E52525"/>
    </radialGradient>
    <radialGradient id="logo-desk-k" cx="23.141%" cy="27.47%" r="100.833%" fx="23.141%" fy="27.47%" gradientTransform="matrix(.99174 0 0 1 .002 0)">
      <stop offset="0%" stop-color="#E64525"/>
      <stop offset="100%" stop-color="#E52525"/>
    </radialGradient>
    <radialGradient id="logo-desk-l" cx="48.713%" cy="33.58%" r="100.833%" fx="48.713%" fy="33.58%" gradientTransform="matrix(.99174 0 0 1 .004 0)">
      <stop offset="0%" stop-color="#E64525"/>
      <stop offset="100%" stop-color="#E52525"/>
    </radialGradient>
    <radialGradient id="logo-desk-m" cx="49.993%" cy="50.003%" r="25.189%" fx="49.993%" fy="50.003%" gradientTransform="matrix(1 0 0 .74794 0 .126)">
      <stop offset="0%" stop-color="#E64525"/>
      <stop offset="100%" stop-color="#E52525"/>
    </radialGradient>
    <radialGradient id="logo-desk-n" cx="11.5%" cy=".713%" r="100.833%" fx="11.5%" fy=".713%" gradientTransform="matrix(.99174 0 0 1 .001 0)">
      <stop offset="0%" stop-color="#E64525"/>
      <stop offset="100%" stop-color="#E52525"/>
    </radialGradient>
    <radialGradient id="logo-desk-o" cx="5.8%" cy=".306%" r="100.833%" fx="5.8%" fy=".306%" gradientTransform="matrix(.99174 0 0 1 0 0)">
      <stop offset="0%" stop-color="#E64525"/>
      <stop offset="100%" stop-color="#E52525"/>
    </radialGradient>
    <radialGradient id="logo-desk-p" cx="9.2%" cy=".492%" r="100.833%" fx="9.2%" fy=".492%" gradientTransform="matrix(.99174 0 0 1 0 0)">
      <stop offset="0%" stop-color="#E64525"/>
      <stop offset="100%" stop-color="#E52525"/>
    </radialGradient>
    <radialGradient id="logo-desk-q" cx="49.997%" r="4.21%" fx="49.997%" fy="50%" gradientTransform="matrix(1 0 0 .6071 0 .196)">
      <stop offset="0%" stop-color="#E64525"/>
      <stop offset="100%" stop-color="#E52525"/>
    </radialGradient>
    <radialGradient id="logo-desk-r" cx="2.6%" cy=".221%" r="100.833%" fx="2.6%" fy=".221%" gradientTransform="matrix(.99174 0 0 1 0 0)">
      <stop offset="0%" stop-color="#E64525"/>
      <stop offset="100%" stop-color="#E52525"/>
    </radialGradient>
    <radialGradient id="logo-desk-s" cx="10.3%" cy=".583%" r="100.833%" fx="10.3%" fy=".583%" gradientTransform="matrix(.99174 0 0 1 0 0)">
      <stop offset="0%" stop-color="#E64525"/>
      <stop offset="100%" stop-color="#E52525"/>
    </radialGradient>
    <radialGradient id="logo-desk-t" cx="5.602%" cy=".343%" r="100.833%" fx="5.602%" fy=".343%" gradientTransform="matrix(.99174 0 0 1 0 0)">
      <stop offset="0%" stop-color="#E64525"/>
      <stop offset="100%" stop-color="#E52525"/>
    </radialGradient>
    <radialGradient id="logo-desk-u" cx=".1%" cy=".9%" r="100.833%" fx=".1%" fy=".9%" gradientTransform="matrix(.99174 0 0 1 0 0)">
      <stop offset="0%" stop-color="#E64525"/>
      <stop offset="100%" stop-color="#E52525"/>
    </radialGradient>
    <radialGradient id="logo-desk-v" cx="49.999%" r="4.43%" fx="49.999%" fy="50%" gradientTransform="matrix(1 0 0 .55471 0 .223)">
      <stop offset="0%" stop-color="#E64525"/>
      <stop offset="100%" stop-color="#E52525"/>
    </radialGradient>
    <radialGradient id="logo-desk-w" cx="4.1%" cy="18.13%" r="100.833%" fx="4.1%" fy="18.13%" gradientTransform="matrix(.99174 0 0 1 0 0)">
      <stop offset="0%" stop-color="#E64525"/>
      <stop offset="100%" stop-color="#E52525"/>
    </radialGradient>
    <radialGradient id="logo-desk-x" cx="2.6%" cy="11.61%" r="100.833%" fx="2.6%" fy="11.61%" gradientTransform="matrix(.99174 0 0 1 0 0)">
      <stop offset="0%" stop-color="#E64525"/>
      <stop offset="100%" stop-color="#E52525"/>
    </radialGradient>
    <radialGradient id="logo-desk-y" cx="8.1%" cy="36.27%" r="100.833%" fx="8.1%" fy="36.27%" gradientTransform="matrix(.99174 0 0 1 0 0)">
      <stop offset="0%" stop-color="#E64525"/>
      <stop offset="100%" stop-color="#E52525"/>
    </radialGradient>
    <radialGradient id="logo-desk-z" cx="32.354%" cy="21.64%" r="100.833%" fx="32.354%" fy="21.64%" gradientTransform="matrix(.99174 0 0 1 .003 0)">
      <stop offset="0%" stop-color="#E64525"/>
      <stop offset="100%" stop-color="#E52525"/>
    </radialGradient>
    <radialGradient id="logo-desk-A" cx="28.6%" cy="32.25%" r="100.833%" fx="28.6%" fy="32.25%" gradientTransform="matrix(.99174 0 0 1 .002 0)">
      <stop offset="0%" stop-color="#E64525"/>
      <stop offset="100%" stop-color="#E52525"/>
    </radialGradient>
    <radialGradient id="logo-desk-B" cx="14.904%" cy="18.24%" r="100.833%" fx="14.904%" fy="18.24%" gradientTransform="matrix(.99174 0 0 1 .001 0)">
      <stop offset="0%" stop-color="#E64525"/>
      <stop offset="100%" stop-color="#E52525"/>
    </radialGradient>
  </defs>
  <g fill="none" fill-rule="evenodd" transform="translate(-3 -1)">
    <rect width="121" height="50"/>
    <mask id="logo-desk-b" fill="#fff">
      <use xlink:href="#logo-desk-a"/>
    </mask>
    <g mask="url(#logo-desk-b)">
      <g transform="translate(3.091 1.316)">
        <rect width="1" height="3.954" x="4.736" y="42.832" fill="#FFF" fill-rule="nonzero"/>
        <path fill="#FFF" fill-rule="nonzero" d="M9.61243431,46.7855263 L8.11185766,44.4662281 C7.95111314,44.2232456 7.79036861,43.9342105 7.67555109,43.6907895 L7.6680438,43.6907895 C7.68305839,43.9421053 7.6985146,44.2078947 7.6985146,44.6337719 L7.6985146,46.7855263 L7.02506569,46.7855263 L7.02506569,42.8315789 L7.94360584,42.8315789 L9.42121898,45.1127193 C9.5894708,45.3635965 9.75021533,45.6372807 9.88799635,45.9035088 L9.89594526,45.9035088 C9.87298175,45.6451754 9.86503285,45.2192982 9.86503285,44.6337719 L9.85752555,42.8315789 L10.5389234,42.8315789 L10.5389234,46.7855263 L9.61243431,46.7855263 Z"/>
        <polygon fill="#FFF" fill-rule="nonzero" points="13.34 43.41 13.34 46.786 12.644 46.786 12.644 43.41 11.495 43.41 11.495 42.832 14.496 42.832 14.496 43.41"/>
        <polygon fill="#FFF" fill-rule="nonzero" points="15.492 46.786 15.492 42.832 17.743 42.832 17.743 43.371 16.189 43.371 16.189 44.489 17.666 44.489 17.666 45.014 16.189 45.014 16.189 46.23 17.743 46.23 17.743 46.786"/>
        <path fill="#FFF" fill-rule="nonzero" d="M20.2158321 43.3407895C20.0475803 43.3407895 19.9323212 43.3486842 19.8179453 43.3635965L19.8179453 44.6030702C19.9402701 44.6105263 20.0935073 44.6184211 20.2387956 44.6184211 20.7210292 44.6184211 21.0350109 44.352193 21.0350109 43.9421053 21.0350109 43.5390351 20.7210292 43.3407895 20.2158321 43.3407895zM21.126865 46.7855263L19.8484161 45.0899123 19.8179453 45.0899123 19.8179453 46.7855263 19.1210912 46.7855263 19.1210912 42.8315789C19.3816387 42.8162281 19.8329599 42.8087719 20.3081277 42.8087719 21.2341752 42.8087719 21.7702847 43.1736842 21.7702847 43.8732456 21.7702847 44.5425439 21.264646 44.9377193 20.5757409 45.0061404 20.6751022 45.1127193 20.7903613 45.2644737 20.9201934 45.4245614L21.9999197 46.7855263 21.126865 46.7855263zM25.7283978 46.7855263L24.2282628 44.4662281C24.0670766 44.2232456 23.9067737 43.9342105 23.7915146 43.6907895L23.7840073 43.6907895C23.7994635 43.9421053 23.8144781 44.2078947 23.8144781 44.6337719L23.8144781 46.7855263 23.1410292 46.7855263 23.1410292 42.8315789 24.0595693 42.8315789 25.5371825 45.1127193C25.7054343 45.3635965 25.8666204 45.6372807 26.0039599 45.9035088L26.0119088 45.9035088C25.9889453 45.6451754 25.9809964 45.2192982 25.9809964 44.6337719L25.9734891 42.8315789 26.6548869 42.8315789 26.6548869 46.7855263 25.7283978 46.7855263zM29.8017701 44.2078947C29.717865 43.9872807 29.6410255 43.7442982 29.5800839 43.5539474L29.572135 43.5539474C29.5266496 43.7517544 29.4498102 43.9798246 29.3654635 44.2004386L28.875281 45.4473684 30.2840036 45.4473684 29.8017701 44.2078947zM30.7741861 46.7855263L30.460646 45.9565789 28.691573 45.9565789 28.3780328 46.7855263 27.6736715 46.7855263 29.2201752 42.8315789 30.0163905 42.8315789 31.547438 46.7855263 30.7741861 46.7855263z"/>
        <polygon fill="#FFF" fill-rule="nonzero" points="33.446 43.41 33.446 46.786 32.749 46.786 32.749 43.41 31.601 43.41 31.601 42.832 34.602 42.832 34.602 43.41 33.446 43.41"/>
        <rect width="1" height="3.954" x="35.598" y="42.832" fill="#FFF" fill-rule="nonzero"/>
        <path fill="#FFF" fill-rule="nonzero" d="M39.4486496 43.3640351C38.7981642 43.3640351 38.223635 43.8578947 38.223635 44.7859649 38.223635 45.5916667 38.553073 46.245614 39.4256861 46.245614 40.1225401 46.245614 40.6736642 45.7741228 40.6736642 44.8311404 40.6736642 43.8732456 40.198938 43.3640351 39.4486496 43.3640351M39.3797591 46.8464912C38.085854 46.8464912 37.4812956 46.0175439 37.4812956 44.8464912 37.4812956 43.5390351 38.415292 42.7710526 39.5020839 42.7710526 40.6736642 42.7710526 41.4239526 43.4622807 41.4239526 44.770614 41.4239526 46.0934211 40.5054124 46.8464912 39.3797591 46.8464912M45.1987993 46.7855263L43.6982226 44.4662281C43.5374781 44.2232456 43.3767336 43.9342105 43.2619161 43.6907895L43.2544088 43.6907895C43.2694234 43.9421053 43.2848796 44.2078947 43.2848796 44.6337719L43.2848796 46.7855263 42.6114307 46.7855263 42.6114307 42.8315789 43.5299708 42.8315789 45.0075839 45.1127193C45.1758358 45.3635965 45.3365803 45.6372807 45.4743613 45.9035088L45.4818686 45.9035088C45.4593467 45.6451754 45.4513978 45.2192982 45.4513978 44.6337719L45.4438905 42.8315789 46.1252883 42.8315789 46.1252883 46.7855263 45.1987993 46.7855263zM49.2721715 44.2078947C49.1882664 43.9872807 49.111427 43.7442982 49.0504854 43.5539474L49.0425365 43.5539474C48.9966095 43.7517544 48.9202117 43.9798246 48.835865 44.2004386L48.3456825 45.4473684 49.7544051 45.4473684 49.2721715 44.2078947zM50.2445876 46.7855263L49.9306058 45.9565789 48.1619745 45.9565789 47.8479927 46.7855263 47.144073 46.7855263 48.6905766 42.8315789 49.4863504 42.8315789 51.0178394 46.7855263 50.2445876 46.7855263z"/>
        <polygon fill="#FFF" fill-rule="nonzero" points="52.029 46.786 52.029 42.832 52.726 42.832 52.726 46.193 54.149 46.193 54.149 46.786 52.029 46.786"/>
        <polygon fill="#FFF" fill-rule="nonzero" points="58.038 43.41 58.038 46.786 57.341 46.786 57.341 43.41 56.193 43.41 56.193 42.832 59.194 42.832 59.194 43.41"/>
        <path fill="#FFF" fill-rule="nonzero" d="M61.6278613 43.3640351C60.9773759 43.3640351 60.4028467 43.8578947 60.4028467 44.7859649 60.4028467 45.5916667 60.7318431 46.245614 61.6048978 46.245614 62.3017518 46.245614 62.8524343 45.7741228 62.8524343 44.8311404 62.8524343 43.8732456 62.3781496 43.3640351 61.6278613 43.3640351M61.5589708 46.8464912C60.2650657 46.8464912 59.6605073 46.0175439 59.6605073 44.8464912 59.6605073 43.5390351 60.5945036 42.7710526 61.6817372 42.7710526 62.8524343 42.7710526 63.6031642 43.4622807 63.6031642 44.770614 63.6031642 46.0934211 62.6841825 46.8464912 61.5589708 46.8464912M66.4440146 46.8464912C65.3417664 46.8464912 64.7676788 46.329386 64.7676788 45.4166667L64.7676788 42.8315789 65.4640912 42.8315789 65.4640912 45.2951754C65.4640912 45.9719298 65.8394562 46.2758772 66.4978905 46.2758772 67.2486204 46.2758772 67.5241825 45.8578947 67.5241825 45.227193L67.5241825 42.8315789 68.2130876 42.8315789 68.2130876 45.2798246C68.2130876 46.1241228 67.6999416 46.8464912 66.4440146 46.8464912M70.8693467 43.3407895C70.7010949 43.3407895 70.5862774 43.3486842 70.4710182 43.3635965L70.4710182 44.6030702C70.5937847 44.6105263 70.7470219 44.6184211 70.8923102 44.6184211 71.3745438 44.6184211 71.6885255 44.352193 71.6885255 43.9421053 71.6885255 43.5390351 71.3745438 43.3407895 70.8693467 43.3407895zM71.7803796 46.7855263L70.5019307 45.0899123 70.4710182 45.0899123 70.4710182 46.7855263 69.7750474 46.7855263 69.7750474 42.8315789C70.0351533 42.8162281 70.4864745 42.8087719 70.9612007 42.8087719 71.8876898 42.8087719 72.4233577 43.1736842 72.4233577 43.8732456 72.4233577 44.5425439 71.9181606 44.9377193 71.2296971 45.0061404 71.3290584 45.1127193 71.4434343 45.2644737 71.573708 45.4245614L72.6534343 46.7855263 71.7803796 46.7855263zM76.382354 46.7855263L74.8817774 44.4662281C74.7210328 44.2232456 74.5598467 43.9342105 74.4454708 43.6907895L74.4379635 43.6907895C74.4529781 43.9421053 74.4679927 44.2078947 74.4679927 44.6337719L74.4679927 46.7855263 73.7945438 46.7855263 73.7945438 42.8315789 74.7130839 42.8315789 76.1906971 45.1127193C76.3593905 45.3635965 76.520135 45.6372807 76.6574745 45.9035088L76.6649818 45.9035088C76.6424599 45.6451754 76.6345109 45.2192982 76.6345109 44.6337719L76.6270036 42.8315789 77.3084015 42.8315789 77.3084015 46.7855263 76.382354 46.7855263zM80.4557263 44.2078947C80.3713796 43.9872807 80.2949818 43.7442982 80.2335985 43.5539474L80.2260912 43.5539474C80.1801642 43.7517544 80.1037664 43.9798246 80.0194197 44.2004386L79.5296788 45.4473684 80.9379599 45.4473684 80.4557263 44.2078947zM81.4281423 46.7855263L81.1141606 45.9565789 79.3459708 45.9565789 79.0319891 46.7855263 78.3276277 46.7855263 79.8736898 42.8315789 80.6703467 42.8315789 82.2013942 46.7855263 81.4281423 46.7855263zM87.2772117 46.7855263L86.9636715 44.5881579C86.9097956 44.1697368 86.8793248 43.8578947 86.8563613 43.6372807L86.848854 43.6372807C86.8024854 43.8425439 86.7335949 44.0864035 86.6421825 44.3447368L85.8075474 46.7855263 85.0647664 46.7855263 84.2990219 44.5118421C84.1996606 44.2307018 84.092792 43.8960526 84.046865 43.6451754L84.0389161 43.6451754C84.0239015 43.9491228 83.9850401 44.2535088 83.9395547 44.6184211L83.6560438 46.7855263 82.9596314 46.7855263 83.5646314 42.8315789 84.4297372 42.8315789 85.2489161 45.2267544C85.3328212 45.4850877 85.4171679 45.7434211 85.4630949 45.979386L85.4706022 45.979386C85.5244781 45.7057018 85.5854197 45.5157895 85.6772737 45.2495614L86.5194161 42.8315789 87.4304489 42.8315789 88.0124854 46.7855263 87.2772117 46.7855263z"/>
        <polygon fill="#FFF" fill-rule="nonzero" points="89.414 46.786 89.414 42.832 91.665 42.832 91.665 43.371 90.111 43.371 90.111 44.489 91.588 44.489 91.588 45.014 90.111 45.014 90.111 46.23 91.665 46.23 91.665 46.786"/>
        <path fill="#FFF" fill-rule="nonzero" d="M95.6310693,46.7855263 L94.1304927,44.4662281 C93.9697482,44.2232456 93.8090036,43.9342105 93.6941861,43.6907895 L93.6866788,43.6907895 C93.7016934,43.9421053 93.716708,44.2078947 93.716708,44.6337719 L93.716708,46.7855263 L93.0437007,46.7855263 L93.0437007,42.8315789 L93.9622409,42.8315789 L95.439854,45.1127193 C95.6081058,45.3635965 95.7684088,45.6372807 95.9066314,45.9035088 L95.9141387,45.9035088 C95.8911752,45.6451754 95.8836679,45.2192982 95.8836679,44.6337719 L95.875719,42.8315789 L96.5571168,42.8315789 L96.5571168,46.7855263 L95.6310693,46.7855263 Z"/>
        <polygon fill="#FFF" fill-rule="nonzero" points="99.359 43.41 99.359 46.786 98.662 46.786 98.662 43.41 97.514 43.41 97.514 42.832 100.515 42.832 100.515 43.41"/>
        <path fill="#FFF" fill-rule="nonzero" d="M102.091763,46.8539474 C101.800303,46.8539474 101.456292,46.8083333 101.233723,46.7552632 L101.264635,46.1087719 C101.501777,46.2153509 101.831215,46.2684211 102.175668,46.2684211 C102.59696,46.2684211 103.01781,46.0934211 103.01781,45.6372807 C103.01781,44.854386 101.14231,45.2346491 101.14231,43.9644737 C101.14231,43.2425439 101.723905,42.7710526 102.734741,42.7710526 C102.971883,42.7710526 103.285865,42.7934211 103.5155,42.8390351 L103.485029,43.4403509 C103.270409,43.3714912 102.940971,43.3254386 102.696321,43.3254386 C102.129741,43.3254386 101.877142,43.5460526 101.877142,43.8885965 C101.877142,44.6565789 103.76015,44.3065789 103.76015,45.5614035 C103.76015,46.3596491 103.048723,46.8539474 102.091763,46.8539474"/>
        <polygon fill="#FFF" fill-rule="nonzero" points=".406 38.982 .406 31.193 5.232 31.193 5.232 32.706 2.351 32.706 2.351 34.263 5.096 34.263 5.096 35.731 2.351 35.731 2.351 37.439 5.232 37.439 5.232 38.982"/>
        <path fill="#FFF" fill-rule="nonzero" d="M11.0224818 39.1162281C8.63913504 39.1162281 7.50818248 38.0078947 7.50818248 36.2403509L7.50818248 31.1925439 9.45389781 31.1925439 9.45389781 35.8061404C9.45389781 37.004386 10.0271022 37.5131579 11.1280255 37.5131579 12.3190365 37.5131579 12.7871387 36.8548246 12.7871387 35.7311404L12.7871387 31.1925439 14.7019416 31.1925439 14.7019416 35.9710526C14.7019416 37.7083333 13.6014599 39.1162281 11.0224818 39.1162281M19.812646 32.6153509C19.6015584 32.6153509 19.4054854 32.6307018 19.224427 32.645614L19.224427 34.6372807C19.4205 34.6675439 19.6620584 34.6675439 19.873146 34.6675439 20.6269672 34.6675439 21.1096423 34.2337719 21.1096423 33.5894737 21.1096423 32.975 20.6119526 32.6153509 19.812646 32.6153509zM21.2302007 38.9815789L19.2999416 35.9407895 19.224427 35.9407895 19.224427 38.9815789 17.2791533 38.9815789 17.2791533 31.1925439C17.9128577 31.1627193 19.1038686 31.147807 20.0992482 31.147807 22.0299489 31.147807 23.1759161 31.8815789 23.1759161 33.3942982 23.1759161 34.5925439 22.4066387 35.3416667 21.2756861 35.6114035 21.4262737 35.8210526 21.6378029 36.1355263 21.8634635 36.4653509L23.5980912 38.9815789 21.2302007 38.9815789zM28.8152226 32.7504386C27.7597847 32.7504386 26.8249051 33.5442982 26.8249051 35.0570175 26.8249051 36.4201754 27.4431533 37.4087719 28.7701788 37.4087719 29.8711022 37.4087719 30.821438 36.6899123 30.821438 35.1017544 30.821438 33.5596491 30.0066752 32.7504386 28.8152226 32.7504386M28.664635 39.1162281C26.1006715 39.1162281 24.7436168 37.5434211 24.7436168 35.1767544 24.7436168 32.6307018 26.7343759 31.0578947 28.9512372 31.0578947 31.1831131 31.0578947 32.9022847 32.3162281 32.9022847 34.9969298 32.9022847 37.5583333 30.9419964 39.1162281 28.664635 39.1162281"/>
        <rect width="3.71" height="1.528" x="34.319" y="34.413" fill="#FFF" fill-rule="nonzero"/>
        <path fill="#FFF" fill-rule="nonzero" d="M41.3616861 39.1460526C40.8639964 39.1460526 40.2612044 39.0714912 39.823573 38.9666667L39.898646 37.2587719C40.351292 37.4385965 40.9395109 37.5434211 41.5577591 37.5434211 42.2064781 37.5434211 42.7492117 37.2438596 42.7492117 36.6596491 42.7492117 35.4767544 39.5970292 36.1350877 39.5970292 33.5890351 39.5970292 32.0614035 40.7584526 31.0425439 42.9152555 31.0425439 43.3374307 31.0425439 43.9101934 31.1030702 44.3478248 31.1627193L44.2877664 32.7807018C43.8655912 32.6605263 43.2923869 32.5855263 42.8397409 32.5855263 42.0104051 32.5855263 41.6633029 32.9 41.6633029 33.3798246 41.6633029 34.4877193 44.8759854 34.0236842 44.8759854 36.4201754 44.8759854 38.0526316 43.5485182 39.1460526 41.3616861 39.1460526M49.6254562 32.6903509C49.399354 32.6903509 49.1127518 32.6903509 48.9316934 32.7057018L48.9316934 35.027193C49.0827226 35.0570175 49.3538686 35.0719298 49.534927 35.0719298 50.3792774 35.0719298 50.9374672 34.6372807 50.9374672 33.8587719 50.9374672 33.2149123 50.5002774 32.6903509 49.6254562 32.6903509M49.5799708 36.5995614C49.4143686 36.5995614 49.0977372 36.5846491 48.9316934 36.5701754L48.9316934 38.9815789 46.9859781 38.9815789 46.9859781 31.1925439C47.6801825 31.1627193 48.7961204 31.1482456 49.7610292 31.1482456 51.8273029 31.1482456 53.0037409 32.0912281 53.0037409 33.7539474 53.0037409 35.5065789 51.5707299 36.5995614 49.5799708 36.5995614M58.2813723 32.7504386C57.2254927 32.7504386 56.2910547 33.5442982 56.2910547 35.0570175 56.2910547 36.4201754 56.9088613 37.4087719 58.2358869 37.4087719 59.3368102 37.4087719 60.287146 36.6899123 60.287146 35.1017544 60.287146 33.5596491 59.4728248 32.7504386 58.2813723 32.7504386M58.1307847 39.1162281C55.5668212 39.1162281 54.2093248 37.5434211 54.2093248 35.1767544 54.2093248 32.6307018 56.2000839 31.0578947 58.4169453 31.0578947 60.6492628 31.0578947 62.3688759 32.3162281 62.3688759 34.9969298 62.3688759 37.5583333 60.4077044 39.1162281 58.1307847 39.1162281M66.8313029 32.6153509C66.6202153 32.6153509 66.4237007 32.6307018 66.2435255 32.645614L66.2435255 34.6372807C66.4391569 34.6675439 66.6807153 34.6675439 66.8913613 34.6675439 67.6456241 34.6675439 68.1287409 34.2337719 68.1287409 33.5894737 68.1287409 32.975 67.6310511 32.6153509 66.8313029 32.6153509zM68.2488577 38.9815789L66.3181569 35.9407895 66.2435255 35.9407895 66.2435255 38.9815789 64.2978102 38.9815789 64.2978102 31.1925439C64.931073 31.1627193 66.1225255 31.147807 67.1179051 31.147807 69.0486058 31.147807 70.194573 31.8815789 70.194573 33.3942982 70.194573 34.5925439 69.4257372 35.3416667 68.2939015 35.6114035 68.4453723 35.8210526 68.6564599 36.1355263 68.882562 36.4653509L70.6167482 38.9815789 68.2488577 38.9815789z"/>
        <polygon fill="#FFF" fill-rule="nonzero" points="75.381 32.84 75.381 38.982 73.436 38.982 73.436 32.84 71.385 32.84 71.385 31.193 77.432 31.193 77.432 32.84 75.381 32.84"/>
        <path fill="#FFF" fill-rule="nonzero" d="M81.6542445,32.6153509 C81.4431569,32.6153509 81.2475255,32.6307018 81.0664672,32.645614 L81.0664672,34.6372807 C81.2620985,34.6675439 81.5036569,34.6675439 81.7147445,34.6675439 C82.4690073,34.6675439 82.9512409,34.2337719 82.9512409,33.5894737 C82.9512409,32.975 82.4539927,32.6153509 81.6542445,32.6153509 Z M83.0722409,38.9815789 L81.1419818,35.9407895 L81.0664672,35.9407895 L81.0664672,38.9815789 L79.1207518,38.9815789 L79.1207518,31.1925439 C79.7544562,31.1627193 80.9454672,31.147807 81.9408467,31.147807 C83.8711058,31.147807 85.0175146,31.8815789 85.0175146,33.3942982 C85.0175146,34.5925439 84.2486788,35.3416667 83.1168431,35.6114035 C83.2683139,35.8210526 83.4794015,36.1355263 83.7055036,36.4653509 L85.4396898,38.9815789 L83.0722409,38.9815789 Z"/>
        <rect width="1.946" height="7.789" x="87.233" y="31.193" fill="#FFF" fill-rule="nonzero"/>
        <path fill="#FFF" fill-rule="nonzero" d="M96.7779197 38.9815789L94.4254854 35.1767544C94.1534562 34.7425439 93.8823102 34.1885965 93.6857956 33.7539474L93.6712226 33.7539474C93.7012518 34.1285088 93.716708 34.5179825 93.716708 35.1320175L93.716708 38.9815789 91.8465073 38.9815789 91.8465073 31.1925439 94.455073 31.1925439 96.7324343 34.9074561C97.0340511 35.3719298 97.3056387 35.8662281 97.5467555 36.3899123L97.5617701 36.3899123C97.5317409 35.9258772 97.5167263 35.2815789 97.5167263 34.472807L97.5021533 31.1925439 99.386927 31.1925439 99.386927 38.9815789 96.7779197 38.9815789zM105.387909 39.1162281C103.065062 39.1162281 101.331318 37.8131579 101.331318 35.2368421 101.331318 32.9153509 102.95996 31.0578947 105.734569 31.0578947 106.579361 31.0578947 107.439168 31.1780702 108.283518 31.4473684L107.921843 33.1100877C107.22808 32.8254386 106.533876 32.6754386 105.780055 32.6754386 104.407544 32.6754386 103.39715 33.5442982 103.39715 35.0872807 103.39715 36.5850877 104.271529 37.4083333 105.553511 37.4083333 105.885599 37.4083333 106.217686 37.3640351 106.488832 37.2741228L106.488832 34.8324561 108.434547 34.8324561 108.434547 38.5469298C107.499226 38.9065789 106.504288 39.1162281 105.387909 39.1162281M112.56577 30.6346491L112.013321 30.6346491 112.013321 31.2258772 112.56577 31.2258772C112.756985 31.2258772 112.900949 31.1359649 112.900949 30.9302632 112.900949 30.7350877 112.756985 30.6346491 112.56577 30.6346491M112.816161 31.5315789L113.245843 32.3701754 112.826318 32.3701754 112.417391 31.5688596 112.013321 31.5688596 112.013321 32.3701754 111.657828 32.3701754 111.657828 30.2912281 112.576369 30.2912281C112.948642 30.2912281 113.261741 30.4868421 113.261741 30.9197368 113.261741 31.2469298 113.086423 31.4526316 112.816161 31.5315789M112.385595 29.7692982C111.471912 29.7692982 110.775942 30.4605263 110.775942 31.3684211 110.775942 32.2758772 111.471912 32.9666667 112.385595 32.9666667 113.298836 32.9666667 113.994807 32.2758772 113.994807 31.3684211 113.994807 30.4605263 113.298836 29.7692982 112.385595 29.7692982M112.385595 33.272807C111.296595 33.272807 110.467701 32.4495614 110.467701 31.3684211 110.467701 30.2864035 111.296595 29.4631579 112.385595 29.4631579 113.474595 29.4631579 114.303047 30.2864035 114.303047 31.3684211 114.303047 32.4495614 113.474595 33.272807 112.385595 33.272807"/>
        <path fill="url(#logo-desk-c)" fill-rule="nonzero" d="M52.0993321,2.07061404 C46.7550182,3.25833333 43.3917482,8.525 44.5867336,13.8328947 C45.7830438,19.1412281 51.0849635,22.4824561 56.4306022,21.2942982 C61.7753577,20.1070175 65.1395109,14.8403509 63.9427591,9.53245614 C62.9094015,4.94736842 58.8143905,1.83114035 54.2733577,1.83114035 C53.5561898,1.83114035 52.8279818,1.90877193 52.0993321,2.07061404 Z"/>
        <path fill="url(#logo-desk-d)" fill-rule="nonzero" d="M55.1583358,5.33141447 C55.4082847,5.44078947 55.4193248,5.15766447 55.5862518,5.09328947 C55.5372336,5.08766447 55.0965109,4.85953947 55.0598577,4.84078947 C54.8010766,5.20578947 54.900438,5.22016447 55.1583358,5.33141447 Z M55.5862518,5.09328947 C55.5889015,5.09391447 55.5906679,5.09328947 55.5906679,5.09141447 C55.5889015,5.09203947 55.5875766,5.09266447 55.5862518,5.09328947 Z"/>
        <path fill="url(#logo-desk-e)" fill-rule="nonzero" d="M56.2614028,6.29966009 C56.2601423,6.29216009 56.2601423,6.28903509 56.2601423,6.28903509 C56.2601423,6.28903509 56.2601423,6.29341009 56.2614028,6.29966009 Z"/>
        <path fill="url(#logo-desk-f)" fill-rule="nonzero" d="M56.2616558,6.31086623 C56.2610255,6.30211623 56.2610255,6.30024123 56.2610255,6.29649123 C56.2610255,6.30336623 56.2616558,6.31086623 56.2616558,6.31086623 Z"/>
        <path fill="url(#logo-desk-g)" fill-rule="nonzero" d="M56.2614672,6.30657895 C56.3153431,6.41754386 56.6500803,6.91885965 56.5061168,7.02017544 C56.4239781,7.07807018 56.3515547,7.4372807 56.4094051,7.52149123 C56.4862445,7.63070175 56.8624927,7.43421053 56.9331496,7.38684211 C57.0386934,7.31622807 57.1221569,7.19824561 57.0691642,7.07192982 C57.0298613,6.97807018 56.9128358,7.04166667 56.8770657,6.96491228 C56.8055255,6.79868421 56.7724051,6.66403509 56.7472336,6.47982456 C56.7370766,6.41140351 56.4875693,5.94517544 56.480062,5.94561404 C56.480062,5.94561404 56.480062,5.94517544 56.480062,5.94517544 C56.4699051,5.94517544 56.2513102,6.19561404 56.2614672,6.30657895 Z"/>
        <path fill="url(#logo-desk-h)" fill-rule="nonzero" d="M55.8253296,6.9127193 C55.7520566,7.12850877 55.8131174,7.19210526 56.0397753,7.22412281 C56.1443115,7.23947368 56.5101881,7.18026316 56.2214924,7.09605263 C56.2229579,7.09561404 56.274249,7.01491228 56.3245631,6.93464912 C56.3758542,6.85394737 56.4261684,6.77324561 56.4261684,6.77324561 C56.3787852,6.68464912 56.3299365,6.59692982 56.2825533,6.50833333 C56.1643395,6.70131579 55.9152112,6.6495614 55.8253296,6.9127193 Z M56.4256799,6.77324561 L56.4251914,6.77324561 L56.4256799,6.77324561 Z M56.4203065,6.77631579 C56.4183526,6.77719298 56.4163987,6.77850877 56.4139562,6.77938596 C56.4159102,6.77850877 56.4178641,6.77763158 56.4203065,6.77631579 Z"/>
        <path fill="url(#logo-desk-i)" fill-rule="nonzero" d="M46.0338759,8.50175439 C46.0060547,8.53991228 46.0007555,8.55657895 46.0060547,8.56184211 C45.9243577,8.78245614 46.3112044,8.92105263 46.2922153,9.12938596 C46.2842664,9.3504386 46.0232774,9.49035088 46.0413832,9.67105263 C46.0555146,9.81052632 46.1606168,9.72412281 46.2502628,9.6372807 C46.3081131,9.58157895 46.3593394,9.5254386 46.376562,9.52938596 C46.4697409,9.55350877 46.5611533,9.93289474 46.6998175,9.66403509 C46.739562,9.58552632 46.7651752,9.14473684 46.7033504,9.09166667 C46.5677774,8.97631579 46.5426058,8.73552632 46.679062,8.61973684 C46.8543796,8.47061404 46.5629197,8.44824561 46.4710657,8.66447368 C46.3513905,8.65877193 46.2772007,8.49385965 46.1023248,8.49385965 C46.0811277,8.49385965 46.0586058,8.49649123 46.0338759,8.50175439 Z"/>
        <path fill="url(#logo-desk-j)" fill-rule="nonzero" d="M46.478573,9.85918615 C46.1888796,10.0622867 46.6291606,10.0214789 46.6830365,10.2058173 C46.7647336,10.4867808 46.7523686,10.4778688 47.0433869,10.4670805 C47.0433869,10.0777655 46.9223869,9.84605263 46.6154708,9.84605263 C46.5735182,9.84605263 46.5275912,9.85027412 46.478573,9.85918615 Z"/>
        <path fill="url(#logo-desk-k)" fill-rule="nonzero" d="M47.2170898,10.430636 C46.9353867,10.945011 47.2656159,10.773136 47.3683398,10.601261 C47.4200169,10.515011 47.4149752,10.429386 47.2467096,10.429386 C47.2372565,10.429386 47.2271732,10.429386 47.2170898,10.430636 Z"/>
        <path fill="url(#logo-desk-l)" fill-rule="nonzero" d="M59.0235698,9.59460526 C59.0229396,9.59210526 59.0147469,9.59210526 58.9876479,9.59773026 C58.7298927,9.85398026 59.3474969,10.0752303 59.4344656,9.99585526 C59.735075,9.72210526 59.3210281,9.59210526 59.081549,9.59210526 C59.0601219,9.59210526 59.0412156,9.59273026 59.0235698,9.59460526 Z"/>
        <path fill="url(#logo-desk-m)" fill-rule="nonzero" d="M62.7367336,16.1732456 C62.5517007,16.3460526 62.4611715,16.5412281 62.3132336,16.7434211 C62.1507226,16.9644737 61.9718723,17.1736842 61.8159854,17.3995614 C61.7241314,17.5328947 61.7055839,17.6732456 61.5978321,17.8083333 C61.5183431,17.9074561 61.3249197,18.0767544 61.3430255,18.2184211 C61.3606898,18.3596491 61.5050949,18.3789474 61.6119635,18.2903509 C61.6759964,18.2368421 61.6861533,18.1425439 61.7400292,18.0811404 C61.7859562,18.0280702 61.8663285,17.995614 61.9188796,17.9447368 C62.0933139,17.777193 62.2297701,17.575 62.3697591,17.3802632 C62.5733394,17.0969298 62.7318759,16.7846491 62.9107263,16.4859649 C62.9707847,16.3855263 63.2255912,16.0491228 63.009646,16.0026316 C63.0016971,16.0008772 62.9937482,16 62.9857993,16 C62.8899708,16 62.7954672,16.1184211 62.7367336,16.1732456 Z"/>
        <path fill="url(#logo-desk-n)" fill-rule="nonzero" d="M54.6976857,1.84547149 C54.6548315,1.84297149 54.6163888,1.84047149 54.5842482,1.83859649 C54.6208003,1.84109649 54.659243,1.84359649 54.6976857,1.84547149 Z M54.7291961,1.84734649 C54.7184826,1.84609649 54.7083992,1.84609649 54.6976857,1.84547149 C54.707769,1.84609649 54.7184826,1.84609649 54.7291961,1.84734649 Z"/>
        <path fill="url(#logo-desk-o)" fill-rule="nonzero" d="M54.6063147,1.83971491 C54.5792157,1.83846491 54.5546376,1.83721491 54.5325803,1.83596491 C54.552747,1.83721491 54.5792157,1.83846491 54.6063147,1.83971491 Z"/>
        <path fill="url(#logo-desk-p)" fill-rule="nonzero" d="M54.7990342,1.85125 C54.7914717,1.850625 54.7839092,1.850625 54.7763467,1.85 C54.7839092,1.850625 54.7921019,1.850625 54.7990342,1.85125 Z M54.892305,1.85625 C54.892305,1.85625 54.8538623,1.85375 54.7990342,1.85125 C54.828654,1.8525 54.8570134,1.854375 54.892305,1.85625 Z"/>
        <path fill="url(#logo-desk-q)" fill-rule="nonzero" d="M47.9906314,4.07236842 C47.1343577,4.77149123 46.3982007,5.61447368 45.8210219,6.55394737 C45.7530146,6.66447368 45.5966861,6.82236842 45.6355474,6.96491228 C45.6730839,7.1004386 45.633781,7.3377193 45.5869708,7.4754386 C45.5207299,7.66184211 45.3246569,7.76184211 45.3043431,7.9622807 C45.3109672,8.26754386 45.331281,8.57192982 45.2910949,8.8745614 C45.2910949,9.10657895 45.2407518,9.30175439 45.2906533,9.53289474 C45.3568942,9.84078947 45.312292,9.91008772 45.2213212,10.2004386 C45.1272591,10.5004386 45.2743139,10.6517544 45.302135,10.9320175 C45.3008102,11.0263158 45.3454124,11.0780702 45.4346168,11.0855263 C45.571073,11.1057018 45.5370693,11.3416667 45.5282372,11.4350877 C45.5141058,11.5833333 45.5869708,11.9105263 45.4898175,12.0324561 C45.3405547,12.2109649 45.1272591,12.2618421 45.0976715,12.5232456 C45.041146,13.0140351 45.087073,13.4969298 45.1776022,13.9811404 C45.2787299,14.5219298 45.4178358,14.9377193 45.7128285,15.395614 C45.9526204,15.8412281 45.98,16.2776316 46.178281,16.7188596 C46.3081131,16.9671053 46.3800949,17.2105263 46.4860803,17.4649123 C46.5540876,17.6004386 46.5152263,17.7245614 46.5691022,17.8570175 C46.9418175,18.3140351 47.3697336,18.7057018 47.7870511,19.1166667 C47.8687482,19.1 47.8475511,18.9614035 47.8713978,18.9144737 C47.8864124,18.8802632 47.9257153,18.9092105 47.9720839,18.9385965 C48.0259599,18.9723684 48.0895511,19.0065789 48.1354781,18.9399123 C48.2564781,18.7618421 48.4719818,18.825 48.5700182,18.6833333 C48.6287518,18.5925439 48.7391533,18.6600877 48.7223723,18.5114035 C48.7064745,18.3785088 48.7528431,18.1557018 48.9458248,18.1964912 C49.0694745,18.222807 49.053135,18.1578947 49.1524964,18.1416667 C49.3048504,18.1640351 49.3375292,18.3447368 49.5340438,18.2377193 C49.7491058,18.1188596 49.8444927,17.7828947 49.9345803,17.5736842 C49.9990547,17.4245614 50.0233431,17.3184211 50.0083285,17.1600877 C49.9994964,17.0692982 50.1938029,16.9600877 50.2503285,16.9035088 C50.5254489,16.6333333 50.744927,16.622807 50.6274599,16.1899123 C50.5497372,15.9070175 50.241938,15.8096491 50.0485146,15.6118421 C49.8193212,15.4232456 49.5742299,15.2298246 49.3286971,15.0635965 C49.0001423,14.8416667 48.6353759,14.8192982 48.4247299,14.4491228 C48.3456825,14.3100877 48.3553978,14.1508772 48.2807664,14.0162281 C48.1995109,13.8684211 48.049365,13.7701754 47.9654599,13.6188596 C47.8506423,13.4109649 47.7954416,13.4995614 47.615708,13.3921053 C47.4571715,13.2964912 47.4876423,13.0986842 47.4249343,12.9504386 C47.3794489,12.8451754 47.281854,12.7719298 47.2513832,12.6596491 C47.2103139,12.5092105 47.3004015,12.4333333 47.1727774,12.3070175 C47.0451533,12.1855263 47.1643869,11.9842105 47.0279307,11.8657895 C46.9493248,11.7947368 46.8027117,11.8561404 46.7015839,11.7776316 C46.4313212,11.5657895 46.718365,11.5096491 46.6167956,11.3074561 C46.5911825,11.2561404 46.5342153,11.2745614 46.4759234,11.2929825 C46.4110073,11.3135965 46.3447664,11.3342105 46.3218029,11.2561404 C46.297073,11.175 46.3558066,11.0789474 46.309438,11.0057018 C46.2171423,11.0258772 45.8956533,11.0114035 45.8581168,11.0802632 C45.7490401,11.2820175 45.6735255,11.0197368 45.590062,10.9350877 C45.4628796,10.8004386 45.2796131,10.8188596 45.2963942,10.5719298 C45.312292,10.3403509 45.4721533,10.179386 45.5238212,9.96929825 C45.5980109,9.76184211 45.633781,9.57938596 45.5790219,9.3627193 C45.5035073,9.06184211 45.7137117,8.91052632 45.8104234,8.65 C45.8718066,8.48377193 45.9755839,8.38552632 45.8841715,8.20482456 C45.7543394,7.94912281 45.6805912,8.36359649 45.5617993,8.36754386 C45.3780912,8.36578947 45.7834854,7.34736842 45.8179307,7.28947368 C45.9168504,7.12675439 46.0824526,6.89254386 46.2498212,6.7995614 C46.5214088,6.64736842 46.4132153,6.97631579 46.4874051,7.10877193 C46.4874051,7.10877193 46.6976095,6.97807018 46.7015839,7.21140351 C46.7042336,7.36140351 46.8724854,7.33421053 46.8071277,7.45921053 C46.6976095,7.67280702 46.7095328,7.97894737 46.5774927,8.16052632 C46.4838723,8.29078947 46.6035474,8.36842105 46.6591898,8.19035088 C46.7726825,7.82850877 47.0226314,7.45087719 47.3529526,7.23552632 C47.5428431,7.11754386 48.0648212,7.22982456 47.9054015,6.81973684 C47.9257153,6.81622807 48.051573,6.71842105 48.0162445,6.74912281 C48.0899927,6.68464912 48.1076569,6.70657895 48.1301788,6.72894737 C48.1460766,6.74429825 48.1637409,6.75921053 48.2034854,6.74517544 C48.2878321,6.72631579 48.3152117,6.60526316 48.402208,6.58026316 C48.5161423,6.54649123 48.7263467,6.55 48.8455803,6.56447368 C49.0456277,6.58859649 49.0063248,6.47149123 49.1158431,6.37236842 C49.174135,6.31885965 49.3516606,6.27938596 49.4267336,6.25921053 C49.518146,6.23377193 49.6298723,6.22850877 49.6634343,6.34254386 C49.714219,6.5122807 49.5490584,6.46666667 49.4413066,6.50438596 C49.4567628,6.57631579 49.9579854,6.58552632 50.0339416,6.5745614 C50.2927226,6.53552632 49.8851204,6.37236842 49.8952774,6.32850877 C49.9579854,6.08421053 49.9363467,6.02061404 50.1924781,5.99561404 C50.4212299,5.97324561 50.0493978,5.74736842 49.9893394,5.7245614 C49.9628431,5.59692982 50.241938,5.61842105 50.2975803,5.625 C50.488354,5.65087719 50.4291788,5.80307018 50.5272153,5.82982456 C50.7519927,5.89122807 51.4603285,5.77675439 50.8888905,6.1245614 C50.7917372,6.18421053 50.5351642,6.24517544 50.5771168,6.40877193 C50.5969891,6.49122807 50.7612664,6.66359649 50.8385474,6.69649123 C51.0531679,6.78859649 51.1542956,6.6504386 51.2046387,6.45657895 C51.2554234,6.26403509 51.0191642,6.32587719 50.9922263,6.22105263 C51.2854526,6.1245614 51.5080219,5.78552632 51.4254416,5.48026316 C51.3653832,5.25964912 51.2130292,5.02719298 51.4528212,4.86491228 C51.5256861,4.81622807 51.8326022,4.64166667 51.7743102,4.54780702 C51.4364818,4.62280702 51.3419781,4.53333333 51.487708,4.19780702 C51.5115547,4.14385965 51.3154818,3.5254386 51.6312299,3.76754386 C51.8153796,3.90921053 51.6484526,4.44166667 52.0847591,4.22938596 C52.3563467,4.1 52.0918248,3.82017544 52.3771022,3.7372807 C52.3965328,3.79254386 52.3135109,3.93333333 52.3718029,3.96447368 C52.4455511,4.00307018 52.5873066,3.94385965 52.6478066,3.90394737 C52.7551168,3.83333333 52.6138029,3.77850877 52.6447153,3.68684211 C52.6637044,3.61710526 52.7242044,3.6254386 52.7900036,3.63377193 C52.8540365,3.64210526 52.9238102,3.65 52.9648796,3.58464912 C53.1114927,3.35175439 52.862427,3.39342105 52.8257737,3.24824561 C52.9609051,3.17894737 53.0505511,3.14035088 53.2042299,3.10350877 C53.3353869,3.07105263 53.3844051,2.92017544 53.4784672,2.89517544 C53.5243942,3.02368421 53.678073,3.05701754 53.7880328,3.10350877 C53.8246861,3.26798246 53.7659526,3.26535088 53.9964708,3.2127193 C54.0375401,3.37719298 53.7743431,3.45614035 53.7191423,3.55570175 C53.6604088,3.66359649 53.6648248,3.80657895 53.4881825,3.79254386 C53.3888212,3.78508772 53.3654161,3.85087719 53.3398029,3.91710526 C53.315073,3.98114035 53.288135,4.04517544 53.1896569,4.04166667 C52.8637518,4.03070175 52.8871569,4.51798246 52.804135,4.75789474 C52.6941752,4.9622807 52.8553613,4.89824561 52.9648796,4.89649123 C53.1689015,4.89385965 52.9260182,5.15131579 52.9101204,5.18596491 C52.8721423,5.26622807 52.9600219,5.22850877 53.0311204,5.18991228 C53.0814635,5.1622807 53.1229745,5.13552632 53.1053102,5.1504386 C53.2196861,5.05438596 53.334062,4.95087719 53.4621277,4.87105263 C53.5698796,4.80438596 53.6286131,4.70964912 53.6983869,4.60921053 C53.8185036,4.43552632 53.9425949,4.57982456 54.087,4.58289474 C54.3356241,4.58289474 54.6275255,4.4745614 54.8523029,4.37719298 C55.3738394,4.25175439 54.9136861,4.25394737 55.0744307,4.10877193 C55.1857153,4.00789474 55.3685401,3.94166667 55.4383139,3.81096491 C55.4723175,3.6745614 55.647635,3.26359649 55.5116204,3.19605263 C55.2753613,3.07982456 55.159219,2.90789474 54.8730584,2.9004386 C54.6504891,2.89517544 54.2932299,2.82412281 54.0790511,2.88289474 C54.0516715,2.77807018 54.5096168,2.86885965 54.5471533,2.74912281 C54.5639343,2.70964912 54.2027007,2.65833333 54.1629562,2.63903509 C53.9337628,2.52719298 54.3223759,2.42807018 54.3978905,2.3877193 C54.5312555,2.31710526 54.4310109,2.26929825 54.5776241,2.18552632 C54.7127555,2.12850877 54.8955803,2.02807018 54.8576022,1.85438596 C54.6694781,1.84342105 54.481354,1.83815789 54.2932299,1.83815789 C52.013219,1.83815789 49.7552883,2.63026316 47.9906314,4.07236842 Z"/>
        <path fill="url(#logo-desk-r)" fill-rule="nonzero" d="M54.5423876,1.83671053 C54.5304137,1.83608553 54.5203303,1.83546053 54.5096168,1.83421053 C54.5203303,1.83546053 54.5291532,1.83608553 54.5423876,1.83671053 Z"/>
        <path fill="url(#logo-desk-s)" fill-rule="nonzero" d="M54.8150102,1.85223684 C54.7765675,1.84973684 54.7318227,1.84723684 54.6858175,1.84473684 C54.7242602,1.84661184 54.7683748,1.84973684 54.8150102,1.85223684 Z"/>
        <path fill="url(#logo-desk-t)" fill-rule="nonzero" d="M54.5307434,1.83532895 C54.4815872,1.83282895 54.4607903,1.83157895 54.4601601,1.83157895 C54.4595299,1.83157895 54.487259,1.83345395 54.5307434,1.83532895 Z"/>
        <path fill="url(#logo-desk-u)" fill-rule="nonzero" d="M63.8108432,8.95335526 C63.8095828,8.94585526 63.8089526,8.94210526 63.8089526,8.94210526 C63.8089526,8.94210526 63.8089526,8.94585526 63.8108432,8.95335526 Z"/>
        <path fill="url(#logo-desk-v)" fill-rule="nonzero" d="M57.2224015,2.55964912 C57.2987993,2.63333333 57.4193577,2.62061404 57.5315255,2.60789474 C57.6392774,2.59561404 57.7399635,2.58377193 57.7876569,2.64868421 C57.7872153,2.64868421 57.6697482,2.76666667 57.6476679,2.77850877 C57.4789745,2.86578947 57.7143504,2.98640351 57.794281,3.0004386 C57.946635,3.02719298 58.171854,3.05 58.3030109,3.13596491 C58.4129708,3.20307018 58.3339234,3.41842105 58.3820584,3.50482456 C58.4412336,3.61008772 58.6545292,3.66929825 58.7525657,3.72763158 C58.9490803,3.87412281 58.7393175,3.7504386 58.803792,3.90789474 C58.8514854,4.02236842 59.0563905,4.07236842 58.9504051,4.19166667 C58.8903467,4.24122807 58.8545766,4.30482456 58.8457445,4.38245614 C58.8285219,4.38684211 58.8090912,4.37938596 58.7905438,4.37192982 C58.7587482,4.35964912 58.7282774,4.34736842 58.7075219,4.3877193 C58.6713102,4.39473684 58.9402482,4.48464912 58.9565876,4.48815789 C59.0382847,4.84122807 58.1727372,4.35570175 58.0738175,4.33903509 C57.8190109,4.29210526 57.8123869,4.33596491 57.5783358,4.40877193 C57.3036569,4.49605263 57.4281898,4.76140351 57.443646,4.96929825 C57.4542445,5.12324561 57.4237737,5.30833333 57.310281,5.42719298 C57.1133248,5.62982456 57.155719,5.70087719 57.2303504,5.97061404 C57.3959526,6.56885965 57.4511533,5.99429825 57.7187664,5.87061404 C57.7187664,6.18947368 58.3043358,6.36842105 57.8936423,6.56885965 C57.8450657,6.47280702 57.8583139,6.28201754 57.7342226,6.24561404 C57.4074343,6.15394737 57.7620438,6.62324561 57.7072847,6.72982456 C57.6406022,6.85833333 57.3319197,6.81798246 57.3910949,7 C57.4515949,7.17763158 57.1464453,7.35482456 56.9755438,7.46052632 C56.7163212,7.62017544 56.807292,7.72982456 56.4875693,7.69561404 C56.2808978,7.67280702 56.6703942,8.14254386 56.751208,8.1877193 C56.9728942,8.30438596 56.9415401,8.18201754 56.9278504,8.49035088 C56.9185766,8.79254386 56.5599927,8.65745614 56.369219,8.59780702 C55.9519015,8.46622807 56.1197117,8.79035088 55.9845803,9.00614035 C55.8781533,9.18421053 55.8242774,9.71798246 56.0614197,9.79517544 C56.1484161,9.82368421 56.2318796,9.79298246 56.3210839,9.7627193 C56.4054307,9.73421053 56.4950766,9.70570175 56.5997372,9.725 C56.751208,9.75438596 56.9154854,9.80833333 57.053708,9.7 C57.354,9.46622807 57.1323139,9.15 57.3888869,8.88859649 C57.5390328,8.73552632 57.4816241,8.58552632 57.7841241,8.63421053 C58.0345146,8.6745614 58.1625803,8.83421053 58.2685657,8.52938596 C58.3016861,8.60307018 59.1199818,9.14824561 59.1305803,9.16315789 C59.2197847,9.30131579 59.244073,9.47763158 59.3452007,9.60789474 C59.4171825,9.7004386 59.4542774,9.57850877 59.4706168,9.45614035 C59.4825401,9.36403509 59.4825401,9.27192982 59.4781241,9.27192982 C59.5010876,9.27061404 59.5249343,9.27280702 59.5456898,9.2745614 C59.6141387,9.28157895 59.6490255,9.2877193 59.5085949,9.17149123 C59.3602153,9.0495614 59.398635,9.06447368 59.185781,8.94780702 C58.9481971,8.81798246 58.6147847,8.63859649 58.7061971,8.35087719 C58.7106131,8.33859649 59.3615401,8.74780702 59.4171825,8.75964912 C59.4476533,8.78377193 59.6719891,9.18333333 59.6976022,9.17105263 C59.6923029,9.2254386 59.6883285,9.28114035 59.6830292,9.33596491 C59.7788577,9.48070175 59.9091314,9.59780702 59.982438,9.75438596 C60.0681095,9.9372807 60.1586387,9.89298246 60.3074599,9.78508772 C60.4995584,9.64649123 60.3820912,9.5995614 60.2752226,9.45175439 C60.2204635,9.37412281 60.0071679,9.04210526 60.0522117,8.95350877 C60.0694343,8.91929825 60.437292,8.75 60.4845438,8.73070175 C60.4845438,8.8254386 60.3079015,8.90307018 60.3304234,8.99035088 C60.3873905,9.21491228 60.5264964,9.3872807 60.5741898,9.62982456 C60.594062,9.69692982 60.8457774,10.1210526 60.894354,9.84780702 C60.9115766,9.74473684 60.7910182,9.66578947 60.8272299,9.57631579 C60.8577007,9.48947368 60.9645693,9.49692982 60.9968066,9.37938596 C61.0480328,9.36929825 61.0908686,9.4127193 61.1403285,9.45570175 C61.2017117,9.50921053 61.2732518,9.56315789 61.3836533,9.51315789 C61.5232007,9.4495614 61.5329161,9.43289474 61.5651533,9.62105263 C61.586792,9.74780702 61.6305109,10.2640351 61.5585292,10.3578947 C61.4057336,10.5631579 60.7623139,10.7298246 60.5525511,10.5947368 C60.2655073,10.4118421 59.8406825,10.5491228 59.9775803,10.977193 C59.8093285,11.0127193 59.6030985,10.9846491 59.4918139,10.8460526 C59.3429927,10.6627193 59.0122299,10.822807 58.9058029,10.6236842 C58.7812701,10.3982456 59.0175292,10.070614 58.7362263,9.92807018 C58.4915766,9.80701754 58.1140036,9.96666667 57.8530146,9.99166667 C57.4546861,10.0307018 57.1234818,10.3241228 56.7282445,10.3241228 C56.594438,10.3171053 56.4986095,10.152193 56.3219672,10.2359649 C56.1192701,10.3285088 55.8834526,10.6587719 55.7099015,10.8153509 C55.6229051,10.8960526 55.541208,11.0754386 55.5588723,11.1951754 C55.5690292,11.2434211 55.6635328,11.3557018 55.6255547,11.4061404 C55.5805109,11.4596491 55.3945949,11.4671053 55.3270292,11.5144737 C55.2126533,11.5969298 55.113292,11.7013158 55.0095146,11.7960526 C54.7904781,11.9675439 54.7525,12.1807018 54.5630511,12.3710526 C54.3462226,12.5894737 54.2936715,12.7557018 54.2216898,13.0587719 C54.1470584,13.3714912 54.331208,13.6754386 54.2230146,13.995614 C54.1444088,14.2425439 54.0644781,14.4171053 54.3157518,14.5859649 C54.5590766,14.7508772 54.5422956,14.8578947 54.5255146,15.1135965 C54.5060839,15.4057018 54.9503394,15.5719298 55.1362555,15.7421053 C55.3380693,15.9267544 55.5738869,15.9026316 55.8211861,15.8780702 C56.0269745,15.8578947 56.2415949,15.8377193 56.4504745,15.9381579 C56.5847226,16.0026316 56.9362409,15.8157895 57.0757883,15.7640351 C57.2312336,15.729386 57.3871204,15.695614 57.5394745,15.6530702 C57.6679818,15.6377193 57.7068431,15.8407895 57.7775,15.9065789 C57.8799526,16.0061404 58.0031606,16.0039474 58.0274489,16.1701754 C58.0455547,16.2995614 58.0093431,16.4390351 58.0751423,16.5609649 C58.1767117,16.7618421 58.4169453,16.7122807 58.4906934,16.9644737 C58.5856387,17.2684211 58.5299964,17.5570175 58.4129708,17.845614 C58.290646,18.1144737 58.0879489,18.2377193 58.1321095,18.5399123 C58.1612555,18.745614 58.2959453,18.9175439 58.203208,19.1232456 C58.0459964,19.4701754 58.0256825,19.5631579 58.0680766,19.9451754 C58.1153285,20.4557018 58.8064416,19.9824561 59.0722883,19.8324561 C59.6755219,19.4921053 60.0901898,19.0789474 60.591854,18.6087719 C60.8095657,18.4421053 60.8559343,18.2144737 61.0542153,18.0451754 C61.2723686,17.8605263 61.6234453,17.6482456 61.7568102,17.3877193 C61.8482226,17.2135965 61.9246204,17.0057018 61.9846788,16.8175439 C62.0376715,16.6539474 61.997927,16.4587719 62.0787409,16.3087719 C62.237719,16.0144737 62.3304562,15.6881579 62.4523394,15.375 C62.6148504,15.0881579 62.903219,14.8732456 63.0909015,14.5947368 C63.3002226,14.2828947 63.3223029,13.9280702 63.3775036,13.5723684 C63.3973759,13.4425439 63.5280912,13.0184211 63.4274051,12.9114035 C63.3744124,12.8508772 63.2737263,13.0074561 63.1792226,13.1635965 C63.0939927,13.3039474 63.0136204,13.4447368 62.9752007,13.4280702 C62.7018467,13.3157895 62.7146533,12.7232456 62.4492482,12.5649123 C62.2986606,12.4732456 62.2907117,12.5644737 62.2416934,12.3447368 C62.1882591,12.1092105 62.1551387,11.8635965 62.073,11.6355263 C62.0465036,11.5618421 61.6154964,11.0671053 61.6782044,11.0324561 C61.8764854,10.920614 62.0553358,11.3868421 62.121135,11.4776316 C62.1834015,11.5640351 62.3066095,11.5184211 62.327365,11.6065789 C62.3600438,11.7535088 62.3905146,11.9622807 62.5075401,12.0741228 C62.7588139,12.2855263 62.7839854,12.6039474 62.8692153,12.9074561 C63.0175949,13.2109649 63.0008139,13.077193 63.1801058,12.8175439 C63.3744124,12.5368421 63.4119489,12.1429825 63.5355985,11.8355263 C63.6543905,11.6416667 63.6694051,11.5 63.6954599,11.2723684 C63.7117993,11.1135965 63.6429088,10.9083333 63.708708,10.7622807 C63.8093942,10.5372807 63.6270109,10.2105263 63.3995839,10.1719298 C63.4260803,10.2517544 63.3514489,10.5942982 63.3351095,10.6973684 C63.1580255,10.7364035 63.1483102,10.4407895 63.1090073,10.352193 C63.0251022,10.1789474 62.7800109,10.0872807 62.8634745,9.80657895 C62.9880073,9.80657895 63.0436496,10.2074561 63.2547372,10.0828947 C63.3373175,10.0328947 63.3368759,9.90921053 63.4525766,9.91184211 C63.6327518,9.91578947 63.6641058,9.8 63.7201898,9.65877193 C63.7987956,9.64166667 63.8623869,9.9245614 63.9162628,10.2083333 C63.9701387,10.4903509 64.0142993,10.7723684 64.0540438,10.7570175 C64.2258285,10.6758772 63.9829453,9.72763158 63.9405511,9.52850877 C63.1536095,6.02938596 60.4297847,3.17850877 56.9565547,2.20438596 C57.007781,2.33377193 57.1190657,2.46052632 57.2224015,2.55964912 Z M58.2968285,5.75745614 C58.1034051,5.61008772 58.0181752,5.16008772 58.1122372,4.94298246 C58.138292,4.94736842 58.1457993,4.95614035 58.1449161,4.96491228 C58.2654745,5.06491228 58.4200365,5.55877193 58.5061496,5.67280702 C58.6245,5.83157895 58.8837226,5.93640351 58.9596788,6.11447368 C58.9512883,6.11403509 58.9490803,6.11754386 58.9543796,6.1245614 C58.9035949,6.13640351 58.8532518,6.13333333 58.8095328,6.13026316 C58.7008978,6.12236842 58.6293577,6.11447368 58.6717518,6.33508772 C58.6960401,6.50833333 58.6320073,6.55175439 58.4624307,6.56403509 C58.3975146,6.56885965 58.0667518,6.70350877 58.1020803,6.50219298 C58.1219526,6.34649123 58.3255328,6.43552632 58.397073,6.43947368 C58.3418723,6.1877193 58.5339708,5.93947368 58.2968285,5.75745614 Z M62.3136752,8.51008772 C62.179427,8.3745614 62.194,8.19868421 62.0747664,8.04824561 C61.9131387,7.84473684 61.3955766,7.26184211 61.5823759,6.95701754 C61.5845839,6.95087719 61.5885584,6.94298246 61.5965073,6.93245614 C61.6230036,6.93815789 61.6300693,6.94649123 61.6283029,6.95394737 C61.6905693,7.01666667 61.7718248,7.2 61.782865,7.25570175 C61.8120109,7.42412281 61.8045036,7.48070175 61.9701058,7.64605263 C62.2266788,7.90789474 62.3980219,8.10789474 62.5834964,8.41622807 C62.6506204,8.52719298 62.5826131,8.57149123 62.4947336,8.57149123 C62.4302591,8.57149123 62.3551861,8.54780702 62.3136752,8.51008772 Z M60.3242409,8.16754386 C60.349854,8.09561404 60.4006387,7.70657895 60.3865073,7.63508772 C60.483219,7.66008772 60.4894015,7.79078947 60.5852299,7.80921053 C60.6532372,7.82105263 60.739792,7.77719298 60.8073577,7.76798246 C60.9972482,7.71710526 61.2732518,7.90219298 61.3836533,8.06754386 C61.5642701,8.33464912 61.2189343,8.28289474 61.0608394,8.30964912 C60.9283577,8.33201754 60.7967591,8.37675439 60.6912153,8.4627193 C60.637781,8.50570175 60.5525511,8.67324561 60.5,8.68377193 C60.4726204,8.52280702 60.2588832,8.35263158 60.3242409,8.16754386 Z"/>
        <path fill="url(#logo-desk-w)" fill-rule="nonzero" d="M63.8613242,9.17625 C63.8373763,9.06875 63.8178399,8.981875 63.8102774,8.95 C63.8159492,8.97375 63.8317045,9.045 63.8613242,9.17625 Z"/>
        <path fill="url(#logo-desk-x)" fill-rule="nonzero" d="M63.9333428,9.49550439 C63.9283011,9.47550439 63.9232595,9.45237939 63.9175876,9.42675439 C63.9226293,9.45050439 63.9276709,9.47300439 63.9333428,9.49550439 Z M63.9503584,9.57175439 C63.9440563,9.54362939 63.9383845,9.51925439 63.9333428,9.49550439 C63.9434261,9.54237939 63.9503584,9.57175439 63.9503584,9.57175439 Z"/>
        <path fill="url(#logo-desk-y)" fill-rule="nonzero" d="M63.9481412,9.56189693 C63.9033964,9.36439693 63.8699954,9.21502193 63.8460474,9.10877193 C63.8788183,9.25627193 63.9197818,9.43689693 63.9481412,9.56189693 Z"/>
        <path fill="url(#logo-desk-z)" fill-rule="nonzero" d="M60.2053577,9.95054825 C60.170066,10.0124232 60.3729931,10.1867982 60.3729931,10.1867982 C60.5223525,10.2136732 60.6899879,10.0474232 60.5664671,9.98617325 C60.4883212,9.94742325 60.3780348,9.91929825 60.2992587,9.91929825 C60.2538837,9.91929825 60.2179619,9.92867325 60.2053577,9.95054825 Z"/>
        <path fill="url(#logo-desk-A)" fill-rule="nonzero" d="M58.4438832,9.18138158 C58.4438832,9.31263158 58.6556332,9.50450658 58.7526853,9.47888158 C58.8598207,9.44950658 58.7797843,9.18138158 58.6909249,9.12013158 C58.6531124,9.09388158 58.6020655,9.07763158 58.5560603,9.07763158 C58.4955603,9.07763158 58.4438832,9.10700658 58.4438832,9.18138158 Z"/>
        <path fill="url(#logo-desk-B)" fill-rule="nonzero" d="M58.3126964,8.85167763 C58.2156443,8.89542763 58.3391651,9.10480263 58.4362172,9.06980263 C58.5118422,9.04292763 58.4267641,8.84605263 58.3379047,8.84605263 C58.3290818,8.84605263 58.3208891,8.84792763 58.3126964,8.85167763 Z"/>
        <path fill="#FFF" fill-rule="nonzero" d="M44.4290803,11.6258772 C44.4290803,6.25614035 48.8270328,1.8872807 54.2340547,1.8872807 C59.6401934,1.8872807 64.0390292,6.25614035 64.0390292,11.6258772 C64.0390292,16.995614 59.6401934,21.3649123 54.2340547,21.3649123 C48.8270328,21.3649123 44.4290803,16.995614 44.4290803,11.6258772 M43.9874745,11.6258772 C43.9874745,17.2372807 48.5841496,21.8030702 54.2340547,21.8030702 C59.8835182,21.8030702 64.4815182,17.2372807 64.4815182,11.6258772 C64.4815182,6.01403509 59.8835182,1.4495614 54.2340547,1.4495614 C48.5841496,1.4495614 43.9874745,6.01403509 43.9874745,11.6258772"/>
        <path fill="#FFF" fill-rule="nonzero" d="M43.4646131 11.6258772C43.4646131 5.72850877 48.2953394.930701754 54.2340547.930701754 60.1714453.930701754 65.0030547 5.72850877 65.0030547 11.6258772 65.0030547 17.5232456 60.1714453 22.320614 54.2340547 22.320614 48.2953394 22.320614 43.4646131 17.5232456 43.4646131 11.6258772M42.6480839 11.6258772C42.6480839 17.9714912 47.8453431 23.1333333 54.2340547 23.1333333 60.623208 23.1333333 65.8204672 17.9714912 65.8204672 11.6258772 65.8204672 5.28070175 60.623208.118859649 54.2340547.118859649 47.8453431.118859649 42.6480839 5.28070175 42.6480839 11.6258772M7.91578467 11.6820175L7.93565693 11.6820175C7.92638321 11.6828947 7.91710949 11.6828947 7.90783577 11.6833333 17.8130547 12.0938596 28.0640511 12.3662281 38.569854 12.4903509L38.569854 11.6820175 38.569854 10.8745614C28.0658175 10.9986842 17.8174708 11.2710526 7.91578467 11.6820175M100.178285 11.6820175L100.198599 11.6820175C90.3852336 11.2710526 80.2291825 10.9986842 69.8209745 10.8745614L69.8205328 10.8745614 69.8205328 12.4903509C80.2322737 12.3662281 90.3905328 12.0938596 100.206547 11.6833333 100.197274 11.6828947 100.187117 11.6828947 100.178285 11.6820175"/>
      </g>
    </g>
  </g>
</svg>
