<svg xmlns="http://www.w3.org/2000/svg" width="229" height="63" viewBox="0 0 229 63">
  <defs>
    <linearGradient id="emm-a" x1="100%" x2="0%" y1="50%" y2="50%">
      <stop offset="0%" stop-color="#CCF0FF"/>
      <stop offset="100%" stop-color="#F2FCFF"/>
    </linearGradient>
    <linearGradient id="emm-b" x1="100%" x2="-61.756%" y1="50%" y2="50%">
      <stop offset="0%" stop-color="#0078AB"/>
      <stop offset="100%" stop-color="#00B2FF"/>
    </linearGradient>
    <linearGradient id="emm-c" x1="-87.698%" x2="100%" y1="50%" y2="50%">
      <stop offset="0%" stop-color="#00B2FF"/>
      <stop offset="100%" stop-color="#0078AB"/>
    </linearGradient>
  </defs>
  <g fill="none" fill-rule="evenodd">
    <polygon fill="url(#emm-a)" points="28.773 0 22.298 63 222.298 63 228.774 0"/>
    <path fill="url(#emm-b)" d="M93.0168326,47.7650172 L99.5935445,33.3958947 L104.624373,33.3958947 L108.014973,47.7752965 L103.47812,47.7752965 L103.029442,45.4161722 L98.5369322,45.4161722 L97.5265706,47.7752965 L93.0121278,47.7752965 L93.0168326,47.7650172 L94.5210426,33.3959424 L90.1639473,33.3959424 L89.331436,41.3490437 L85.9189025,33.3959424 L80.9777143,33.3959424 L79.4734527,47.7655093 L79.4757609,47.7752965 L74.938908,47.7752965 L74.4897524,45.4161722 L69.9981965,45.4161722 L68.987358,47.7752965 L64.4729153,47.7752965 L60.1833363,47.7753442 L61.1007199,39.0128143 L57.7129806,47.7753442 L53.7597439,47.7753442 L52.2096326,38.9903964 L51.289865,47.7753442 L47,47.7753442 L48.5052911,33.3959424 L54.6141885,33.3959424 L56.2281924,43.0790364 L59.869595,33.3959424 L65.9784924,33.3959424 L64.4732926,47.774472 L71.054332,33.3958947 L76.0846839,33.3958947 L79.4734527,47.7655093 L79.4724232,47.7753442 L83.8295185,47.7753442 L84.6434342,40.001109 L88.2090239,47.7753442 L93.0157515,47.7753442 L93.0168326,47.7650172 Z M120.309209,30.601843 L126.890046,16.2252282 L131.920397,16.2252282 L135.310998,30.604153 L130.774622,30.604153 L130.325466,28.2455056 L125.833433,28.2455056 L124.823072,30.604153 L120.308152,30.604153 L120.309209,30.601843 L120.308963,30.6042007 L116.018621,30.6042007 L116.936481,21.8416707 L113.548742,30.6042007 L109.595505,30.6042007 L108.044917,21.8192528 L107.125149,30.6042007 L102.835761,30.6042007 L104.341052,16.2252759 L110.44995,16.2252759 L112.063477,25.9083699 L115.705356,16.2252759 L121.814254,16.2252759 L120.309209,30.601843 Z M59.7133125,29.7544447 L65.9062556,16.2252282 L70.9366075,16.2252282 L74.3272077,30.604153 L69.7903548,30.604153 L69.341676,28.2455056 L64.8496433,28.2455056 L63.8388048,30.604153 L59.6243286,30.604153 L48.9561632,30.6042007 L50.4619311,16.2252759 L61.1300915,16.2252759 L60.7700995,19.6628434 L54.391804,19.6628434 L54.175332,21.7300583 L59.9023042,21.7300583 L59.5752121,24.8523446 L53.84824,24.8523446 L53.6060202,27.1666331 L59.9843156,27.1666331 L59.7133125,29.7544447 Z M67.982289,19.7744081 L65.9672874,25.0769527 L68.8867987,25.0769527 L67.982289,19.7744081 Z M79.9104691,30.8291903 C75.1042182,30.8291903 73.5164389,28.8297061 73.8859671,25.30199 L78.1982422,25.30199 C78.042802,26.7849091 78.5472676,27.548548 80.1636555,27.548548 C81.7814739,27.548548 82.0904472,26.7400733 82.1448036,26.2230311 C82.3708118,24.0661447 74.2836272,25.7961374 74.6483873,20.8083972 C74.8243304,18.2694528 76.544663,16 81.149223,16 C85.8424698,16 87.0430789,18.2694528 86.7393505,21.1680372 L82.4947825,21.1680372 C82.6335344,19.8425203 82.2001136,19.2582245 80.6952993,19.2582245 C79.3030124,19.2582245 78.9001074,19.8873561 78.9520798,20.6734129 C79.0536404,22.4935541 86.929598,20.8532329 86.3788817,26.1109417 C86.1581184,28.2229923 84.5145523,30.8291903 79.9104691,30.8291903 Z M94.7595909,26.133455 L94.2913629,30.604153 L89.8665605,30.604153 L90.3347886,26.133455 L86.3414998,16.2252282 L91.1477506,16.2252282 L92.9596309,22.0891737 L96.1561692,16.2252282 L101.074947,16.2252282 L94.7595909,26.133455 Z M128.966079,19.7744081 L126.950601,25.0769527 L129.870112,25.0769527 L128.966079,19.7744081 Z M141.807828,19.6626049 L140.662052,30.6039622 L136.394597,30.6039622 L137.54085,19.6626049 L134.149296,19.6626049 L134.508811,16.2250374 L145.559374,16.2250374 L145.199382,19.6626049 L141.807828,19.6626049 Z M150.545955,30.8291903 C144.818506,30.8291903 144.185301,27.0090879 144.561505,23.4145952 C144.938185,19.8196255 146.393888,16 152.098927,16 C157.039161,16 158.420959,18.8985844 158.067642,22.2688983 L153.755367,22.2688983 C153.750122,20.1792655 153.171751,19.4828803 151.73369,19.4828803 C149.622372,19.4828803 149.142701,21.2796497 148.919077,23.4145952 C148.695453,25.5495407 148.684963,27.3687279 150.908331,27.3687279 C152.367848,27.3687279 153.024416,26.6723427 153.519822,24.5154563 L157.832574,24.5154563 C157.463046,28.0431723 155.509553,30.8291903 150.545955,30.8291903 Z M166.181957,30.6042007 L166.769865,24.9878058 L162.884812,24.9878058 L162.296904,30.6042007 L157.984629,30.6042007 L159.490397,16.2252759 L163.802672,16.2252759 L163.242896,21.5721792 L167.127949,21.5721792 L167.687725,16.2252759 L172,16.2252759 L170.494232,30.6042007 L166.181957,30.6042007 Z M73.1303654,36.9455517 L71.1153638,42.2480962 L74.0348751,42.2480962 L73.1303654,36.9455517 Z M101.669578,36.9455517 L99.6545763,42.2480962 L102.574088,42.2480962 L101.669578,36.9455517 Z M117.673487,47.7753442 L117.187141,46.2027536 C116.251638,47.4157041 115.021944,48 113.292552,48 C107.902684,48 107.29189,44.1803745 107.668094,40.5854048 C108.044774,36.9904351 109.5,33.1708097 115.205039,33.1708097 C120.101407,33.1708097 121.554249,35.5976646 121.283897,38.1814447 L116.948735,38.1814447 C116.915358,37.2150909 116.446654,36.5411235 114.852199,36.5411235 C112.628831,36.5411235 112.248813,38.4509363 112.025189,40.5854048 C111.802042,42.7198734 111.756745,44.652104 113.980589,44.652104 C115.170708,44.652104 116.208248,43.7534808 116.506732,42.405546 L113.968669,42.405546 L114.2929,39.3047237 L121.188058,39.3047237 L120.301667,47.7753442 L117.673487,47.7753442 Z M121.517773,47.7753442 L123.023541,33.3959424 L133.691224,33.3959424 L133.331709,36.83351 L126.953414,36.83351 L126.736465,38.9002479 L132.463914,38.9002479 L132.136822,42.0234881 L126.40985,42.0234881 L126.16763,44.3377767 L132.545925,44.3377767 L132.185933,47.7753442 L121.517773,47.7753442 Z M139.726455,36.8332715 L138.581632,36.8332715 L138.246911,40.0232884 L139.392687,40.0232884 C140.942322,40.0232884 141.365253,39.4170516 141.466336,38.4511748 C141.576956,37.3951495 141.253679,36.8332715 139.726455,36.8332715 Z M140.557059,47.7751057 L137.992771,42.4501433 L137.43538,47.7751057 L133.123104,47.7751057 L134.629349,33.3957039 L140.243794,33.3957039 C145.858716,33.3957039 146.039904,36.3839599 145.823432,38.4511748 C145.620787,40.3829284 144.519355,42.1129211 142.320304,42.517397 L145.924992,47.7751057 L140.557059,47.7751057 Z"/>
    <polygon fill="url(#emm-c)" points=".475 0 29.445 0 22.969 63 .475 63"/>
  </g>
</svg>
