<svg xmlns="http://www.w3.org/2000/svg" xmlns:xlink="http://www.w3.org/1999/xlink" width="512" height="512" viewBox="0 0 512 512">
  <defs>
    <rect id="ko1x1-a" width="512" height="512"/>
  </defs>
  <g fill="none" fill-rule="evenodd">
    <mask id="ko1x1-b" fill="#fff">
      <use xlink:href="#ko1x1-a"/>
    </mask>
    <use fill="#D8D8D8" xlink:href="#ko1x1-a"/>
    <g mask="url(#ko1x1-b)">
      <g transform="translate(-103)">
        <rect width="716.9" height="512" x=".6" fill="#244AA5" fill-rule="nonzero"/>
        <path fill="#D0A650" fill-rule="nonzero" d="M284,242.9 C284.6,242.5 285.2,242.2 285.8,241.9 C286.3,241.8 288,241.2 288,241.2 C288.5,240.9 289.1,240.7 289.7,240.6 C290.6,240.7 291.3,241.2 291.9,241.8 C292.6,242.4 293.4,243 294.2,243.4 C294.2,243.4 295.5,243.8 295.8,243.4 C296.1,242.9 296.7,242.6 297.3,242.6 C297.9,242.6 298,242 298,241.6 C298.1,241 298.3,240.5 298.7,240 C299.1,239.6 299.6,239.3 300.2,239.1 C300.2,239.1 301.5,238.5 301.7,237.8 C301.9,237.1 303.2,236.4 303.9,236.3 C304.6,236.2 303.9,235.9 305.9,236.1 C307.9,236.3 308.1,235.7 308.2,235.1 C308.3,234.5 308.2,234 309.4,234.1 C310.6,234.2 311.2,234.2 311.2,233.5 C311.2,232.8 312.3,232.5 310.4,231.9 C308.5,231.3 308.6,231.8 308.4,230.9 C308.2,230 308.4,230.1 307.1,230 C305.8,229.9 306.5,229.2 306.4,228.5 C306.2,228 306,227.5 305.7,227 C305.4,226.6 304.7,226.6 304.7,225.9 C304.7,225.2 304.6,224.9 303.9,224.9 C303.2,224.9 302.9,224.9 302.9,224.2 C302.9,223.5 303,223 303.7,223 C304.3,223 304.7,222.6 304.7,222 C304.7,221.9 304.7,221.8 304.7,221.7 C304.6,221 304.6,220.3 304.6,219.6 L305.6,218.5 C306.7,217.6 307.8,216.7 308.8,215.7 C309.1,215.3 309.8,215.2 310.2,215.5 C310.3,215.6 310.4,215.7 310.5,215.8 C310.8,216.4 311.2,216.9 311.6,217.4 C312,217.8 313.1,217.5 313.3,217.1 C313.5,216.7 313.7,215 314.3,214.1 C314.9,213.5 315.3,212.8 315.6,212.1 C315.8,211.4 316.1,210.8 316.9,210.8 C317.7,210.8 318.2,209.8 318.2,209.2 C318.2,208.5 318.7,207.9 319.4,207.9 C319.4,207.9 319.4,207.9 319.4,207.9 C320.3,207.8 320.8,207.2 321.2,208 C321.6,208.8 321.8,208.9 322.5,209.2 C323.2,209.5 324.1,209.9 324.5,209.5 C324.9,209.1 325.2,208.3 325.9,208.8 C326.6,209.3 327.1,208.8 327.2,207.9 C327.3,207 327.5,205.9 327.5,205.9 C327.5,205.9 327.7,205.3 328.8,205.3 C329.9,205.3 329.1,204.6 329.7,204.1 C330.3,203.6 330.3,203.2 331.1,203.5 C331.9,203.8 333.1,203.1 332.5,202.4 C331.9,201.7 330.5,200.5 331.2,199.6 C331.9,198.7 332.3,197.3 331.5,197.1 C330.7,196.9 329.6,197.2 329.5,196.4 C329.4,195.6 329,194.9 330,194.8 C331,194.7 332.5,194.7 333,194.2 C333.5,193.7 335,193.5 335,192.2 C335,190.9 335.5,190.7 335.6,190 C335.8,189 335.7,187.9 335.1,187.1 C334.4,186.4 333.9,185.7 333.3,184.9 C332.9,184.2 332.3,183.6 331.5,183.4 C330.6,183.1 329.7,183 329.7,182.2 C329.7,181.4 330.3,182.3 330.3,180.4 C330.3,178.5 329,178.2 329,178.2 L327.1,177 C325.7,176.6 324.3,176.3 322.8,176.1 C321.9,176.1 320.9,175.1 321.9,174.5 C322.8,174 323.2,172.9 322.8,172 C322.5,171.1 321.7,170.4 320.7,170.2 C319.3,169.8 318.9,169.5 319.5,168.6 C320.1,167.7 320.3,167.2 321.1,167.8 C322,168.5 323.2,168.6 324.2,168.2 C325.2,167.7 325.6,167.4 326.2,167.8 C326.8,168.2 327.4,168.8 328.1,168 C328.9,167.3 330,167.2 331,167.5 C331.9,167.8 332.8,167.8 333.7,167.5 C334.2,167.3 335.3,166.4 335.3,165.9 C335.5,165.2 335.9,164.6 336.6,164.2 C337.2,163.8 338,162.6 338.7,162.6 C339.4,162.6 339.6,161.9 339.6,161.4 C339.7,160.8 340,160.2 340.2,159.6 C340.8,159 341.8,158.9 342.5,159.5 C343.1,160 343.8,160.3 344.6,160.5 C345.2,160.6 345.9,160.6 346.5,160.5 C347.3,160.1 348.2,160.2 349,160.6 C349.7,161 350.4,161.2 351.2,161.2 C351.3,160.7 351.4,160.2 351.5,159.8 C351.5,159.3 351.8,158.5 351.2,158.1 C350.6,157.7 350,157.3 351.1,156.5 C351.7,156 352.4,155.8 353.2,155.9 C354.2,155.9 354.9,156 355.7,156 C356.5,156 357.8,156.7 357.8,157.4 C357.9,158.1 358.3,158.7 359,159 C359.6,159.4 360.4,159.7 360.2,160.3 C360,160.9 359.9,161.4 360.7,161.3 C361.5,161.2 361.7,161.7 361.7,162.3 C361.7,162.9 362,163.3 362.7,163.5 C363.4,163.7 363.9,164.2 363.9,164.8 C363.8,165.3 363.9,165.9 364,166.4 C364.3,166.9 364.6,167.5 365,168 C365,168 366.4,169.7 364.6,168.8 C362.8,167.9 362.4,167.6 361.7,167.7 C361.3,167.8 361,167.9 360.7,168.2 C360.2,168.3 359.7,168.4 359.1,168.4 C358.5,168.4 357.8,169.7 358.8,170 C359.8,170.3 360.2,170.5 360.2,171.3 C360.2,172.1 359.8,171.9 359.3,172.5 C358.8,173.1 358.4,172.7 357.5,172.7 C356.6,172.7 356.3,173.4 356.3,174.1 C356.3,174.8 356.7,174.7 357.1,175.3 C357.4,175.8 358,176 358.5,175.7 C358.6,175.6 358.7,175.5 358.8,175.4 C359.4,174.8 360,174.4 360.4,175.5 C360.8,176.6 361.3,176.6 362.1,176.6 C362.7,176.7 363.3,176.5 363.8,176.2 C364.4,175.8 365.2,176.2 365.4,177.2 C365.6,178.2 366.2,178.3 366.8,178.6 C367.4,178.9 367.8,179.2 368,179.8 C368.2,180.4 368.5,180.6 369.2,180.3 C369.9,180 370.9,179.7 371.3,180.2 C371.7,180.7 372.3,181.6 372.3,181.6 L372.4,182.8 L374.9,183.6 C375,183.9 375.1,184.3 375.2,184.7 C375.2,185.2 375.6,185.4 376.2,185.3 C376.8,185.2 377.4,185.2 378,185.3 C378,185.3 378.9,184.9 378.9,184.2 C378.9,183.5 379.3,183.2 379.9,183.2 C380.5,183.2 382,183.7 382.4,183 C383,182.3 384,182 384.9,182.4 C385.8,182.8 388.1,183.7 388.1,183.7 C388.1,183.7 387.8,183.8 388.6,185 C389.1,185.7 389.9,186.2 390.8,186.2 C390.9,186.7 391,187.3 391.2,187.8 C391.7,188.4 392.6,188.5 393.3,188 C394,187.4 394.8,187.1 395.6,186.9 C396.4,186.9 396.9,186.9 396.9,186.4 C396.9,185.9 396.1,185.6 396.1,184.8 C396.1,184 396.9,184.1 397,183.4 C397.1,182.7 397.9,183.4 398.4,183.8 C398.9,184.2 399.6,184.7 399.6,185.2 C399.9,186.2 400.5,187 401.3,187.6 C401.9,187.8 403.6,188 404.2,187.4 C404.8,186.8 406,186.6 405.9,188 C405.8,189.4 405.5,189.6 406.4,190 C407.2,190.5 407.4,191.6 406.9,192.4 C406.8,192.5 406.8,192.6 406.7,192.7 C405.9,193.2 405.7,193.3 405.7,194.1 C405.7,194.9 405.4,195.9 406.1,196.4 C406.8,196.9 407.1,197.2 407.1,197.7 C407.3,198.6 407.6,199.5 407.9,200.3 C408.1,201.2 408.2,202 408.2,202.9 C408.1,203.4 407.8,204.2 409,204.1 C410.2,204 410.4,204 410.4,204.9 C410.4,205.8 410.8,206.2 410.1,206.6 C409.4,207 409.1,208.2 409.7,208.4 C410.3,208.5 410.8,208.9 411,209.5 C411.1,210 412.2,210.8 412.8,210.3 C413.4,209.8 413.6,209.6 414.1,209.5 C414.6,209.4 415,209 414.5,208.4 C414,207.8 413.9,207.2 414.4,206.8 C414.9,206.4 415.2,205.2 415.2,205.2 C415.5,204.7 416.1,204.6 416.6,204.9 C416.7,205 416.8,205.1 416.9,205.2 C417.8,206.3 417.9,205.9 418.6,205.9 C419.3,205.9 419.5,206.5 419.5,207.1 C419.5,207.7 420.8,207.6 420.8,208.5 C420.8,209.4 421.1,211.7 421.1,211.7 C421.1,211.7 421.1,213 421.9,213.5 C422.7,214 422.5,214.1 422.2,214.7 C421.9,215.3 421.8,216 421.9,216.7 C421.9,217.2 422.2,217.4 421.5,217.9 C420.9,218.2 420.6,219 421,219.6 C421,219.6 421,219.6 421,219.6 C421.4,220.3 421.3,220.8 422.3,221.6 C423.3,222.4 423.2,222.8 423.2,223.4 C423.2,224 424.2,224.8 424.2,225.4 C424.2,226 425,226.7 425.6,226.8 C426.4,227.1 426.9,227.8 427,228.6 C427,229.2 427.1,230.7 427.1,230.7 C427.1,230.7 427,231.1 427.7,231.1 C428.4,231.1 429,231.9 429.2,231 C429.4,230.1 430.2,229.9 430.8,229.7 C431.4,229.5 432.4,229 432.9,229.3 C433.4,229.6 434,229.7 434.6,229.7 C435.1,229.7 437.6,229.8 437.6,229.8 C437.6,229.8 438.2,229.7 438.6,230.6 C439,231.5 440.2,232.6 439.5,233.1 C438.8,233.6 438.9,234.5 439.6,234.5 C440.3,234.5 441.2,234.5 441.2,235.1 C441.2,235.7 441.3,236.2 442,235.8 C442.7,235.4 443,235.3 443.3,235.8 C443.6,236.3 444.1,236.3 444.7,236.6 C445.3,236.9 445.6,236.7 446,236.2 C446.6,235.7 447.2,235.4 447.9,235.2 C448.8,235 449.8,234.9 450.8,235 C451.4,235.2 452,235.4 452.6,235.7 C452.9,236.3 453,237 452.9,237.6 C452.6,238.3 452.4,238.2 452.6,239.3 C452.8,240.4 452.3,240.5 451.8,240.4 C451.3,240.3 450.8,240.3 450.8,241.2 C450.8,242.1 450.3,242.4 450.3,243.2 C450.3,244 450.3,243.9 449.8,244.3 C449.3,244.7 449.2,245.3 449.9,245.4 C450.6,245.5 450.4,246.3 450.4,246.8 C450.4,247.3 450.3,248.4 450.3,248.4 C450.3,248.4 450.4,249 449.5,249 C448.6,249 447.8,248.9 447.7,249.5 C447.6,250.1 446.5,251.1 447.4,251.6 C448.3,252.1 448,252.6 447.5,252.8 C447,253.1 446.9,253.7 447.1,254.2 C447.2,254.4 447.4,254.5 447.6,254.6 C448.6,255 448.5,255.3 447.9,255.8 C447.3,256.3 446,256.6 446,257.4 C446,258.2 445.7,258.1 445,258.2 C444.3,258.3 443.8,259.3 444.7,260.5 C445.6,261.7 445.9,261.5 446.5,261.5 C447.1,261.5 447.1,260.5 447.1,260.5 C447.1,260.5 449.3,260.6 450,260.6 C450.7,260.7 451.4,260.5 452.1,260.2 C452.6,259.8 454.1,259.3 454.1,260.3 C454.1,261.3 454.4,261.3 455,261.7 C455.6,262.1 455.8,261.8 456.3,262.5 C456.8,263.2 456.9,262.6 457.3,261.8 C457.7,261 458.5,260.1 459.1,261.1 C459.7,262.1 459.7,261.8 460.5,261.8 C461.3,261.8 461.5,262.2 461.5,262.7 C461.5,263.2 462.3,263.3 463.2,263.2 C464.1,263.1 464.2,263.7 464.6,264.3 C465,264.9 465.1,264.8 465.6,264.8 C466.1,264.9 466.7,264.7 467,264.3 C467.4,263.8 467.9,263.2 468.4,263.9 C468.7,264.4 469.3,264.5 469.8,264.2 C470,264.1 470.2,263.9 470.2,263.6 C470.5,262.8 471.6,262 472.3,263 C472.7,263.7 473.4,264.1 474.1,264.1 C474.7,264.2 475.6,264.2 476,264.8 C476.4,265.4 477.7,266.4 476.8,267.1 C475.9,267.8 474.8,268.8 475.6,269 C476.3,269.2 476.9,269.5 477.4,270.1 C477.9,270.7 479.6,270.9 480.4,271.1 C481.2,271.3 482.1,271.2 482.7,270.6 C483.6,269.9 484.5,269.9 484.4,270.8 C484.4,271.5 484.5,272.2 484.8,272.8 C485.1,273.5 485.3,274.2 485.4,274.9 C485.4,275.5 485.3,275.6 486.4,276.3 C487.5,277 487.4,277.5 488.3,276.8 C489.2,276.1 489.5,275.7 489.5,275.1 L489.5,273.2 C490.1,273.1 490.7,272.9 491.3,272.6 C491.8,272.2 493.9,271.2 494.4,271.6 C494.9,272 495.6,272 496.1,271.7 C496.8,271.5 497.5,271.4 498.2,271.5 C499.1,271.6 500,271.3 500.7,270.8 C501.7,270 501.7,270.2 502.4,270.8 C503,271.2 503.1,272 502.7,272.6 C502.7,272.6 502.7,272.6 502.7,272.6 C502.4,273.1 502.5,273.7 503,274 C503.2,274.1 503.4,274.2 503.6,274.2 C504.5,274.2 504.8,274.7 504.8,275.3 C504.8,275.9 504.9,276.6 505.1,277.2 C505.2,277.7 505.2,277.9 506.7,278.3 C508.2,278.7 507.9,279.5 508.1,280.1 C508.3,280.7 508.4,281.2 507.6,281.2 C507.1,281.1 506.5,281.5 506.5,282 C506.5,282.1 506.5,282.1 506.5,282.2 C506.4,282.8 505.2,283 505.2,283 L504,282.8 C503.6,282.8 503.1,283 502.8,283.3 C502.4,283.8 501.6,284.7 502.2,285.6 C502.8,286.5 502.7,286.9 502.2,287.3 C501.7,287.7 501.4,289.5 500.9,289.1 C500.4,288.7 499.7,289.2 499.2,289.5 C498.7,289.8 498.8,291.4 499.8,292 C500.4,292.3 500.8,292.8 501.1,293.4 L502.3,295.2 C502,295.5 501.8,295.8 501.7,296.2 C501.4,296.8 500.7,298 501.4,298.2 C502.1,298.4 501.8,299.7 501,299.7 C500.2,299.7 499.3,299.3 499.2,300.3 C499.1,301.3 498.7,301 497.9,300.9 C497.1,300.8 495.2,300.3 494.7,301.3 C494.2,302.3 494.1,302.6 493.1,302.5 C492.1,302.4 492.6,303.9 492.9,304.5 C493.2,305 493.6,305.5 494.1,305.9 C494.6,306.4 494.9,307 494.9,307.7 C494.9,308.9 494.4,308.8 493.9,307.9 C493.4,307 492.4,307.2 492.2,308.1 C492,309 491.9,310.5 491,310.5 C490.3,310.4 489.7,310.7 489.3,311.2 C488.8,311.7 488.5,312.3 488.3,313 C488.4,313.5 488,314 487.5,314.1 C487.5,314.1 487.5,314.1 487.5,314.1 C486.9,314.2 486.7,315.5 486.7,315.5 C486.7,315.5 485.1,315.7 485,316.3 C484.9,316.9 485.1,317.8 483.8,318 C482.8,318.1 481.9,318.7 481.3,319.5 C480.8,320 480.8,320.7 481.3,321.2 C481.8,321.8 482.2,323.7 482.9,324.1 C483.6,324.5 484.1,324.6 483.9,325.5 C483.7,326.4 483,327.2 484,327.2 C485,327.2 485.7,327.4 485.3,328.3 C484.9,329.2 484.9,329.3 484.1,329.6 C483.3,329.9 482.9,330 482.9,330.9 C482.9,331.8 483.2,331.9 482.5,332.2 C481.8,332.5 481.9,333 481.9,333.7 C481.9,334.4 481.6,334.2 480.9,335 C480.3,335.7 479.3,335.9 478.4,335.6 C477.8,335.4 477.6,335.4 477.5,334.6 C477.4,333.8 476.2,333.9 475.5,334 C474.9,334.2 474.4,334.5 474,334.8 C474,334.8 472.8,335.5 473.4,336.1 C474,336.7 473.7,337.6 472.8,337.5 C471.9,337.4 469.8,338.5 469.2,337.4 C468.6,336.3 466.7,335.6 466.5,337 C466.3,338.4 467.3,338.3 467.1,339.7 C466.9,341.1 466.7,341.1 466.2,341.6 C465.8,342 465.6,342.5 465.6,343 C465.5,343.6 465.3,344.9 466.2,345.4 C467,346 467.5,346.9 467.5,347.9 C467.5,348.6 467.5,349.3 468.4,349.3 C469.3,349.3 470.1,349.2 470.2,348.3 C470.4,347.7 470.9,347.4 471.5,347.6 C472,347.7 472.3,348.2 472.3,348.7 C472.4,350.4 472.4,351.2 473.1,351.9 C473.6,352.6 474.2,353.3 474.8,353.9 C475.3,354.3 476.2,357.3 476.2,357.3 C474.9,357.6 474.6,359.2 473.8,359.5 C473.3,359.7 472.9,359.5 472.4,359.8 C471.9,360.1 472.1,360.5 471.6,360.7 C470.7,361.1 470.8,359.7 469.7,360.2 C468.6,360.7 468.6,361.9 467.1,361.4 C466.3,361.1 465.8,358.1 465.6,357.4 C465.3,356.7 464.9,356 464.4,355.3 C463.5,354 461.8,355.3 461.2,354.9 C460.3,354.3 460.7,353.3 459.4,353.2 C456.7,353 458.6,354.8 457.5,355.3 C455.3,356.1 455.3,353.3 453.7,354.5 C453.1,355 454.7,355.3 454.3,356.1 C453.9,356.9 452.4,357.8 452.5,358.6 C452.6,359.7 453.8,360 454.2,361 C455.2,363.5 453.6,365.1 451.1,363.2 C449.7,362.1 449.5,360.1 447.4,360.3 C446.9,360.3 446.8,360.8 446.3,360.9 C445.8,361 445.4,360.4 444.9,360.6 C444.1,360.9 444.8,361.4 444.6,361.9 C444.2,362.2 443.8,362.6 443.4,363 C442.8,363.8 443,364.5 442.2,365.1 C441.4,365.7 440.9,365.3 440.2,366.1 C439.5,366.9 439.3,368.2 438.3,369.1 C437.8,369.5 437.4,367.9 436.8,369 C436.7,369.1 436.6,369.3 436.5,369.4 C436.3,369.7 436.3,370 436.5,370.2 C437.9,372.8 435,373.8 434.1,375.7 C433.7,376.5 434.8,377.2 434.4,377.8 C434,378.4 432.8,379.5 432.7,379.7 C432.6,380.1 432.5,380.4 432.2,380.8 C432,381 431.2,380.9 431.1,381.3 C431,381.7 431.9,382.1 432.1,382.3 C432.3,382.5 432,383.1 432.1,383.2 C433.6,384.7 432.7,384.2 433.4,385.5 C433.5,385.7 434,385.4 434.1,385.8 C434.2,386.2 433.7,386.2 433.9,386.7 C433.9,386.8 435,388.2 435,388.2 C435.1,388.7 433,389.6 432.6,389.6 C431.4,389.6 433.7,387.1 431.7,387.1 C430.8,387.1 430.8,389.1 430.5,389.3 C430.1,389.3 429.8,389.3 429.4,389.3 C428.1,389.3 427.3,390.9 426.7,391.1 C426.4,391.2 425.7,390.9 425.1,391 C424.5,391.1 424,391.6 423.5,391.6 C423.2,391.6 423,391.4 422.8,391.2 C422.1,390.9 421.3,390.7 420.5,390.5 C420.1,390.4 419.5,391 419.2,390.8 C418.8,390.5 419.5,389.8 418.5,389.3 C418.2,388.7 417.9,388.1 417.7,387.4 C418.1,386.3 418.3,385 418.2,383.8 C418,382.6 416.1,381.5 415.6,380.5 C415.2,379.8 414.8,377.8 414.1,377.3 C413.3,376.7 412.6,375.8 412.1,374.9 C412,374.7 412.4,374.2 412.1,373.8 C411.8,373.4 411.2,373.2 411,372.6 C410.8,372 411,370.6 410.5,370.2 C408.7,369.7 407,369.4 405.2,369.2 C404.7,369.2 404.3,369.1 403.9,368.8 C403.7,368.7 403.5,368 403.4,368 C403,368 402.6,368.1 402.2,368.2 C401.9,368.2 401.4,368 401.2,368.2 C399.9,369.1 399.6,370.2 398.4,371.1 C397.2,372 395.8,372 394.6,373.1 C393.8,373.8 393.3,375.4 392.5,376.2 C392.2,376.5 391.6,376.2 391.5,376.3 C390.9,377.1 389.9,377.6 389.3,378.3 C389.2,378.4 389.2,378.8 389,378.9 L387.6,379.3 C387.2,379.4 386.6,379.3 386.3,379.4 C385.7,379.6 385.7,380.3 383.5,380.7 C383.3,380.8 383.1,380.8 382.9,381 C382.6,381.2 382.4,381.5 382.2,381.6 C382,381.7 381.6,381.5 381.3,381.5 C380.8,381.6 380.4,382.1 379.9,382.1 C378.7,382.2 376.9,381.6 375.9,381.9 C375.4,382.1 373.8,383.8 373.3,384 C372.9,384.1 372.7,384 372.3,383.8 C372.1,384 371.7,385.9 371.5,386.3 C371.5,386.3 369,388.4 368.8,388.7 C368.6,389 368.3,389.5 368,389.8 C367.7,390.1 367.3,390.3 366.9,390.3 C366.3,390.2 365.7,390 365.1,389.8 C363.6,389.6 362,389.6 360.5,389.7 C359.6,389.9 359.9,392.4 357.7,392.6 C356.4,392.7 355.3,393 354,393.1 C353.5,392.8 352.9,392.7 352.3,392.8 C352,392.9 351.1,393.8 351.1,394.1 L351.1,394.6 C351.1,394.7 351.4,395 351.3,395.1 C350.6,395.8 349.9,396.5 349.3,397.2 C349.2,397.4 349.1,397.6 348.9,397.7 C348.6,397.9 347.1,398.5 347,398.7 C346.6,399.6 348,400.4 347.9,400.8 C347.5,402 345.9,403.1 345.5,404.2 C345.3,404.7 346,406.1 346,406.7 C345.7,408.2 345.5,409.7 345.4,411.3 C345.4,411.9 345.5,412.5 345.7,413.1 C345.9,413.4 346.2,413.5 346.5,413.8 C347.2,415.1 347.9,416.4 348.5,417.7 C348.8,420.2 345.2,419.3 347.3,421.8 C347.6,422.2 347.9,422.6 348.2,422.9 C348.7,423.4 351.3,425.3 351.3,425.5 C351.3,425.7 349.2,426.2 348.8,426.6 C347.8,427.6 346.9,429.5 345.9,430.6 C345.3,431.2 344.7,430.5 343.9,432.1 C343.6,432.7 343.9,434 343.5,434.3 C343,434.8 342.6,434.1 342,434.4 C341.8,434.5 341.6,435.2 341.4,435.3 C340.8,435.8 335.6,438.5 335.1,438.3 C334.8,438.2 334.6,437.3 334.5,437.1 C334.4,436.7 334.2,436.3 333.9,435.9 C332.6,434.7 330.5,434.7 329.2,435.9 C328.9,436.3 328.8,436.8 328.4,437.2 C327.7,437.8 326.9,438.3 326.2,438.9 C326.1,439 325.7,439.5 325.5,439.4 C325,439.3 323.7,437.9 323.4,437.5 C322.8,436.8 321.1,435.2 321,434.4 C321,431.7 318.9,429 318,426.4 L319.3,426.4 C320.8,425.4 320.3,423 323,423.9 C323.3,423.5 323.3,423 323.9,422.7 C324.1,422.6 324.5,422.5 324.7,422.2 C325.6,420.9 326.6,415.7 325.7,414.4 C324.8,413.1 324.1,413.3 323.4,411.3 C323.2,410.8 323.6,410.1 323.4,409.5 C323.2,408.9 322.4,406.2 322.3,406 C322.2,405.8 321.6,405.5 321.6,405.3 C321.5,404.1 321.4,402.9 321.5,401.7 C320.6,399.3 317.7,397.8 317.5,397.5 C317.1,396.9 316.8,396.2 316.4,395.6 C316.1,395 315.8,394.4 315.7,393.7 C315.6,393.4 315.1,393.1 315.1,392.7 C315,392.1 316.8,390.8 316.7,389.7 C316.7,389.3 315.6,388.3 315.8,387.7 C316,387.1 317.2,385.7 317.1,385 C317,384.1 315.3,382.1 315.1,381.1 C315,380.6 315.8,380.2 315.6,379.9 C315.4,379.6 313.6,377.8 313.3,377.4 C313,377 314,376.6 313.3,375.9 C312.6,375.2 313.2,375.5 313,375 C312.8,374.5 312.1,373.9 311.9,373.3 C311.7,372.7 310.1,367.2 310.1,366.8 C309.8,366.4 309.4,366.1 309.2,365.7 C309,365.3 308.9,364.6 308.7,364.3 C308.7,364.3 306.9,363.8 306.6,363.3 C306.4,362.5 306.1,361.6 305.8,360.8 C305.6,360.5 305.2,360.5 305,360.3 C304.8,360.1 304.8,359.8 304.6,359.6 C304.1,358.9 303,359.6 302.3,356.9 C301.4,356.3 300.5,355.6 299.7,354.9 C299.5,354.8 299.4,354.6 299.2,354.5 C298.4,354.3 297.7,354 297,353.7 C296.2,353.7 295.5,353.6 294.8,353.5 C294.6,353.4 294.4,352.6 294.3,352.6 C293.4,352.4 291.9,352.5 291.1,351.8 C290.5,351.3 290.4,348.7 289.2,349 C289.1,348.9 288.9,348.9 288.8,348.9 C288.1,348 285.6,347.9 284.6,347.3 C284.3,347.1 283.4,347.3 283.4,347 C283.6,346.5 283.6,346.1 283.6,345.6 C283,345.1 282.7,344.4 282.3,344 C281.4,343.8 281.7,343.7 281.1,343.4 C279.5,343.3 279.3,343.5 278.3,344.5 C278,344.7 277.5,344.8 277.2,345 C276.6,345.3 276.5,346.3 275.7,345.8 C275.5,345.6 275.3,345.4 275.1,345.2 C274.7,344.8 274.4,345 274.2,344.3 C272.9,343.6 269.2,346.1 268.3,344.3 C267.7,344 267.2,344.4 266.7,343.8 C266.4,343.5 267.4,340.6 264.8,339.3 C265.4,338.8 266.1,338.5 266.6,338.1 C266.8,337.8 266.6,337.3 266.6,336.9 C266.7,336.3 266.8,335.7 266.8,335 C266.7,334.6 266.3,334.3 266.2,333.9 C266.1,333.5 266.2,332.9 266,332.5 C265.7,332.3 265.5,332.2 265.2,332.1 C264.5,331.6 263.8,331.1 263.2,330.5 C263.1,330.4 263,330.1 262.8,330 C262.3,329.6 260.7,329.2 260.8,328.4 C260.8,328.2 261.2,328.1 261.2,327.9 C261.2,327.7 261.2,327.2 261.5,326.9 C262.3,325.9 263.9,326.3 263.6,324.4 C263.5,323.6 262.9,322.8 262.7,321.9 C262.4,321.7 262.4,321.3 262.1,321.1 C260.5,321 260.7,319.3 260.1,318.9 C258.4,317.7 257.1,318.4 259,316.1 C259.3,315.4 257.3,314.2 257,313.7 C256.3,313.1 256.6,311.7 256.4,311 C256.3,310.6 255.1,310 254.8,309.5 C254.7,309.4 254.4,308.6 254.2,308.5 L254.2,308.3 C254.6,308 254.4,307.5 254.3,307.1 C254.1,306.9 253.6,307 253.4,306.8 C251.8,305.5 249.9,304.6 247.9,304 C247.3,303.8 247.5,303.3 247,303.1 C245.9,302.6 244.8,302.2 243.7,301.8 C243.4,301.7 243.1,300.5 242.9,300.1 C242.6,299.7 242.3,299.4 241.9,299.1 C242,298 241.3,297.8 240.4,297.2 C240.5,297.1 240.3,296.7 240.3,296.5 C240.3,296.3 240.9,294.4 241,294.1 C241.2,293.7 241.7,293.3 241.6,292.8 C241.5,291.9 241.3,291.1 241.1,290.2 C240.2,287.9 239.2,288.2 239.7,285.1 C239.8,284.5 239.6,284.1 240.1,283.6 C240,283.6 240.3,283.3 240.4,283.2 C240.7,282.9 241.5,282.5 241.7,282.3 C242.2,281.6 242.5,280.2 243.1,279.7 C243.5,279.3 244.9,278.7 245.1,278.4 C245.3,278.1 245.6,277.4 245.4,277.1 C245,276.9 244.5,276.9 244,276.9 C243.6,276.7 243.2,276.5 242.8,276.4 C242.7,276.3 242.4,276.1 242.4,275.9 L242.2,275.7 C241.7,275.6 241.1,275.4 240.6,275.2 C239.9,275 239.3,274.8 238.6,274.6 C237.6,274 236.4,272.4 235.4,272.1 C234,271.8 233.2,272.2 231.9,272.3 C231.1,272.4 231.1,271.8 230.4,271.6 C229.5,271.3 230.2,272.1 228.1,271.4 C227.8,271.2 228.2,270.5 228.3,270.2 C228,270.1 227.6,270.3 227.2,270.2 C225.5,269.8 226.1,268.2 225.7,267.2 C225.5,267 224.8,267 224.5,267 C224.4,267 224.4,266.9 224.4,266.8 L224.6,266.7 C224.9,266.3 223.8,265.1 223.9,265 C224,264.6 226.1,264.3 226.4,264.3 C226.5,264 226.2,263.8 226.2,263.5 C226.2,262.8 226.4,262.2 226.7,261.6 L226.6,261.4 C226,261.1 225.8,260.6 225.3,260.2 C225.3,259.9 225.7,259.8 225.8,259.5 C226.8,256.7 228.4,258.9 229.7,256.4 C230,256 230.2,255.6 230.3,255.1 L230.6,255 C230.9,255.1 231.2,255.3 231.5,255.2 C231.8,255 232.1,254.8 232.4,254.8 L232.9,254.9 C235.4,254.4 234.8,253.4 236.3,252.4 C236.9,252.2 237.6,252 238.3,251.8 C239.1,252.4 239.8,252.8 240.7,253.3 C241.4,253.6 244,254.1 244.4,254.4 C244.8,254.7 245,255.4 245.5,255.7 C247,256.5 246.1,255.2 247.5,255.4 C248.9,255.6 250.1,256.9 251.4,257.4 C251.7,257.4 252.1,257.4 252.4,257.3 C253.4,257.1 254.3,256.9 255.3,256.9 C255.6,257 255.9,257.2 256.2,257.3 C256.5,257.4 256.8,256.7 257,256.7 C258,256.8 258,257.2 259.3,257.1 C259.4,257.1 260,253.5 260.6,253.3 C261,253.2 261.9,254.2 262.2,254.2 C262.7,254.3 262.2,253.5 262.1,253.4 C261.8,252.5 261.5,251.6 261.3,250.6 C261.3,250.5 261.9,250.8 262.2,250.7 C263,250.5 263.8,250.2 264.4,249.7 C264.5,249.6 265.6,248.1 265.6,248 C265.7,247.7 265.3,247.1 265.5,246.9 C265.7,246.7 266.3,246.5 266.6,246.2 C266.9,245.9 267.1,245.1 267.7,244.8 C270,244.6 270.8,242.8 272.9,242.6 C273.1,242.6 273.4,242.5 273.6,242.5 L274,243.2 C274.5,243.6 275.1,244 275.8,244.2 C276,244.2 276.1,243.8 276.3,243.8 C277,243.7 277.6,243.3 278,242.8 C278,242.7 277.7,242.4 277.9,242.2 C278.5,241.7 279.1,241.2 279.7,240.8 C280.2,240.7 280.7,240.7 281.3,240.9 C281.6,241 281.6,241.5 281.9,241.5 C282.2,241.5 282.9,241.4 283.2,241.4 C283.5,241.4 283.6,240.9 284,240.8 L284,242.9 Z"/>
        <g transform="translate(365 73)">
          <polygon fill="#FFF" fill-rule="nonzero" points="29.7 .2 47.8 55.8 .5 21.4 58.9 21.4 11.6 55.8"/>
          <polygon fill="#FFF" fill-rule="nonzero" points="100 12.6 118.1 68.2 70.8 33.8 129.2 33.8 82 68.2"/>
          <polygon fill="#FFF" fill-rule="nonzero" points="167.1 37 185.2 92.6 137.9 58.3 196.3 58.3 149 92.6"/>
        </g>
        <g transform="translate(156 73)">
          <polygon fill="#FFF" fill-rule="nonzero" points="167.3 .2 149.2 55.8 196.5 21.5 138.1 21.5 185.4 55.8"/>
          <polygon fill="#FFF" fill-rule="nonzero" points="97 12.6 78.9 68.2 126.2 33.9 67.8 33.9 115 68.2"/>
          <polygon fill="#FFF" fill-rule="nonzero" points="29.9 37 11.8 92.6 59.1 58.3 .7 58.3 48 92.6"/>
        </g>
      </g>
    </g>
  </g>
</svg>
