<svg xmlns="http://www.w3.org/2000/svg" width="40" height="40" viewBox="0 0 40 40">
  <path fill="#FFFFFF" d="M20,0.625 C9.29945312,0.625 0.625,9.29945312 0.625,20 C0.625,30.7005469 9.29945312,39.375 20,39.375 C30.7005469,39.375 39.375,30.7005469 39.375,20 C39.375,9.29945312 30.7005469,0.625 20,0.625 Z M20,4.375 C28.6353125,4.375 35.625,11.3633594 35.625,20 C35.625,28.6353125 28.6366406,35.625 20,35.625 C11.3646875,35.625 4.375,28.6366406 4.375,20 C4.375,11.3646875 11.3633594,4.375 20,4.375 M30.9534375,14.5521094 L29.1928125,12.7772656 C28.8282031,12.4096875 28.2346094,12.4072656 27.8670312,12.7719531 L16.8239062,23.7263281 L12.1526562,19.0171875 C11.7880469,18.6496094 11.1944531,18.6471875 10.826875,19.0117969 L9.05195312,20.7724219 C8.684375,21.1370312 8.68195312,21.730625 9.04664062,22.0982812 L16.1389062,29.2479688 C16.5035156,29.6155469 17.0971094,29.6179688 17.4646875,29.2532813 L30.9482031,15.8779688 C31.3157031,15.5132813 31.3180469,14.9196875 30.9534375,14.5521094 L30.9534375,14.5521094 Z"/>
</svg>
