<svg xmlns="http://www.w3.org/2000/svg" width="124" height="111" viewBox="0 0 124 111">
  <path d="M113.666667,0 L10.3333333,0 C4.62847222,0 0,4.66113281 0,10.40625 L0,79.78125 C0,85.5263672 4.62847222,90.1875 10.3333333,90.1875 L51.6666667,90.1875 L48.2222222,100.59375 L32.7222222,100.59375 C29.8590278,100.59375 27.5555556,102.913477 27.5555556,105.796875 C27.5555556,108.680273 29.8590278,111 32.7222222,111 L91.2777778,111 C94.1409722,111 96.4444444,108.680273 96.4444444,105.796875 C96.4444444,102.913477 94.1409722,100.59375 91.2777778,100.59375 L75.7777778,100.59375 L72.3333333,90.1875 L113.666667,90.1875 C119.371528,90.1875 124,85.5263672 124,79.78125 L124,10.40625 C124,4.66113281 119.371528,0 113.666667,0 Z M110.222222,76.3125 L13.7777778,76.3125 L13.7777778,13.875 L110.222222,13.875 L110.222222,76.3125 Z"/>
</svg>
