<svg xmlns="http://www.w3.org/2000/svg" width="124" height="100" viewBox="0 0 124 100">
  <path d="M114.7,0 L9.3,0 L9.29999959,0 C4.16374522,0 -4.06516562e-07,4.16374563 -4.06516562e-07,9.3 C-4.06516562e-07,9.3 -4.06516562e-07,9.3 -4.06516562e-07,9.3 L-4.06516562e-07,71.3 L-4.06516562e-07,71.3000014 C-4.06516562e-07,76.4362558 4.16374522,80.6000014 9.29999959,80.6000014 L57.3499996,80.6000014 L57.3499996,89.9000014 L21.6999996,89.9000014 L21.6999995,89.9000014 C19.987916,89.9000015 18.5999995,91.2879179 18.5999995,93 C18.5999995,93 18.5999995,93 18.5999995,93 L18.5999995,96.1000014 L18.5999995,96.1000019 C18.5999997,97.8120854 19.9879179,99.2000019 21.6999995,99.2000019 L102.299999,99.2000019 L102.299999,99.2000019 C104.012083,99.2000019 105.399999,97.8120854 105.399999,96.1000019 L105.399999,93 L105.399999,93 C105.399999,91.2879184 104.012083,89.9000019 102.299999,89.9000019 L66.6499993,89.9000019 L66.6499993,80.6000019 L114.699999,80.6000019 L114.699999,80.6000019 C119.836253,80.6000021 124,76.4362562 124,71.3000019 L124,9.30000187 L124,9.30000187 C124,4.1637475 119.836253,0 114.699999,0 L114.7,0 Z M114.7,71.3 L9.3,71.3 L9.3,9.3 L114.7,9.3 L114.7,71.3 Z"/>
</svg>
